<svg xmlns="http://www.w3.org/2000/svg" xmlns:xlink="http://www.w3.org/1999/xlink" width="54" zoomAndPan="magnify" viewBox="0 0 40.5 48" height="64" preserveAspectRatio="xMidYMid meet" version="1.0"><defs><clipPath id="399fd0564a"><path d="M 0.34375 0 L 39.84375 0 L 39.84375 47.019531 L 0.34375 47.019531 Z M 0.34375 0 " clip-rule="nonzero"/></clipPath></defs><g clip-path="url(#399fd0564a)"><path fill="#ffffff" d="M 34.9375 27.546875 C 34.824219 27.546875 34.824219 27.546875 34.9375 27.546875 L 34.824219 26.554688 C 34.824219 26.003906 34.378906 25.5625 33.824219 25.453125 C 33.488281 25.453125 33.15625 25.34375 32.824219 25.34375 C 32.824219 25.34375 32.710938 25.234375 32.710938 25.234375 C 30.597656 23.359375 28.265625 22.039062 25.816406 21.265625 C 29.375 19.394531 31.824219 15.648438 31.824219 11.347656 C 31.824219 5.070312 26.707031 0 20.371094 0 C 14.03125 0 8.917969 5.070312 8.917969 11.347656 C 8.917969 15.648438 11.363281 19.394531 14.921875 21.265625 C 12.476562 22.039062 10.140625 23.359375 8.027344 25.121094 C 8.027344 25.121094 7.917969 25.234375 7.917969 25.34375 C 7.582031 25.34375 7.25 25.34375 6.917969 25.453125 C 6.359375 25.5625 5.914062 26.003906 5.914062 26.554688 L 5.914062 27.4375 C 5.804688 27.546875 5.695312 27.546875 5.695312 27.65625 C 2.359375 31.953125 0.355469 37.792969 0.355469 43.304688 C 0.355469 43.964844 0.800781 44.40625 1.46875 44.40625 L 6.027344 44.40625 C 6.027344 44.625 6.136719 44.847656 6.359375 44.957031 C 6.582031 45.175781 6.917969 45.285156 7.25 45.285156 C 15.144531 44.515625 19.8125 47.378906 19.8125 47.492188 C 19.8125 47.492188 19.925781 47.492188 19.925781 47.601562 C 19.925781 47.601562 20.035156 47.601562 20.035156 47.601562 C 20.148438 47.601562 20.148438 47.601562 20.257812 47.601562 C 20.257812 47.601562 20.371094 47.601562 20.371094 47.601562 C 20.480469 47.601562 20.59375 47.601562 20.703125 47.601562 C 20.703125 47.601562 20.703125 47.601562 20.816406 47.601562 C 20.925781 47.601562 20.925781 47.601562 21.039062 47.492188 C 21.039062 47.492188 25.707031 44.515625 33.601562 45.285156 C 33.933594 45.285156 34.269531 45.175781 34.492188 44.957031 C 34.601562 44.847656 34.714844 44.625 34.824219 44.40625 L 39.382812 44.40625 C 40.050781 44.40625 40.496094 43.964844 40.496094 43.304688 C 40.496094 37.351562 38.492188 31.734375 34.9375 27.546875 Z M 11.140625 11.347656 C 11.140625 6.28125 15.253906 2.203125 20.371094 2.203125 C 25.484375 2.203125 29.597656 6.28125 29.597656 11.347656 C 29.597656 16.417969 25.484375 20.496094 20.371094 20.496094 C 15.253906 20.496094 11.140625 16.417969 11.140625 11.347656 Z M 29.152344 25.34375 C 24.59375 25.671875 21.59375 26.996094 20.371094 27.65625 C 19.148438 26.996094 16.144531 25.671875 11.585938 25.34375 C 14.253906 23.582031 17.257812 22.699219 20.371094 22.699219 C 23.484375 22.699219 26.484375 23.578125 29.152344 25.34375 Z M 5.914062 31.292969 L 5.914062 42.203125 L 2.582031 42.203125 C 2.691406 38.457031 3.914062 34.488281 5.914062 31.292969 Z M 32.601562 42.972656 C 26.152344 42.53125 21.925781 44.40625 20.371094 45.285156 C 18.8125 44.515625 14.589844 42.640625 8.140625 42.972656 L 8.140625 27.546875 C 15.367188 27.105469 19.703125 29.75 19.8125 29.75 C 19.925781 29.75 20.035156 29.859375 20.035156 29.859375 C 20.035156 29.859375 20.148438 29.859375 20.148438 29.859375 C 20.257812 29.859375 20.371094 29.859375 20.480469 29.859375 C 20.480469 29.859375 20.59375 29.859375 20.59375 29.859375 C 20.703125 29.859375 20.816406 29.75 20.925781 29.75 C 20.925781 29.75 20.925781 29.75 21.039062 29.75 C 21.148438 29.640625 25.375 26.996094 32.601562 27.546875 Z M 34.824219 42.203125 L 34.824219 31.292969 C 36.824219 34.488281 38.046875 38.234375 38.160156 42.203125 Z M 34.824219 42.203125 " fill-opacity="1" fill-rule="nonzero"/></g></svg>