<svg xmlns="http://www.w3.org/2000/svg" xmlns:xlink="http://www.w3.org/1999/xlink" width="500" zoomAndPan="magnify" viewBox="0 0 375 449.999984" height="600" preserveAspectRatio="xMidYMid meet" version="1.0"><defs><clipPath id="id1"><path d="M 0 0 L 375 0 L 375 448.5 L 0 448.5 Z M 0 0 " clip-rule="nonzero"/></clipPath></defs><g clip-path="url(#id1)"><path fill="#000000" d="M 322.941406 259.546875 C 321.902344 259.546875 321.902344 259.546875 322.941406 259.546875 L 321.902344 250.203125 C 321.902344 245.015625 317.753906 240.859375 312.5625 239.824219 C 309.449219 239.824219 306.335938 238.785156 303.222656 238.785156 C 303.222656 238.785156 302.183594 237.746094 302.183594 237.746094 C 282.464844 220.097656 260.667969 207.640625 237.835938 200.371094 C 271.046875 182.722656 293.882812 147.421875 293.882812 106.933594 C 293.882812 47.757812 246.140625 0 186.980469 0 C 127.824219 0 80.082031 47.757812 80.082031 106.933594 C 80.082031 147.421875 102.914062 182.722656 136.125 200.371094 C 113.292969 207.640625 91.496094 220.097656 71.777344 236.707031 C 71.777344 236.707031 70.738281 237.746094 70.738281 238.785156 C 67.625 238.785156 64.511719 238.785156 61.398438 239.824219 C 56.210938 240.859375 52.058594 245.015625 52.058594 250.203125 L 52.058594 258.511719 C 51.019531 259.546875 49.980469 259.546875 49.980469 260.585938 C 18.847656 301.078125 0.164062 356.101562 0.164062 408.011719 C 0.164062 414.238281 4.316406 418.390625 10.542969 418.390625 L 53.097656 418.390625 C 53.097656 420.46875 54.132812 422.546875 56.210938 423.582031 C 58.285156 425.660156 61.398438 426.699219 64.511719 426.699219 C 138.203125 419.429688 181.792969 446.421875 181.792969 447.460938 C 181.792969 447.460938 182.828125 447.460938 182.828125 448.5 C 182.828125 448.5 183.867188 448.5 183.867188 448.5 C 184.90625 448.5 184.90625 448.5 185.941406 448.5 C 185.941406 448.5 186.980469 448.5 186.980469 448.5 C 188.019531 448.5 189.058594 448.5 190.09375 448.5 C 190.09375 448.5 190.09375 448.5 191.132812 448.5 C 192.171875 448.5 192.171875 448.5 193.207031 447.460938 C 193.207031 447.460938 236.796875 419.429688 310.488281 426.699219 C 313.601562 426.699219 316.714844 425.660156 318.789062 423.582031 C 319.828125 422.546875 320.867188 420.46875 321.902344 418.390625 L 364.457031 418.390625 C 370.683594 418.390625 374.835938 414.238281 374.835938 408.011719 C 374.835938 351.949219 356.152344 299 322.941406 259.546875 Z M 100.839844 106.933594 C 100.839844 59.175781 139.238281 20.765625 186.980469 20.765625 C 234.722656 20.765625 273.125 59.175781 273.125 106.933594 C 273.125 154.691406 234.722656 193.105469 186.980469 193.105469 C 139.238281 193.105469 100.839844 154.691406 100.839844 106.933594 Z M 268.972656 238.785156 C 226.421875 241.898438 198.398438 254.359375 186.980469 260.585938 C 175.566406 254.359375 147.542969 241.898438 104.988281 238.785156 C 129.898438 222.171875 157.921875 213.867188 186.980469 213.867188 C 216.042969 213.867188 244.0625 222.171875 268.972656 238.785156 Z M 52.058594 294.847656 L 52.058594 397.628906 L 20.921875 397.628906 C 21.960938 362.328125 33.375 324.953125 52.058594 294.847656 Z M 301.148438 404.894531 C 240.949219 400.742188 201.511719 418.390625 186.980469 426.699219 C 172.449219 419.429688 133.011719 401.78125 72.816406 404.894531 L 72.816406 259.546875 C 140.277344 255.394531 180.753906 280.3125 181.792969 280.3125 C 182.828125 280.3125 183.867188 281.351562 183.867188 281.351562 C 183.867188 281.351562 184.90625 281.351562 184.90625 281.351562 C 185.941406 281.351562 186.980469 281.351562 188.019531 281.351562 C 188.019531 281.351562 189.058594 281.351562 189.058594 281.351562 C 190.09375 281.351562 191.132812 280.3125 192.171875 280.3125 C 192.171875 280.3125 192.171875 280.3125 193.207031 280.3125 C 194.246094 279.273438 233.683594 254.359375 301.148438 259.546875 Z M 321.902344 397.628906 L 321.902344 294.847656 C 340.585938 324.953125 352.003906 360.253906 353.039062 397.628906 Z M 321.902344 397.628906 " fill-opacity="1" fill-rule="nonzero"/></g></svg>