<svg xmlns="http://www.w3.org/2000/svg" xmlns:xlink="http://www.w3.org/1999/xlink" width="500" zoomAndPan="magnify" viewBox="0 0 375 374.999991" height="500" preserveAspectRatio="xMidYMid meet" version="1.0"><defs><clipPath id="c84246c0d5"><path d="M 0 46.875 L 375 46.875 L 375 328.125 L 0 328.125 Z M 0 46.875 " clip-rule="nonzero"/></clipPath></defs><g clip-path="url(#c84246c0d5)"><path fill="#ffffff" d="M 374.992188 46.878906 L 374.992188 287.125 C 374.992188 310.507812 357.875 328.121094 336.488281 328.121094 L 50.945312 328.121094 C 15.625 328.121094 0 312.992188 0 268.222656 L 0 95.632812 L 49.453125 95.632812 L 49.453125 46.882812 L 374.980469 46.882812 Z M 49.464844 119.21875 L 23.597656 119.21875 L 23.597656 268.21875 C 23.597656 291.101562 29.070312 302.046875 36.035156 302.046875 C 44.492188 302.046875 49.464844 291.101562 49.464844 268.21875 Z M 351.410156 70.46875 L 73.046875 70.46875 L 73.046875 268.214844 C 73.046875 284.132812 70.058594 295.574219 65.582031 304.527344 L 336.496094 304.527344 C 345.449219 304.527344 351.417969 294.082031 351.417969 287.117188 Z M 182.277344 168.253906 L 113.242188 168.253906 L 113.242188 159.300781 L 182.277344 159.300781 Z M 182.277344 197.605469 L 113.242188 197.605469 L 113.242188 188.648438 L 182.277344 188.648438 Z M 182.277344 225.957031 L 113.242188 225.957031 L 113.242188 217.003906 L 182.277344 217.003906 Z M 182.277344 253.316406 L 113.242188 253.316406 L 113.242188 244.363281 L 182.277344 244.363281 Z M 128.554688 113.039062 L 294.203125 113.039062 L 294.203125 129.625 L 128.554688 129.625 Z M 207.152344 159.300781 L 313.105469 159.300781 L 313.105469 243.902344 L 207.152344 243.902344 Z M 207.152344 159.300781 " fill-opacity="1" fill-rule="nonzero"/></g></svg>