<svg xmlns="http://www.w3.org/2000/svg" xmlns:xlink="http://www.w3.org/1999/xlink" width="459" zoomAndPan="magnify" viewBox="0 0 344.25 374.999991" height="500" preserveAspectRatio="xMidYMid meet" version="1.0"><defs><clipPath id="e0297ff124"><path d="M 0 0.40625 L 343 0.40625 L 343 374.589844 L 0 374.589844 Z M 0 0.40625 " clip-rule="nonzero"/></clipPath></defs><g clip-path="url(#e0297ff124)"><path fill="#ffffff" d="M 319.382812 203.121094 L 311.578125 203.121094 L 311.578125 148.441406 C 312.339844 117.578125 297.875 88.238281 272.933594 70.136719 L 287.972656 10.125 C 288.925781 5.933594 286.453125 1.742188 282.261719 0.597656 C 281.691406 0.40625 280.929688 0.40625 280.359375 0.40625 L 233.71875 0.40625 C 230.292969 0.40625 227.4375 2.503906 226.296875 5.742188 L 217.347656 32.414062 C 214.113281 13.933594 198.121094 0.40625 179.273438 0.40625 L 163.664062 0.40625 C 144.820312 0.40625 128.828125 13.933594 125.402344 32.414062 L 116.453125 5.742188 C 115.503906 2.503906 112.457031 0.40625 109.21875 0.40625 L 62.390625 0.40625 C 58.011719 0.40625 54.585938 3.835938 54.585938 8.21875 C 54.585938 8.789062 54.585938 9.550781 54.777344 10.125 L 69.816406 70.136719 C 44.875 88.238281 30.597656 117.578125 31.359375 148.441406 L 31.359375 202.933594 L 23.554688 202.933594 C 10.609375 202.933594 0.140625 213.410156 0.140625 226.367188 L 0.140625 319.914062 C 0.140625 332.867188 10.609375 343.347656 23.554688 343.347656 L 32.121094 343.347656 C 35.929688 361.445312 51.730469 374.59375 70.195312 374.59375 L 272.746094 374.59375 C 291.210938 374.59375 307.203125 361.636719 310.816406 343.347656 L 319.382812 343.347656 C 332.328125 343.347656 342.800781 332.867188 342.800781 319.914062 L 342.800781 226.367188 C 342.800781 213.601562 332.328125 203.121094 319.382812 203.121094 Z M 239.429688 16.03125 L 270.460938 16.03125 L 259.039062 61.566406 C 249.140625 56.613281 238.667969 52.800781 227.820312 50.515625 Z M 163.664062 16.03125 L 179.273438 16.03125 C 192.21875 16.03125 202.691406 26.507812 202.691406 39.464844 L 202.691406 47.464844 C 200.023438 47.277344 197.550781 47.085938 194.886719 47.085938 L 148.054688 47.085938 C 145.390625 47.085938 142.914062 47.277344 140.25 47.464844 L 140.25 39.464844 C 140.25 26.507812 150.71875 16.03125 163.664062 16.03125 Z M 72.480469 16.03125 L 103.699219 16.03125 L 115.3125 50.707031 C 104.460938 52.992188 93.992188 56.613281 84.09375 61.753906 Z M 15.75 319.914062 L 15.75 226.367188 C 15.75 221.984375 19.175781 218.554688 23.554688 218.554688 L 31.359375 218.554688 L 31.359375 327.722656 L 23.554688 327.722656 C 19.175781 327.722656 15.75 324.292969 15.75 319.914062 Z M 132.445312 358.96875 C 102.367188 358.96875 78 334.582031 78 304.480469 L 78 195.3125 C 78 165.207031 102.367188 140.820312 132.445312 140.820312 L 210.304688 140.820312 C 240.382812 140.820312 264.75 165.207031 264.75 195.3125 L 264.75 304.480469 C 264.75 334.582031 240.382812 358.96875 210.304688 358.96875 Z M 272.746094 358.96875 L 254.46875 358.96875 C 271.03125 345.632812 280.550781 325.628906 280.550781 304.480469 L 280.550781 195.3125 C 280.550781 156.636719 249.140625 125.199219 210.496094 125.199219 L 132.445312 125.199219 C 93.800781 125.199219 62.390625 156.636719 62.390625 195.3125 L 62.390625 304.480469 C 62.390625 325.628906 72.097656 345.824219 88.46875 358.96875 L 70.195312 358.96875 C 57.25 358.96875 46.78125 348.492188 46.78125 335.535156 L 46.78125 148.441406 C 46.78125 89.191406 97.609375 62.707031 148.054688 62.707031 L 194.695312 62.707031 C 245.140625 62.707031 295.96875 89.191406 295.96875 148.441406 L 295.96875 335.535156 C 295.96875 348.492188 285.691406 358.96875 272.746094 358.96875 Z M 327.191406 319.914062 C 327.191406 324.292969 323.761719 327.722656 319.382812 327.722656 L 311.578125 327.722656 L 311.578125 218.554688 L 319.382812 218.554688 C 323.761719 218.554688 327.191406 221.984375 327.191406 226.367188 Z M 327.191406 319.914062 " fill-opacity="1" fill-rule="nonzero"/></g><path fill="#ffffff" d="M 257.136719 195.3125 C 257.136719 190.929688 253.707031 187.5 249.328125 187.5 L 93.609375 187.5 C 89.230469 187.5 85.804688 190.929688 85.804688 195.3125 C 85.804688 199.695312 89.230469 203.121094 93.609375 203.121094 L 249.328125 203.121094 C 253.707031 203.121094 257.136719 199.503906 257.136719 195.3125 Z M 257.136719 195.3125 " fill-opacity="1" fill-rule="nonzero"/><path fill="#ffffff" d="M 225.914062 319.914062 L 225.914062 241.988281 C 225.914062 237.605469 222.488281 234.179688 218.109375 234.179688 L 124.832031 234.179688 C 120.453125 234.179688 117.027344 237.605469 117.027344 241.988281 L 117.027344 319.914062 C 117.027344 324.292969 120.453125 327.722656 124.832031 327.722656 L 218.300781 327.722656 C 222.488281 327.722656 225.914062 324.292969 225.914062 319.914062 Z M 210.496094 312.101562 L 132.445312 312.101562 L 132.445312 249.800781 L 210.304688 249.800781 L 210.304688 312.101562 Z M 210.496094 312.101562 " fill-opacity="1" fill-rule="nonzero"/><path fill="#ffffff" d="M 241.523438 210.933594 L 241.523438 226.558594 C 241.523438 230.9375 244.953125 234.367188 249.328125 234.367188 C 253.707031 234.367188 257.136719 230.9375 257.136719 226.558594 L 257.136719 210.933594 C 257.136719 206.550781 253.707031 203.121094 249.328125 203.121094 C 244.953125 203.121094 241.523438 206.550781 241.523438 210.933594 Z M 241.523438 210.933594 " fill-opacity="1" fill-rule="nonzero"/><path fill="#ffffff" d="M 210.496094 86.140625 L 132.445312 86.140625 C 128.066406 86.140625 124.640625 89.570312 124.640625 93.953125 C 124.640625 98.335938 128.066406 101.765625 132.445312 101.765625 L 210.304688 101.765625 C 214.683594 101.765625 218.109375 98.335938 218.109375 93.953125 C 218.109375 89.570312 214.683594 86.140625 210.496094 86.140625 Z M 210.496094 86.140625 " fill-opacity="1" fill-rule="nonzero"/></svg>