<svg xmlns="http://www.w3.org/2000/svg" xmlns:xlink="http://www.w3.org/1999/xlink" width="358" zoomAndPan="magnify" viewBox="0 0 268.5 258.749997" height="345" preserveAspectRatio="xMidYMid meet" version="1.0"><defs><clipPath id="879a990e81"><path d="M 0 0.117188 L 268 0.117188 L 268 258.382812 L 0 258.382812 Z M 0 0.117188 " clip-rule="nonzero"/></clipPath></defs><g clip-path="url(#879a990e81)"><path fill="#ffffff" d="M 189.773438 101.765625 C 146.394531 101.765625 111.113281 137 111.113281 180.316406 C 111.113281 193.671875 114.496094 206.253906 120.40625 217.28125 L 9.320312 217.28125 L 9.320312 60.183594 L 212.910156 60.183594 L 212.910156 105.25 C 205.589844 102.996094 197.816406 101.765625 189.773438 101.765625 Z M 259.179688 180.316406 C 259.179688 218.542969 228.035156 249.625 189.773438 249.625 C 151.511719 249.625 120.367188 218.542969 120.367188 180.316406 C 120.367188 142.089844 151.511719 111.007812 189.773438 111.007812 C 228.035156 111.007812 259.179688 142.089844 259.179688 180.316406 Z M 27.828125 226.523438 L 126.296875 226.523438 C 128.683594 229.789062 131.269531 232.910156 134.105469 235.761719 L 27.828125 235.761719 Z M 9.320312 27.839844 C 9.320312 25.292969 11.398438 23.21875 13.949219 23.21875 L 27.828125 23.21875 L 27.828125 32.460938 C 27.828125 35.003906 29.90625 37.078125 32.457031 37.078125 L 50.964844 37.078125 C 53.511719 37.078125 55.589844 35.003906 55.589844 32.460938 L 55.589844 23.21875 L 74.097656 23.21875 L 74.097656 32.460938 C 74.097656 35.003906 76.175781 37.078125 78.726562 37.078125 L 97.234375 37.078125 C 99.78125 37.078125 101.859375 35.003906 101.859375 32.460938 L 101.859375 23.21875 L 120.367188 23.21875 L 120.367188 32.460938 C 120.367188 35.003906 122.449219 37.078125 124.996094 37.078125 L 143.503906 37.078125 C 146.050781 37.078125 148.132812 35.003906 148.132812 32.460938 L 148.132812 23.21875 L 166.640625 23.21875 L 166.640625 32.460938 C 166.640625 35.003906 168.71875 37.078125 171.265625 37.078125 L 189.773438 37.078125 C 192.324219 37.078125 194.402344 35.003906 194.402344 32.460938 L 194.402344 23.21875 L 208.28125 23.21875 C 210.832031 23.21875 212.910156 25.292969 212.910156 27.839844 L 212.910156 50.941406 L 9.320312 50.941406 Z M 37.082031 13.976562 C 37.082031 11.433594 39.160156 9.355469 41.710938 9.355469 C 44.257812 9.355469 46.335938 11.433594 46.335938 13.976562 L 46.335938 27.839844 L 37.082031 27.839844 Z M 83.351562 13.976562 C 83.351562 11.433594 85.429688 9.355469 87.980469 9.355469 C 90.527344 9.355469 92.605469 11.433594 92.605469 13.976562 L 92.605469 27.839844 L 83.351562 27.839844 Z M 129.621094 13.976562 C 129.621094 11.433594 131.703125 9.355469 134.25 9.355469 C 136.796875 9.355469 138.878906 11.433594 138.878906 13.976562 L 138.878906 27.839844 L 129.621094 27.839844 Z M 175.894531 13.976562 C 175.894531 11.433594 177.972656 9.355469 180.519531 9.355469 C 183.070312 9.355469 185.148438 11.433594 185.148438 13.976562 L 185.148438 27.839844 L 175.894531 27.839844 Z M 222.164062 27.839844 C 222.164062 20.1875 215.945312 13.976562 208.28125 13.976562 L 194.402344 13.976562 C 194.402344 6.324219 188.183594 0.117188 180.519531 0.117188 C 172.855469 0.117188 166.640625 6.324219 166.640625 13.976562 L 148.132812 13.976562 C 148.132812 6.324219 141.914062 0.117188 134.25 0.117188 C 126.585938 0.117188 120.367188 6.324219 120.367188 13.976562 L 101.859375 13.976562 C 101.859375 6.324219 95.644531 0.117188 87.980469 0.117188 C 80.316406 0.117188 74.097656 6.324219 74.097656 13.976562 L 55.589844 13.976562 C 55.589844 6.324219 49.375 0.117188 41.710938 0.117188 C 34.046875 0.117188 27.828125 6.324219 27.828125 13.976562 L 13.949219 13.976562 C 6.285156 13.976562 0.0664062 20.1875 0.0664062 27.839844 L 0.0664062 221.902344 C 0.0664062 224.445312 2.144531 226.523438 4.695312 226.523438 L 18.574219 226.523438 L 18.574219 240.382812 C 18.574219 242.929688 20.652344 245.003906 23.203125 245.003906 L 145.039062 245.003906 C 145.09375 245.003906 145.148438 244.96875 145.203125 244.96875 C 157.890625 253.722656 173.234375 258.867188 189.773438 258.867188 C 233.152344 258.867188 268.433594 223.632812 268.433594 180.316406 C 268.433594 148.53125 249.402344 121.171875 222.164062 108.824219 L 222.164062 27.839844 " fill-opacity="1" fill-rule="nonzero"/></g><path fill="#ffffff" d="M 41.710938 97.148438 C 39.160156 97.148438 37.082031 95.070312 37.082031 92.527344 C 37.082031 89.980469 39.160156 87.90625 41.710938 87.90625 C 44.257812 87.90625 46.335938 89.980469 46.335938 92.527344 C 46.335938 95.070312 44.257812 97.148438 41.710938 97.148438 Z M 41.710938 78.664062 C 34.046875 78.664062 27.828125 84.875 27.828125 92.527344 C 27.828125 100.179688 34.046875 106.386719 41.710938 106.386719 C 49.375 106.386719 55.589844 100.179688 55.589844 92.527344 C 55.589844 84.875 49.375 78.664062 41.710938 78.664062 " fill-opacity="1" fill-rule="nonzero"/><path fill="#ffffff" d="M 87.980469 97.148438 C 85.429688 97.148438 83.351562 95.070312 83.351562 92.527344 C 83.351562 89.980469 85.429688 87.90625 87.980469 87.90625 C 90.527344 87.90625 92.605469 89.980469 92.605469 92.527344 C 92.605469 95.070312 90.527344 97.148438 87.980469 97.148438 Z M 87.980469 78.664062 C 80.316406 78.664062 74.097656 84.875 74.097656 92.527344 C 74.097656 100.179688 80.316406 106.386719 87.980469 106.386719 C 95.644531 106.386719 101.859375 100.179688 101.859375 92.527344 C 101.859375 84.875 95.644531 78.664062 87.980469 78.664062 " fill-opacity="1" fill-rule="nonzero"/><path fill="#ffffff" d="M 134.25 97.148438 C 131.703125 97.148438 129.621094 95.070312 129.621094 92.527344 C 129.621094 89.980469 131.703125 87.90625 134.25 87.90625 C 136.796875 87.90625 138.878906 89.980469 138.878906 92.527344 C 138.878906 95.070312 136.796875 97.148438 134.25 97.148438 Z M 134.25 78.664062 C 126.585938 78.664062 120.367188 84.875 120.367188 92.527344 C 120.367188 100.179688 126.585938 106.386719 134.25 106.386719 C 141.914062 106.386719 148.132812 100.179688 148.132812 92.527344 C 148.132812 84.875 141.914062 78.664062 134.25 78.664062 " fill-opacity="1" fill-rule="nonzero"/><path fill="#ffffff" d="M 41.710938 134.109375 C 39.160156 134.109375 37.082031 132.035156 37.082031 129.492188 C 37.082031 126.945312 39.160156 124.871094 41.710938 124.871094 C 44.257812 124.871094 46.335938 126.945312 46.335938 129.492188 C 46.335938 132.035156 44.257812 134.109375 41.710938 134.109375 Z M 41.710938 115.628906 C 34.046875 115.628906 27.828125 121.839844 27.828125 129.492188 C 27.828125 137.144531 34.046875 143.351562 41.710938 143.351562 C 49.375 143.351562 55.589844 137.144531 55.589844 129.492188 C 55.589844 121.839844 49.375 115.628906 41.710938 115.628906 " fill-opacity="1" fill-rule="nonzero"/><path fill="#ffffff" d="M 87.980469 134.109375 C 85.429688 134.109375 83.351562 132.035156 83.351562 129.492188 C 83.351562 126.945312 85.429688 124.871094 87.980469 124.871094 C 90.527344 124.871094 92.605469 126.945312 92.605469 129.492188 C 92.605469 132.035156 90.527344 134.109375 87.980469 134.109375 Z M 87.980469 115.628906 C 80.316406 115.628906 74.097656 121.839844 74.097656 129.492188 C 74.097656 137.144531 80.316406 143.351562 87.980469 143.351562 C 95.644531 143.351562 101.859375 137.144531 101.859375 129.492188 C 101.859375 121.839844 95.644531 115.628906 87.980469 115.628906 " fill-opacity="1" fill-rule="nonzero"/><path fill="#ffffff" d="M 41.710938 171.074219 C 39.160156 171.074219 37.082031 169 37.082031 166.453125 C 37.082031 163.910156 39.160156 161.835938 41.710938 161.835938 C 44.257812 161.835938 46.335938 163.910156 46.335938 166.453125 C 46.335938 169 44.257812 171.074219 41.710938 171.074219 Z M 41.710938 152.59375 C 34.046875 152.59375 27.828125 158.800781 27.828125 166.453125 C 27.828125 174.109375 34.046875 180.316406 41.710938 180.316406 C 49.375 180.316406 55.589844 174.109375 55.589844 166.453125 C 55.589844 158.800781 49.375 152.59375 41.710938 152.59375 " fill-opacity="1" fill-rule="nonzero"/><path fill="#ffffff" d="M 87.980469 171.074219 C 85.429688 171.074219 83.351562 169 83.351562 166.453125 C 83.351562 163.910156 85.429688 161.835938 87.980469 161.835938 C 90.527344 161.835938 92.605469 163.910156 92.605469 166.453125 C 92.605469 169 90.527344 171.074219 87.980469 171.074219 Z M 87.980469 152.59375 C 80.316406 152.59375 74.097656 158.800781 74.097656 166.453125 C 74.097656 174.109375 80.316406 180.316406 87.980469 180.316406 C 95.644531 180.316406 101.859375 174.109375 101.859375 166.453125 C 101.859375 158.800781 95.644531 152.59375 87.980469 152.59375 " fill-opacity="1" fill-rule="nonzero"/><path fill="#ffffff" d="M 240.671875 180.316406 L 231.417969 180.316406 C 228.867188 180.316406 226.789062 182.390625 226.789062 184.9375 C 226.789062 187.480469 228.867188 189.558594 231.417969 189.558594 L 239.785156 189.558594 C 235.683594 211.703125 217.210938 228.851562 194.402344 230.90625 L 194.402344 221.902344 C 194.402344 219.355469 192.324219 217.28125 189.773438 217.28125 C 187.226562 217.28125 185.148438 219.355469 185.148438 221.902344 L 185.148438 230.90625 C 162.335938 228.851562 143.867188 211.703125 139.761719 189.558594 L 148.132812 189.558594 C 150.679688 189.558594 152.757812 187.480469 152.757812 184.9375 C 152.757812 182.390625 150.679688 180.316406 148.132812 180.316406 L 138.878906 180.316406 C 138.878906 153.855469 159.246094 132.070312 185.148438 129.726562 L 185.148438 138.730469 C 185.148438 141.277344 187.226562 143.351562 189.773438 143.351562 C 192.324219 143.351562 194.402344 141.277344 194.402344 138.730469 L 194.402344 129.726562 C 220.300781 132.070312 240.671875 153.855469 240.671875 180.316406 Z M 129.621094 180.316406 C 129.621094 213.4375 156.609375 240.382812 189.773438 240.382812 C 222.941406 240.382812 249.925781 213.4375 249.925781 180.316406 C 249.925781 147.195312 222.941406 120.25 189.773438 120.25 C 156.609375 120.25 129.621094 147.195312 129.621094 180.316406 " fill-opacity="1" fill-rule="nonzero"/><path fill="#ffffff" d="M 190.769531 178.097656 L 184.371094 168.511719 C 182.941406 166.382812 180.085938 165.824219 177.953125 167.230469 C 175.820312 168.640625 175.261719 171.507812 176.671875 173.636719 L 185.925781 187.5 C 186.648438 188.582031 187.804688 189.324219 189.105469 189.503906 C 189.339844 189.539062 189.558594 189.558594 189.773438 189.558594 C 190.839844 189.558594 191.90625 189.179688 192.738281 188.492188 L 220.5 165.390625 C 222.46875 163.746094 222.722656 160.839844 221.097656 158.875 C 219.453125 156.90625 216.542969 156.65625 214.570312 158.277344 L 190.769531 178.097656 " fill-opacity="1" fill-rule="nonzero"/></svg>