<svg xmlns="http://www.w3.org/2000/svg" xmlns:xlink="http://www.w3.org/1999/xlink" width="369" zoomAndPan="magnify" viewBox="0 0 276.75 276.749996" height="369" preserveAspectRatio="xMidYMid meet" version="1.0"><defs><clipPath id="2bfbcd30b4"><path d="M 0 115 L 276.5 115 L 276.5 276.5 L 0 276.5 Z M 0 115 " clip-rule="nonzero"/></clipPath></defs><g clip-path="url(#2bfbcd30b4)"><path fill="#ffffff" d="M 275.828125 152.488281 L 252.816406 117.972656 C 251.746094 116.4375 249.902344 115.363281 248.0625 115.363281 L 225.050781 115.363281 C 221.828125 115.363281 219.375 117.972656 219.375 121.039062 C 219.375 124.109375 221.984375 126.714844 225.050781 126.714844 L 244.996094 126.714844 L 260.335938 149.726562 L 202.039062 149.726562 C 198.816406 149.726562 196.363281 152.335938 196.363281 155.402344 C 196.363281 158.472656 198.972656 161.078125 202.039062 161.078125 L 253.738281 161.078125 L 253.738281 264.628906 L 190.535156 264.628906 L 190.535156 126.5625 C 190.535156 123.339844 187.925781 120.886719 184.859375 120.886719 C 181.789062 120.886719 179.183594 123.496094 179.183594 126.5625 L 179.183594 264.628906 L 167.675781 264.628906 L 167.675781 212.933594 C 167.675781 209.710938 165.066406 207.253906 162 207.253906 L 115.671875 207.253906 C 112.449219 207.253906 109.996094 209.863281 109.996094 212.933594 L 109.996094 264.628906 L 98.488281 264.628906 L 98.488281 126.5625 C 98.488281 123.339844 95.878906 120.886719 92.8125 120.886719 C 89.589844 120.886719 87.136719 123.496094 87.136719 126.5625 L 87.136719 264.628906 L 23.625 264.628906 L 23.625 161.386719 L 75.324219 161.386719 C 78.546875 161.386719 81 158.777344 81 155.710938 C 81 152.640625 78.390625 150.035156 75.324219 150.035156 L 17.027344 150.035156 L 32.371094 127.023438 L 52.3125 127.023438 C 55.535156 127.023438 57.988281 124.414062 57.988281 121.347656 C 57.988281 118.277344 55.535156 115.363281 52.464844 115.363281 L 29.453125 115.363281 C 27.460938 115.363281 25.773438 116.285156 24.699219 117.972656 L 1.6875 152.488281 C 0 155.097656 0.613281 158.777344 3.222656 160.464844 C 4.140625 161.078125 5.214844 161.386719 6.441406 161.386719 L 12.121094 161.386719 L 12.121094 270.613281 C 12.121094 273.835938 14.726562 276.289062 17.796875 276.289062 L 259.414062 276.289062 C 262.636719 276.289062 265.246094 273.683594 265.246094 270.613281 L 265.246094 161.386719 L 270.921875 161.386719 C 274.140625 161.386719 276.597656 158.777344 276.75 155.710938 C 276.75 154.484375 276.441406 153.410156 275.828125 152.488281 Z M 144.511719 264.9375 L 144.511719 236.25 C 144.511719 233.027344 141.902344 230.574219 138.835938 230.574219 C 135.765625 230.574219 133.160156 233.183594 133.160156 236.25 L 133.160156 264.9375 L 121.652344 264.9375 L 121.652344 218.914062 L 156.171875 218.914062 L 156.171875 264.9375 Z M 144.511719 264.9375 " fill-opacity="1" fill-rule="nonzero"/></g><path fill="#ffffff" d="M 67.347656 137.148438 L 138.683594 82.378906 L 210.015625 137.148438 C 212.625 138.988281 216.152344 138.527344 218.148438 136.074219 C 220.140625 133.773438 219.835938 130.246094 217.535156 128.25 C 217.378906 128.097656 217.226562 128.097656 217.226562 127.941406 L 142.210938 70.566406 C 140.214844 69.035156 137.300781 69.035156 135.152344 70.566406 L 60.441406 128.097656 C 57.988281 130.089844 57.527344 133.621094 59.371094 136.226562 C 61.363281 138.683594 64.890625 139.140625 67.347656 137.148438 Z M 67.347656 137.148438 " fill-opacity="1" fill-rule="nonzero"/><path fill="#ffffff" d="M 67.347656 114.136719 L 138.683594 59.371094 L 210.015625 114.136719 C 212.472656 116.128906 216.152344 115.671875 218.148438 113.0625 C 220.140625 110.609375 219.683594 106.925781 217.074219 104.933594 L 144.511719 49.246094 L 144.511719 34.824219 L 173.199219 34.824219 C 176.421875 34.824219 178.875 32.214844 178.875 29.148438 L 178.875 6.136719 C 178.875 2.914062 176.265625 0.460938 173.199219 0.460938 L 138.683594 0.460938 C 135.460938 0.460938 133.003906 3.066406 133.003906 6.136719 L 133.003906 49.398438 L 60.441406 105.085938 C 57.988281 107.078125 57.527344 110.609375 59.371094 113.214844 C 61.363281 115.671875 64.890625 116.128906 67.347656 114.136719 Z M 167.523438 23.316406 L 144.511719 23.316406 L 144.511719 11.8125 L 167.523438 11.8125 Z M 167.523438 23.316406 " fill-opacity="1" fill-rule="nonzero"/><path fill="#ffffff" d="M 138.683594 109.535156 C 122.726562 109.535156 109.996094 122.421875 109.996094 138.222656 C 109.996094 154.023438 122.878906 166.910156 138.683594 166.910156 C 154.484375 166.910156 167.371094 154.023438 167.371094 138.222656 C 167.371094 122.421875 154.636719 109.6875 138.683594 109.535156 Z M 154.941406 132.546875 L 144.511719 132.546875 L 144.511719 122.113281 C 149.265625 123.953125 153.101562 127.789062 154.941406 132.546875 Z M 138.683594 155.558594 C 129.171875 155.558594 121.5 147.886719 121.5 138.375 C 121.5 131.011719 126.101562 124.566406 133.003906 122.113281 L 133.003906 138.375 C 133.003906 141.597656 135.613281 144.050781 138.683594 144.050781 L 154.941406 144.050781 C 152.488281 150.953125 146.046875 155.558594 138.683594 155.558594 Z M 138.683594 155.558594 " fill-opacity="1" fill-rule="nonzero"/><path fill="#ffffff" d="M 75.476562 213.085938 L 75.476562 178.566406 C 75.476562 175.347656 72.871094 172.890625 69.800781 172.890625 L 35.128906 172.890625 C 31.910156 172.890625 29.453125 175.5 29.453125 178.566406 L 29.453125 213.085938 C 29.453125 216.308594 32.0625 218.914062 35.128906 218.914062 L 69.648438 218.914062 C 72.871094 218.914062 75.476562 216.308594 75.476562 213.085938 Z M 63.972656 207.410156 L 40.960938 207.410156 L 40.960938 184.398438 L 63.972656 184.398438 Z M 63.972656 207.410156 " fill-opacity="1" fill-rule="nonzero"/><path fill="#ffffff" d="M 247.910156 213.085938 L 247.910156 178.566406 C 247.910156 175.347656 245.300781 172.890625 242.234375 172.890625 L 207.714844 172.890625 C 204.496094 172.890625 202.039062 175.5 202.039062 178.566406 L 202.039062 213.085938 C 202.039062 216.308594 204.648438 218.914062 207.714844 218.914062 L 242.234375 218.914062 C 245.453125 218.914062 247.910156 216.308594 247.910156 213.085938 Z M 236.558594 207.410156 L 213.546875 207.410156 L 213.546875 184.398438 L 236.558594 184.398438 Z M 236.558594 207.410156 " fill-opacity="1" fill-rule="nonzero"/><path fill="#ffffff" d="M 115.671875 172.890625 C 112.449219 172.890625 109.996094 175.5 109.996094 178.566406 C 109.996094 181.636719 112.601562 184.246094 115.671875 184.246094 L 127.175781 184.246094 C 130.398438 184.246094 132.851562 181.636719 132.851562 178.566406 C 132.851562 175.5 130.246094 172.890625 127.175781 172.890625 Z M 115.671875 172.890625 " fill-opacity="1" fill-rule="nonzero"/><path fill="#ffffff" d="M 46.636719 230.421875 C 43.414062 230.421875 40.960938 233.027344 40.960938 236.097656 C 40.960938 239.164062 43.566406 241.773438 46.636719 241.773438 L 58.140625 241.773438 C 61.363281 241.773438 63.816406 239.164062 63.816406 236.097656 C 63.816406 233.027344 61.210938 230.421875 58.140625 230.421875 Z M 46.636719 230.421875 " fill-opacity="1" fill-rule="nonzero"/><path fill="#ffffff" d="M 219.222656 230.421875 C 216 230.421875 213.390625 233.027344 213.390625 236.097656 C 213.390625 239.164062 216 241.773438 219.222656 241.773438 L 230.726562 241.773438 C 233.949219 241.773438 236.558594 239.164062 236.558594 236.097656 C 236.558594 233.027344 233.949219 230.421875 230.726562 230.421875 Z M 219.222656 230.421875 " fill-opacity="1" fill-rule="nonzero"/><path fill="#ffffff" d="M 150.1875 172.890625 C 146.964844 172.890625 144.511719 175.5 144.511719 178.566406 C 144.511719 181.636719 147.121094 184.246094 150.1875 184.246094 L 161.691406 184.246094 C 164.914062 184.246094 167.371094 181.636719 167.371094 178.566406 C 167.371094 175.5 164.761719 172.890625 161.691406 172.890625 Z M 150.1875 172.890625 " fill-opacity="1" fill-rule="nonzero"/></svg>