<svg xmlns="http://www.w3.org/2000/svg" xmlns:xlink="http://www.w3.org/1999/xlink" width="500" zoomAndPan="magnify" viewBox="0 0 375 359.999987" height="480" preserveAspectRatio="xMidYMid meet" version="1.0"><defs><clipPath id="e555253520"><path d="M 133.453125 74.550781 L 236.203125 74.550781 L 236.203125 177.300781 L 133.453125 177.300781 Z M 133.453125 74.550781 " clip-rule="nonzero"/></clipPath></defs><path fill="#ffffff" d="M 360.539062 137.261719 L 196.777344 4.503906 C 196.089844 3.945312 195.355469 3.449219 194.582031 3.011719 C 193.808594 2.578125 193.003906 2.210938 192.164062 1.914062 C 191.328125 1.617188 190.472656 1.394531 189.597656 1.242188 C 188.722656 1.089844 187.839844 1.015625 186.953125 1.015625 C 186.066406 1.015625 185.183594 1.089844 184.308594 1.242188 C 183.433594 1.394531 182.578125 1.617188 181.738281 1.914062 C 180.902344 2.210938 180.097656 2.578125 179.324219 3.011719 C 178.546875 3.449219 177.816406 3.945312 177.128906 4.503906 L 13.367188 137.261719 C 12.570312 137.90625 11.847656 138.625 11.191406 139.414062 C 10.535156 140.203125 9.964844 141.046875 9.476562 141.949219 C 8.988281 142.851562 8.589844 143.792969 8.285156 144.773438 C 7.984375 145.753906 7.777344 146.753906 7.671875 147.773438 C 7.5625 148.796875 7.558594 149.816406 7.652344 150.839844 C 7.746094 151.859375 7.9375 152.863281 8.230469 153.847656 C 8.523438 154.832031 8.90625 155.777344 9.382812 156.683594 C 9.859375 157.59375 10.421875 158.445312 11.066406 159.242188 C 11.710938 160.039062 12.429688 160.765625 13.21875 161.421875 C 14.003906 162.078125 14.851562 162.652344 15.75 163.140625 C 16.652344 163.628906 17.589844 164.027344 18.570312 164.332031 C 19.546875 164.636719 20.546875 164.839844 21.566406 164.949219 C 22.585938 165.054688 23.605469 165.0625 24.625 164.964844 C 25.648438 164.871094 26.648438 164.679688 27.628906 164.386719 C 28.613281 164.097656 29.558594 163.710938 30.464844 163.234375 C 31.371094 162.753906 32.222656 162.191406 33.019531 161.546875 L 38.789062 157.171875 L 38.789062 344.59375 C 38.789062 345.617188 38.890625 346.632812 39.089844 347.640625 C 39.289062 348.644531 39.585938 349.621094 39.976562 350.570312 C 40.367188 351.515625 40.847656 352.417969 41.417969 353.269531 C 41.988281 354.121094 42.632812 354.910156 43.355469 355.636719 C 44.082031 356.359375 44.871094 357.007812 45.722656 357.578125 C 46.570312 358.148438 47.472656 358.628906 48.417969 359.019531 C 49.363281 359.414062 50.339844 359.710938 51.34375 359.910156 C 52.347656 360.109375 53.363281 360.210938 54.386719 360.210938 L 319.519531 360.210938 C 320.542969 360.210938 321.558594 360.109375 322.5625 359.910156 C 323.566406 359.710938 324.542969 359.414062 325.488281 359.019531 C 326.433594 358.628906 327.332031 358.148438 328.183594 357.578125 C 329.035156 357.007812 329.824219 356.359375 330.546875 355.636719 C 331.273438 354.910156 331.917969 354.121094 332.488281 353.269531 C 333.054688 352.417969 333.535156 351.515625 333.929688 350.570312 C 334.320312 349.621094 334.617188 348.644531 334.816406 347.640625 C 335.015625 346.632812 335.117188 345.617188 335.117188 344.59375 L 335.117188 157.171875 L 340.886719 161.859375 C 341.691406 162.503906 342.554688 163.0625 343.472656 163.539062 C 344.386719 164.011719 345.34375 164.394531 346.332031 164.679688 C 347.324219 164.96875 348.335938 165.15625 349.363281 165.242188 C 350.390625 165.332031 351.417969 165.316406 352.445312 165.203125 C 353.46875 165.085938 354.472656 164.875 355.457031 164.5625 C 356.441406 164.25 357.386719 163.84375 358.289062 163.34375 C 359.195312 162.84375 360.039062 162.261719 360.828125 161.597656 C 361.617188 160.929688 362.335938 160.195312 362.980469 159.386719 C 363.625 158.582031 364.183594 157.71875 364.660156 156.800781 C 365.136719 155.882812 365.515625 154.929688 365.804688 153.9375 C 366.09375 152.945312 366.28125 151.933594 366.367188 150.902344 C 366.457031 149.875 366.445312 148.84375 366.332031 147.816406 C 366.21875 146.789062 366.007812 145.785156 365.695312 144.800781 C 365.382812 143.8125 364.980469 142.867188 364.484375 141.960938 C 363.984375 141.054688 363.40625 140.207031 362.742188 139.417969 C 362.078125 138.625 361.34375 137.90625 360.539062 137.261719 Z M 147.960938 328.972656 L 147.960938 235.265625 L 225.941406 235.265625 L 225.941406 328.972656 Z M 303.921875 328.972656 L 257.136719 328.972656 L 257.136719 219.644531 C 257.136719 218.621094 257.035156 217.605469 256.835938 216.597656 C 256.636719 215.59375 256.339844 214.617188 255.949219 213.667969 C 255.554688 212.722656 255.074219 211.820312 254.507812 210.96875 C 253.9375 210.117188 253.292969 209.328125 252.566406 208.601562 C 251.84375 207.878906 251.054688 207.230469 250.203125 206.660156 C 249.351562 206.089844 248.453125 205.609375 247.507812 205.21875 C 246.5625 204.824219 245.585938 204.527344 244.582031 204.328125 C 243.578125 204.128906 242.5625 204.027344 241.539062 204.027344 L 132.367188 204.027344 C 131.34375 204.027344 130.328125 204.128906 129.324219 204.328125 C 128.320312 204.527344 127.34375 204.824219 126.398438 205.21875 C 125.453125 205.609375 124.554688 206.089844 123.703125 206.660156 C 122.851562 207.230469 122.0625 207.878906 121.339844 208.601562 C 120.613281 209.328125 119.96875 210.117188 119.398438 210.96875 C 118.828125 211.820312 118.347656 212.722656 117.957031 213.667969 C 117.566406 214.617188 117.269531 215.59375 117.070312 216.597656 C 116.871094 217.605469 116.769531 218.621094 116.769531 219.644531 L 116.769531 328.972656 L 69.980469 328.972656 L 69.980469 131.558594 L 186.953125 36.679688 L 303.921875 131.558594 Z M 303.921875 328.972656 " fill-opacity="1" fill-rule="nonzero"/><g clip-path="url(#e555253520)"><path fill="#ffffff" d="M 184.828125 74.546875 C 156.453125 74.546875 133.453125 97.558594 133.453125 125.933594 C 133.453125 154.296875 156.453125 177.300781 184.828125 177.300781 C 213.207031 177.300781 236.207031 154.296875 236.207031 125.933594 C 236.207031 97.558594 213.207031 74.546875 184.828125 74.546875 Z M 184.828125 150.988281 C 171.03125 150.988281 159.839844 139.808594 159.839844 126.011719 C 159.839844 112.214844 171.03125 101.03125 184.828125 101.03125 C 198.628906 101.03125 209.808594 112.214844 209.808594 126.011719 C 209.808594 139.808594 198.628906 150.988281 184.828125 150.988281 Z M 184.828125 150.988281 " fill-opacity="1" fill-rule="nonzero"/></g></svg>