<svg xmlns="http://www.w3.org/2000/svg" xmlns:xlink="http://www.w3.org/1999/xlink" width="358" zoomAndPan="magnify" viewBox="0 0 268.5 276.749996" height="369" preserveAspectRatio="xMidYMid meet" version="1.0"><defs><clipPath id="4c12e6c7f3"><path d="M 2 0.132812 L 266 0.132812 L 266 275 L 2 275 Z M 2 0.132812 " clip-rule="nonzero"/></clipPath></defs><g clip-path="url(#4c12e6c7f3)"><path fill="#ffffff" d="M 134.050781 50.113281 C 190.96875 50.113281 237.0625 96.371094 237.0625 153.589844 C 237.027344 182.957031 224.5625 210.890625 202.800781 230.488281 C 201.34375 231.796875 200.992188 233.957031 201.972656 235.664062 L 212.207031 253.328125 C 214.785156 257.734375 213.5 262.726562 209.769531 264.871094 C 206.019531 267.011719 200.96875 265.617188 198.417969 261.1875 L 189.445312 245.710938 C 188.324219 243.738281 185.804688 243.027344 183.804688 244.148438 C 168.578125 252.621094 151.457031 257.089844 134.050781 257.089844 C 116.636719 257.089844 99.492188 252.640625 84.246094 244.171875 C 82.269531 243.074219 79.792969 243.757812 78.648438 245.710938 L 69.683594 261.1875 C 67.125 265.613281 62.070312 267.011719 58.324219 264.871094 C 54.578125 262.726562 53.292969 257.738281 55.847656 253.328125 L 66.105469 235.664062 C 67.082031 233.957031 66.75 231.796875 65.292969 230.488281 C 43.535156 210.890625 31.074219 182.960938 31.027344 153.589844 C 31.027344 138.28125 34.335938 123.78125 40.261719 110.722656 C 48.457031 92.652344 61.671875 77.359375 78.152344 66.648438 C 94.230469 56.183594 113.4375 50.113281 134.050781 50.113281 Z M 224.664062 31.480469 C 227.328125 31.480469 229.988281 31.8125 232.59375 32.453125 C 244.386719 35.410156 253.375 44.390625 256.332031 56.183594 C 258.929688 66.582031 256.351562 77.980469 249.589844 86.613281 L 225.832031 62.945312 L 202.160156 39.25 C 208.628906 34.199219 216.675781 31.433594 224.664062 31.480469 Z M 43.429688 31.480469 C 51.4375 31.4375 59.472656 34.203125 65.941406 39.253906 L 42.261719 62.949219 L 18.503906 86.617188 C 11.746094 77.984375 9.167969 66.585938 11.765625 56.1875 C 14.714844 44.390625 23.726562 35.414062 35.5 32.457031 C 38.105469 31.808594 40.769531 31.480469 43.429688 31.480469 Z M 128.390625 30.980469 L 139.707031 30.980469 L 139.707031 41.9375 C 137.835938 41.859375 135.945312 41.792969 134.050781 41.792969 C 132.132812 41.792969 130.265625 41.917969 128.390625 42.003906 Z M 116.90625 8.179688 L 151.171875 8.179688 C 152.9375 8.179688 154.230469 9.492188 154.230469 11.28125 L 154.230469 19.574219 C 154.230469 21.363281 152.941406 22.652344 151.171875 22.652344 L 116.90625 22.652344 C 115.15625 22.652344 113.851562 21.363281 113.851562 19.574219 L 113.851562 11.28125 C 113.851562 9.492188 115.160156 8.179688 116.90625 8.179688 Z M 116.90625 -0.0976562 C 110.683594 -0.0976562 105.566406 5.0625 105.566406 11.28125 L 105.566406 19.574219 C 105.566406 25.796875 110.683594 30.976562 116.90625 30.976562 L 120.113281 30.976562 L 120.113281 42.730469 C 103.136719 44.871094 87.324219 50.78125 73.636719 59.699219 C 67.894531 63.425781 62.570312 67.707031 57.621094 72.410156 L 51.070312 65.875 L 74.90625 42.066406 C 76.550781 40.441406 76.550781 37.800781 74.90625 36.175781 C 66.710938 27.960938 55.789062 23.363281 44.640625 23.136719 C 40.910156 23.058594 37.191406 23.453125 33.507812 24.386719 C 18.800781 28.042969 7.398438 39.445312 3.71875 54.144531 C 0.0625 68.855469 4.59375 84.621094 15.515625 95.5625 C 17.140625 97.179688 19.78125 97.179688 21.378906 95.5625 L 45.199219 71.746094 L 51.808594 78.359375 C 44.054688 86.890625 37.546875 96.601562 32.714844 107.273438 C 26.308594 121.394531 22.75 137.078125 22.75 153.59375 C 22.792969 184.066406 35.5 213.308594 57.347656 234.316406 L 48.691406 249.164062 C 44.03125 257.175781 46.300781 267.539062 54.1875 272.066406 C 62.066406 276.605469 72.195312 273.398438 76.839844 265.367188 L 83.871094 253.242188 C 99.367188 261.085938 116.636719 265.367188 134.050781 265.367188 C 151.4375 265.367188 168.722656 261.085938 184.230469 253.242188 L 191.257812 265.367188 C 195.898438 273.398438 206.027344 276.601562 213.914062 272.066406 C 221.792969 267.535156 224.066406 257.175781 219.40625 249.164062 L 210.792969 234.273438 C 232.632812 213.269531 245.304688 184.070312 245.347656 153.597656 C 245.347656 124.628906 234.34375 98.210938 216.328125 78.320312 L 222.902344 71.75 L 246.722656 95.566406 C 248.347656 97.183594 250.96875 97.183594 252.59375 95.566406 C 263.535156 84.625 268.066406 68.859375 264.382812 54.148438 C 260.707031 39.449219 249.328125 28.046875 234.621094 24.390625 C 230.933594 23.457031 227.191406 23.0625 223.46875 23.140625 C 212.335938 23.371094 201.417969 27.964844 193.199219 36.179688 C 191.578125 37.804688 191.578125 40.445312 193.199219 42.070312 L 217.042969 65.878906 L 210.488281 72.394531 C 193.742188 56.484375 172.0625 45.746094 147.992188 42.714844 L 147.992188 30.984375 L 151.179688 30.984375 C 157.417969 30.984375 162.53125 25.804688 162.53125 19.582031 L 162.53125 11.289062 C 162.53125 5.066406 157.417969 -0.0898438 151.179688 -0.0898438 L 116.90625 -0.0898438 Z M 116.90625 -0.0976562 " fill-opacity="1" fill-rule="evenodd"/></g><path fill="#ffffff" d="M 134.050781 76.738281 C 176.339844 76.738281 210.5625 111.082031 210.5625 153.589844 C 210.5625 196.105469 176.339844 230.445312 134.050781 230.445312 C 91.75 230.445312 57.539062 196.105469 57.539062 153.589844 C 57.539062 111.078125 91.75 76.738281 134.050781 76.738281 Z M 134.050781 68.414062 C 87.242188 68.414062 49.257812 106.605469 49.257812 153.589844 C 49.257812 200.550781 87.246094 238.738281 134.050781 238.738281 C 180.855469 238.738281 218.84375 200.546875 218.84375 153.589844 C 218.84375 106.601562 180.855469 68.414062 134.050781 68.414062 Z M 134.050781 68.414062 " fill-opacity="1" fill-rule="evenodd"/><path fill="#ffffff" d="M 132.839844 84.074219 C 130.550781 84.09375 128.726562 85.96875 128.746094 88.257812 L 128.746094 94.347656 C 128.746094 96.660156 130.589844 98.53125 132.902344 98.53125 C 135.195312 98.53125 137.066406 96.660156 137.066406 94.347656 L 137.066406 88.257812 C 137.066406 85.925781 135.171875 84.039062 132.839844 84.074219 Z M 132.839844 84.074219 " fill-opacity="1" fill-rule="nonzero"/><path fill="#ffffff" d="M 132.839844 208.578125 C 130.550781 208.625 128.726562 210.496094 128.746094 212.78125 L 128.746094 218.875 C 128.746094 221.183594 130.589844 223.035156 132.902344 223.035156 C 135.195312 223.035156 137.066406 221.183594 137.066406 218.875 L 137.066406 212.78125 C 137.066406 210.457031 135.171875 208.554688 132.839844 208.578125 Z M 132.839844 208.578125 " fill-opacity="1" fill-rule="nonzero"/><path fill="#ffffff" d="M 132.800781 107.269531 C 130.515625 107.3125 128.683594 109.179688 128.707031 111.492188 L 128.75 153.589844 C 128.75 155.882812 130.59375 157.746094 132.90625 157.746094 L 162.40625 157.710938 C 164.71875 157.710938 166.566406 155.855469 166.566406 153.542969 C 166.566406 151.265625 164.71875 149.386719 162.40625 149.386719 L 137.070312 149.429688 L 137.027344 111.492188 C 137.066406 109.136719 135.152344 107.222656 132.800781 107.269531 Z M 132.800781 107.269531 " fill-opacity="1" fill-rule="nonzero"/><path fill="#ffffff" d="M 202.386719 153.484375 C 202.367188 151.21875 200.488281 149.367188 198.207031 149.386719 L 192.109375 149.386719 C 189.796875 149.386719 187.929688 151.265625 187.929688 153.542969 C 187.929688 155.855469 189.796875 157.710938 192.109375 157.710938 L 198.207031 157.710938 C 200.535156 157.726562 202.429688 155.832031 202.386719 153.484375 Z M 202.386719 153.484375 " fill-opacity="1" fill-rule="nonzero"/><path fill="#ffffff" d="M 77.859375 153.484375 C 77.820312 151.21875 75.945312 149.367188 73.660156 149.386719 L 67.558594 149.386719 C 65.253906 149.386719 63.402344 151.265625 63.402344 153.542969 C 63.402344 155.855469 65.253906 157.710938 67.558594 157.710938 L 73.660156 157.710938 C 75.984375 157.726562 77.878906 155.832031 77.859375 153.484375 Z M 77.859375 153.484375 " fill-opacity="1" fill-rule="nonzero"/><path fill="#ffffff" d="M 182.082031 202.652344 C 183.683594 201.007812 183.640625 198.390625 182.019531 196.785156 L 177.691406 192.484375 C 176.066406 190.839844 173.445312 190.839844 171.808594 192.460938 C 170.183594 194.085938 170.183594 196.726562 171.824219 198.347656 L 176.132812 202.675781 C 177.777344 204.339844 180.460938 204.3125 182.082031 202.652344 Z M 182.082031 202.652344 " fill-opacity="1" fill-rule="nonzero"/><path fill="#ffffff" d="M 94.023438 114.589844 C 95.605469 112.964844 95.585938 110.34375 93.960938 108.746094 L 89.636719 104.421875 C 88.011719 102.796875 85.371094 102.796875 83.742188 104.421875 C 82.125 106.039062 82.125 108.683594 83.742188 110.308594 L 88.074219 114.613281 C 89.699219 116.273438 92.382812 116.273438 94.023438 114.589844 Z M 94.023438 114.589844 " fill-opacity="1" fill-rule="nonzero"/><path fill="#ffffff" d="M 182 104.375 C 180.355469 102.773438 177.734375 102.816406 176.128906 104.441406 L 171.820312 108.746094 C 170.175781 110.367188 170.175781 113.007812 171.804688 114.636719 C 173.445312 116.273438 176.0625 116.25 177.6875 114.636719 L 182.015625 110.328125 C 183.683594 108.6875 183.660156 106.003906 182 104.375 Z M 182 104.375 " fill-opacity="1" fill-rule="nonzero"/><path fill="#ffffff" d="M 93.9375 192.417969 C 92.296875 190.835938 89.679688 190.855469 88.074219 192.484375 L 83.742188 196.804688 C 82.125 198.433594 82.125 201.070312 83.742188 202.699219 C 85.371094 204.3125 88.007812 204.3125 89.636719 202.675781 L 93.960938 198.371094 C 95.605469 196.726562 95.605469 194.046875 93.9375 192.417969 Z M 93.9375 192.417969 " fill-opacity="1" fill-rule="nonzero"/></svg>