<svg xmlns="http://www.w3.org/2000/svg" xmlns:xlink="http://www.w3.org/1999/xlink" width="345" zoomAndPan="magnify" viewBox="0 0 258.75 258.749997" height="345" preserveAspectRatio="xMidYMid meet" version="1.0"><defs><clipPath id="3602a199f3"><path d="M 24 202 L 235 202 L 235 258.5 L 24 258.5 Z M 24 202 " clip-rule="nonzero"/></clipPath><clipPath id="53d26378f5"><path d="M 198 40 L 258.5 40 L 258.5 243 L 198 243 Z M 198 40 " clip-rule="nonzero"/></clipPath></defs><g clip-path="url(#3602a199f3)"><path fill="#ffffff" d="M 230.449219 250.664062 L 222.363281 250.664062 L 222.363281 237.726562 C 228.226562 235.503906 232.46875 228.628906 232.46875 220.339844 C 232.46875 210.234375 226.203125 202.148438 218.320312 202.148438 C 210.4375 202.148438 204.167969 210.234375 204.167969 220.339844 C 204.167969 228.628906 208.414062 235.703125 214.277344 237.726562 L 214.277344 250.664062 L 44.472656 250.664062 L 44.472656 237.726562 C 50.335938 235.503906 54.578125 228.628906 54.578125 220.339844 C 54.578125 210.234375 48.3125 202.148438 40.429688 202.148438 C 32.546875 202.148438 26.277344 210.234375 26.277344 220.339844 C 26.277344 228.628906 30.523438 235.703125 36.386719 237.726562 L 36.386719 250.664062 L 28.300781 250.664062 C 26.078125 250.664062 24.257812 252.484375 24.257812 254.707031 C 24.257812 256.929688 26.078125 258.75 28.300781 258.75 L 230.449219 258.75 C 232.671875 258.75 234.492188 256.929688 234.492188 254.707031 C 234.492188 252.484375 232.671875 250.664062 230.449219 250.664062 Z M 218.320312 210.234375 C 221.148438 210.234375 224.382812 214.480469 224.382812 220.339844 C 224.382812 226.203125 221.148438 230.449219 218.320312 230.449219 C 215.488281 230.449219 212.253906 226.203125 212.253906 220.339844 C 212.253906 214.480469 215.488281 210.234375 218.320312 210.234375 Z M 40.429688 210.234375 C 43.257812 210.234375 46.492188 214.480469 46.492188 220.339844 C 46.492188 226.203125 43.257812 230.449219 40.429688 230.449219 C 37.597656 230.449219 34.363281 226.203125 34.363281 220.339844 C 34.363281 214.480469 37.597656 210.234375 40.429688 210.234375 Z M 40.429688 210.234375 " fill-opacity="1" fill-rule="nonzero"/></g><g clip-path="url(#53d26378f5)"><path fill="#ffffff" d="M 258.75 60.644531 L 258.75 44.472656 C 258.75 42.25 256.929688 40.429688 254.707031 40.429688 L 198.105469 40.429688 L 198.105469 48.515625 L 250.664062 48.515625 L 250.664062 56.601562 L 198.105469 56.601562 L 198.105469 64.6875 L 246.621094 64.6875 L 246.621094 234.492188 L 237.121094 234.492188 C 235.300781 237.726562 233.078125 240.554688 230.246094 242.578125 L 254.707031 242.578125 C 256.929688 242.578125 258.75 240.757812 258.75 238.535156 C 258.75 236.3125 256.929688 234.492188 254.707031 234.492188 L 254.707031 64.6875 C 256.929688 64.6875 258.75 62.867188 258.75 60.644531 Z M 258.75 60.644531 " fill-opacity="1" fill-rule="nonzero"/></g><path fill="#ffffff" d="M 68.730469 24.257812 L 68.730469 132.609375 L 76.816406 126.34375 L 76.816406 24.257812 L 181.933594 24.257812 L 181.933594 126.34375 L 190.019531 132.609375 L 190.019531 24.257812 C 192.242188 24.257812 194.0625 22.4375 194.0625 20.214844 L 194.0625 4.042969 C 194.0625 1.820312 192.242188 0 190.019531 0 L 68.730469 0 C 66.507812 0 64.6875 1.820312 64.6875 4.042969 L 64.6875 20.214844 C 64.6875 22.4375 66.507812 24.257812 68.730469 24.257812 Z M 72.773438 8.085938 L 185.976562 8.085938 L 185.976562 16.171875 L 72.773438 16.171875 Z M 72.773438 8.085938 " fill-opacity="1" fill-rule="nonzero"/><path fill="#ffffff" d="M 97.03125 32.34375 L 88.945312 32.34375 C 86.722656 32.34375 84.902344 34.164062 84.902344 36.386719 C 84.902344 38.609375 86.722656 40.429688 88.945312 40.429688 L 97.03125 40.429688 C 99.253906 40.429688 101.074219 38.609375 101.074219 36.386719 C 101.074219 34.164062 99.253906 32.34375 97.03125 32.34375 Z M 97.03125 32.34375 " fill-opacity="1" fill-rule="nonzero"/><path fill="#ffffff" d="M 121.289062 32.34375 L 113.203125 32.34375 C 110.980469 32.34375 109.160156 34.164062 109.160156 36.386719 C 109.160156 38.609375 110.980469 40.429688 113.203125 40.429688 L 121.289062 40.429688 C 123.511719 40.429688 125.332031 38.609375 125.332031 36.386719 C 125.332031 34.164062 123.511719 32.34375 121.289062 32.34375 Z M 121.289062 32.34375 " fill-opacity="1" fill-rule="nonzero"/><path fill="#ffffff" d="M 145.546875 32.34375 L 137.460938 32.34375 C 135.238281 32.34375 133.417969 34.164062 133.417969 36.386719 C 133.417969 38.609375 135.238281 40.429688 137.460938 40.429688 L 145.546875 40.429688 C 147.769531 40.429688 149.589844 38.609375 149.589844 36.386719 C 149.589844 34.164062 147.769531 32.34375 145.546875 32.34375 Z M 145.546875 32.34375 " fill-opacity="1" fill-rule="nonzero"/><path fill="#ffffff" d="M 169.804688 32.34375 L 161.71875 32.34375 C 159.496094 32.34375 157.675781 34.164062 157.675781 36.386719 C 157.675781 38.609375 159.496094 40.429688 161.71875 40.429688 L 169.804688 40.429688 C 172.027344 40.429688 173.847656 38.609375 173.847656 36.386719 C 173.847656 34.164062 172.027344 32.34375 169.804688 32.34375 Z M 169.804688 32.34375 " fill-opacity="1" fill-rule="nonzero"/><path fill="#ffffff" d="M 97.03125 48.515625 L 88.945312 48.515625 C 86.722656 48.515625 84.902344 50.335938 84.902344 52.558594 C 84.902344 54.78125 86.722656 56.601562 88.945312 56.601562 L 97.03125 56.601562 C 99.253906 56.601562 101.074219 54.78125 101.074219 52.558594 C 101.074219 50.335938 99.253906 48.515625 97.03125 48.515625 Z M 97.03125 48.515625 " fill-opacity="1" fill-rule="nonzero"/><path fill="#ffffff" d="M 121.289062 48.515625 L 113.203125 48.515625 C 110.980469 48.515625 109.160156 50.335938 109.160156 52.558594 C 109.160156 54.78125 110.980469 56.601562 113.203125 56.601562 L 121.289062 56.601562 C 123.511719 56.601562 125.332031 54.78125 125.332031 52.558594 C 125.332031 50.335938 123.511719 48.515625 121.289062 48.515625 Z M 121.289062 48.515625 " fill-opacity="1" fill-rule="nonzero"/><path fill="#ffffff" d="M 145.546875 48.515625 L 137.460938 48.515625 C 135.238281 48.515625 133.417969 50.335938 133.417969 52.558594 C 133.417969 54.78125 135.238281 56.601562 137.460938 56.601562 L 145.546875 56.601562 C 147.769531 56.601562 149.589844 54.78125 149.589844 52.558594 C 149.589844 50.335938 147.769531 48.515625 145.546875 48.515625 Z M 145.546875 48.515625 " fill-opacity="1" fill-rule="nonzero"/><path fill="#ffffff" d="M 169.804688 48.515625 L 161.71875 48.515625 C 159.496094 48.515625 157.675781 50.335938 157.675781 52.558594 C 157.675781 54.78125 159.496094 56.601562 161.71875 56.601562 L 169.804688 56.601562 C 172.027344 56.601562 173.847656 54.78125 173.847656 52.558594 C 173.847656 50.335938 172.027344 48.515625 169.804688 48.515625 Z M 169.804688 48.515625 " fill-opacity="1" fill-rule="nonzero"/><path fill="#ffffff" d="M 97.03125 64.6875 L 88.945312 64.6875 C 86.722656 64.6875 84.902344 66.507812 84.902344 68.730469 C 84.902344 70.953125 86.722656 72.773438 88.945312 72.773438 L 97.03125 72.773438 C 99.253906 72.773438 101.074219 70.953125 101.074219 68.730469 C 101.074219 66.507812 99.253906 64.6875 97.03125 64.6875 Z M 97.03125 64.6875 " fill-opacity="1" fill-rule="nonzero"/><path fill="#ffffff" d="M 121.289062 64.6875 L 113.203125 64.6875 C 110.980469 64.6875 109.160156 66.507812 109.160156 68.730469 C 109.160156 70.953125 110.980469 72.773438 113.203125 72.773438 L 121.289062 72.773438 C 123.511719 72.773438 125.332031 70.953125 125.332031 68.730469 C 125.332031 66.507812 123.511719 64.6875 121.289062 64.6875 Z M 121.289062 64.6875 " fill-opacity="1" fill-rule="nonzero"/><path fill="#ffffff" d="M 145.546875 64.6875 L 137.460938 64.6875 C 135.238281 64.6875 133.417969 66.507812 133.417969 68.730469 C 133.417969 70.953125 135.238281 72.773438 137.460938 72.773438 L 145.546875 72.773438 C 147.769531 72.773438 149.589844 70.953125 149.589844 68.730469 C 149.589844 66.507812 147.769531 64.6875 145.546875 64.6875 Z M 145.546875 64.6875 " fill-opacity="1" fill-rule="nonzero"/><path fill="#ffffff" d="M 169.804688 64.6875 L 161.71875 64.6875 C 159.496094 64.6875 157.675781 66.507812 157.675781 68.730469 C 157.675781 70.953125 159.496094 72.773438 161.71875 72.773438 L 169.804688 72.773438 C 172.027344 72.773438 173.847656 70.953125 173.847656 68.730469 C 173.847656 66.507812 172.027344 64.6875 169.804688 64.6875 Z M 169.804688 64.6875 " fill-opacity="1" fill-rule="nonzero"/><path fill="#ffffff" d="M 97.03125 80.859375 L 88.945312 80.859375 C 86.722656 80.859375 84.902344 82.679688 84.902344 84.902344 C 84.902344 87.125 86.722656 88.945312 88.945312 88.945312 L 97.03125 88.945312 C 99.253906 88.945312 101.074219 87.125 101.074219 84.902344 C 101.074219 82.679688 99.253906 80.859375 97.03125 80.859375 Z M 97.03125 80.859375 " fill-opacity="1" fill-rule="nonzero"/><path fill="#ffffff" d="M 121.289062 80.859375 L 113.203125 80.859375 C 110.980469 80.859375 109.160156 82.679688 109.160156 84.902344 C 109.160156 87.125 110.980469 88.945312 113.203125 88.945312 L 121.289062 88.945312 C 123.511719 88.945312 125.332031 87.125 125.332031 84.902344 C 125.332031 82.679688 123.511719 80.859375 121.289062 80.859375 Z M 121.289062 80.859375 " fill-opacity="1" fill-rule="nonzero"/><path fill="#ffffff" d="M 145.546875 80.859375 L 137.460938 80.859375 C 135.238281 80.859375 133.417969 82.679688 133.417969 84.902344 C 133.417969 87.125 135.238281 88.945312 137.460938 88.945312 L 145.546875 88.945312 C 147.769531 88.945312 149.589844 87.125 149.589844 84.902344 C 149.589844 82.679688 147.769531 80.859375 145.546875 80.859375 Z M 145.546875 80.859375 " fill-opacity="1" fill-rule="nonzero"/><path fill="#ffffff" d="M 169.804688 80.859375 L 161.71875 80.859375 C 159.496094 80.859375 157.675781 82.679688 157.675781 84.902344 C 157.675781 87.125 159.496094 88.945312 161.71875 88.945312 L 169.804688 88.945312 C 172.027344 88.945312 173.847656 87.125 173.847656 84.902344 C 173.847656 82.679688 172.027344 80.859375 169.804688 80.859375 Z M 169.804688 80.859375 " fill-opacity="1" fill-rule="nonzero"/><path fill="#ffffff" d="M 52.558594 76.816406 C 52.558594 74.59375 50.738281 72.773438 48.515625 72.773438 L 32.34375 72.773438 C 30.121094 72.773438 28.300781 74.59375 28.300781 76.816406 L 28.300781 92.988281 C 28.300781 95.210938 30.121094 97.03125 32.34375 97.03125 L 48.515625 97.03125 C 50.738281 97.03125 52.558594 95.210938 52.558594 92.988281 Z M 44.472656 88.945312 L 36.386719 88.945312 L 36.386719 80.859375 L 44.472656 80.859375 Z M 44.472656 88.945312 " fill-opacity="1" fill-rule="nonzero"/><path fill="#ffffff" d="M 52.558594 109.160156 C 52.558594 106.9375 50.738281 105.117188 48.515625 105.117188 L 32.34375 105.117188 C 30.121094 105.117188 28.300781 106.9375 28.300781 109.160156 L 28.300781 125.332031 C 28.300781 127.554688 30.121094 129.375 32.34375 129.375 L 48.515625 129.375 C 50.738281 129.375 52.558594 127.554688 52.558594 125.332031 Z M 44.472656 121.289062 L 36.386719 121.289062 L 36.386719 113.203125 L 44.472656 113.203125 Z M 44.472656 121.289062 " fill-opacity="1" fill-rule="nonzero"/><path fill="#ffffff" d="M 52.558594 141.503906 C 52.558594 139.28125 50.738281 137.460938 48.515625 137.460938 L 32.34375 137.460938 C 30.121094 137.460938 28.300781 139.28125 28.300781 141.503906 L 28.300781 157.675781 C 28.300781 159.898438 30.121094 161.71875 32.34375 161.71875 L 48.515625 161.71875 C 50.738281 161.71875 52.558594 159.898438 52.558594 157.675781 Z M 44.472656 153.632812 L 36.386719 153.632812 L 36.386719 145.546875 L 44.472656 145.546875 Z M 44.472656 153.632812 " fill-opacity="1" fill-rule="nonzero"/><path fill="#ffffff" d="M 48.515625 169.804688 L 32.34375 169.804688 C 30.121094 169.804688 28.300781 171.625 28.300781 173.847656 L 28.300781 190.019531 C 28.300781 192.242188 30.121094 194.0625 32.34375 194.0625 L 48.515625 194.0625 C 50.738281 194.0625 52.558594 192.242188 52.558594 190.019531 L 52.558594 173.847656 C 52.558594 171.625 50.738281 169.804688 48.515625 169.804688 Z M 44.472656 185.976562 L 36.386719 185.976562 L 36.386719 177.890625 L 44.472656 177.890625 Z M 44.472656 185.976562 " fill-opacity="1" fill-rule="nonzero"/><path fill="#ffffff" d="M 210.234375 97.03125 L 226.40625 97.03125 C 228.628906 97.03125 230.449219 95.210938 230.449219 92.988281 L 230.449219 76.816406 C 230.449219 74.59375 228.628906 72.773438 226.40625 72.773438 L 210.234375 72.773438 C 208.011719 72.773438 206.191406 74.59375 206.191406 76.816406 L 206.191406 92.988281 C 206.191406 95.210938 208.011719 97.03125 210.234375 97.03125 Z M 214.277344 80.859375 L 222.363281 80.859375 L 222.363281 88.945312 L 214.277344 88.945312 Z M 214.277344 80.859375 " fill-opacity="1" fill-rule="nonzero"/><path fill="#ffffff" d="M 206.191406 125.332031 C 206.191406 127.554688 208.011719 129.375 210.234375 129.375 L 226.40625 129.375 C 228.628906 129.375 230.449219 127.554688 230.449219 125.332031 L 230.449219 109.160156 C 230.449219 106.9375 228.628906 105.117188 226.40625 105.117188 L 210.234375 105.117188 C 208.011719 105.117188 206.191406 106.9375 206.191406 109.160156 Z M 214.277344 113.203125 L 222.363281 113.203125 L 222.363281 121.289062 L 214.277344 121.289062 Z M 214.277344 113.203125 " fill-opacity="1" fill-rule="nonzero"/><path fill="#ffffff" d="M 206.191406 157.675781 C 206.191406 159.898438 208.011719 161.71875 210.234375 161.71875 L 226.40625 161.71875 C 228.628906 161.71875 230.449219 159.898438 230.449219 157.675781 L 230.449219 141.503906 C 230.449219 139.28125 228.628906 137.460938 226.40625 137.460938 L 210.234375 137.460938 C 208.011719 137.460938 206.191406 139.28125 206.191406 141.503906 Z M 214.277344 145.546875 L 222.363281 145.546875 L 222.363281 153.632812 L 214.277344 153.632812 Z M 214.277344 145.546875 " fill-opacity="1" fill-rule="nonzero"/><path fill="#ffffff" d="M 206.191406 190.019531 C 206.191406 192.242188 208.011719 194.0625 210.234375 194.0625 L 226.40625 194.0625 C 228.628906 194.0625 230.449219 192.242188 230.449219 190.019531 L 230.449219 173.847656 C 230.449219 171.625 228.628906 169.804688 226.40625 169.804688 L 210.234375 169.804688 C 208.011719 169.804688 206.191406 171.625 206.191406 173.847656 Z M 214.277344 177.890625 L 222.363281 177.890625 L 222.363281 185.976562 L 214.277344 185.976562 Z M 214.277344 177.890625 " fill-opacity="1" fill-rule="nonzero"/><path fill="#ffffff" d="M 66.707031 153.632812 L 68.730469 153.632812 L 68.730469 234.492188 L 59.230469 234.492188 C 57.410156 237.726562 55.1875 240.554688 52.355469 242.578125 L 206.394531 242.578125 C 203.5625 240.554688 201.339844 237.726562 199.519531 234.492188 L 190.019531 234.492188 L 190.019531 153.632812 C 190.019531 153.632812 192.039062 153.632812 192.039062 153.632812 C 195.882812 153.632812 197.5 148.78125 194.464844 146.355469 L 131.800781 97.839844 C 130.386719 96.625 128.363281 96.625 126.949219 97.839844 C 126.949219 97.839844 64.28125 146.355469 64.28125 146.355469 C 61.25 148.78125 62.867188 153.632812 66.707031 153.632812 Z M 76.816406 153.632812 L 88.945312 153.632812 L 88.945312 234.492188 L 76.816406 234.492188 Z M 161.71875 234.492188 L 149.589844 234.492188 L 149.589844 206.191406 C 149.589844 195.074219 140.492188 185.976562 129.375 185.976562 C 118.257812 185.976562 109.160156 195.074219 109.160156 206.191406 L 109.160156 234.492188 L 97.03125 234.492188 L 97.03125 153.632812 L 161.71875 153.632812 Z M 117.246094 234.492188 L 117.246094 206.191406 C 117.246094 199.519531 122.703125 194.0625 129.375 194.0625 C 136.046875 194.0625 141.503906 199.519531 141.503906 206.191406 L 141.503906 234.492188 Z M 181.933594 234.492188 L 169.804688 234.492188 L 169.804688 153.632812 L 181.933594 153.632812 Z M 129.375 106.128906 L 180.113281 145.546875 L 78.636719 145.546875 Z M 129.375 106.128906 " fill-opacity="1" fill-rule="nonzero"/><path fill="#ffffff" d="M 28.503906 242.578125 C 25.671875 240.554688 23.449219 237.726562 21.628906 234.492188 L 12.128906 234.492188 L 12.128906 64.6875 L 60.644531 64.6875 L 60.644531 56.601562 L 8.085938 56.601562 L 8.085938 48.515625 L 60.644531 48.515625 L 60.644531 40.429688 L 4.042969 40.429688 C 1.820312 40.429688 0 42.25 0 44.472656 L 0 60.644531 C 0 62.867188 1.820312 64.6875 4.042969 64.6875 L 4.042969 234.492188 C 1.820312 234.492188 0 236.3125 0 238.535156 C 0 240.757812 1.820312 242.578125 4.042969 242.578125 Z M 28.503906 242.578125 " fill-opacity="1" fill-rule="nonzero"/></svg>