<svg xmlns="http://www.w3.org/2000/svg" xmlns:xlink="http://www.w3.org/1999/xlink" width="5000" zoomAndPan="magnify" viewBox="0 0 3750 3749.999967" height="5000" preserveAspectRatio="xMidYMid meet" version="1.0"><defs><g/><clipPath id="id1"><path d="M 3 2 L 3743 2 L 3743 3736.5 L 3 3736.5 Z M 3 2 " clip-rule="nonzero"/></clipPath></defs><g clip-path="url(#id1)"><path fill="#21297a" d="M 3361.703125 1893.082031 C 3362.28125 1875.121094 3375.894531 1853.84375 3391.964844 1845.792969 L 3718.316406 1682.363281 C 3734.378906 1674.3125 3745.203125 1653.21875 3742.363281 1635.46875 L 3667.125 1288.683594 C 3662.308594 1271.367188 3643.6875 1256.261719 3625.761719 1255.097656 L 3254.632812 1231.09375 C 3236.695312 1229.929688 3215.375 1215.871094 3207.25 1199.851562 L 3156.785156 1107.054688 C 3147.746094 1091.523438 3147.84375 1066.171875 3157.015625 1050.71875 L 3344.421875 734.722656 C 3353.589844 719.269531 3351.398438 695.558594 3339.5625 682.042969 L 3087.046875 424.550781 C 3073.761719 412.453125 3050.03125 409.6875 3034.328125 418.410156 L 2711.40625 597.609375 C 2695.691406 606.335938 2670.261719 605.84375 2654.886719 596.542969 L 2567.625 546.980469 C 2551.757812 538.550781 2538.246094 516.957031 2537.601562 499 L 2524.316406 128.789062 C 2523.671875 110.832031 2509.070312 91.894531 2491.875 86.699219 L 2142.132812 3.015625 C 2124.445312 -0.183594 2103.027344 10.140625 2094.519531 25.972656 L 1920.847656 349.265625 C 1912.339844 365.101562 1897.957031 377.90625 1888.875 377.734375 L 1880.585938 377.734375 C 1830.1875 377.734375 1763.878906 382.730469 1763.878906 382.730469 C 1745.964844 384.082031 1722.910156 373.117188 1712.664062 358.347656 L 1500.363281 52.675781 C 1490.113281 37.921875 1467.5625 29.773438 1450.246094 34.566406 L 1116.183594 147.261719 C 1099.511719 153.96875 1087.019531 174.117188 1088.425781 192.03125 L 1116.902344 555.355469 C 1118.308594 573.269531 1107.101562 595.902344 1092.007812 605.648438 L 985.796875 679.191406 C 971.371094 689.894531 945.984375 693.042969 929.378906 686.171875 L 585.4375 543.769531 C 568.832031 536.898438 545.417969 542.199219 533.394531 555.550781 L 319.035156 821.375 C 308.527344 835.949219 308.8125 859.578125 319.679688 873.890625 L 539.003906 1162.769531 C 549.871094 1177.078125 552.582031 1202.125 545.035156 1218.441406 L 485.390625 1361.234375 C 479.085938 1378.0625 459.453125 1394.441406 441.765625 1397.632812 L 76.875 1463.53125 C 59.191406 1466.71875 42.417969 1483.851562 39.589844 1501.601562 C 39.589844 1501.601562 3.890625 1726 3.890625 1859.949219 L 3.890625 1860.671875 C 3.902344 1861.464844 17.730469 1867.148438 34.601562 1873.3125 L 375.121094 1997.691406 C 392 2003.855469 407.878906 2023.460938 410.414062 2041.242188 L 442.332031 2215.292969 C 446.320312 2232.816406 438.816406 2257.167969 425.671875 2269.417969 L 155.96875 2520.605469 C 142.824219 2532.859375 138.132812 2556.261719 145.546875 2572.628906 L 292.640625 2857.828125 C 301.699219 2873.347656 323.457031 2882.824219 340.992188 2878.878906 L 696.210938 2799.0625 C 713.746094 2795.121094 737.8125 2802.917969 749.703125 2816.390625 L 880.644531 2952.554688 C 893.636719 2964.96875 900.640625 2989.363281 896.195312 3006.777344 L 805.785156 3361.238281 C 801.34375 3378.652344 810.132812 3400.769531 825.3125 3410.386719 L 1102.617188 3566.664062 C 1118.699219 3574.679688 1142.179688 3570.769531 1154.800781 3557.984375 L 1412.023438 3297.222656 C 1424.644531 3284.429688 1449.167969 3277.785156 1466.515625 3282.445312 L 1649.414062 3323.101562 C 1667.097656 3326.257812 1686.222656 3342.789062 1691.894531 3359.84375 L 1806.664062 3704.515625 C 1812.339844 3721.558594 1831.679688 3735.921875 1849.648438 3736.433594 C 1849.648438 3736.433594 1859.273438 3736.707031 1880.554688 3736.707031 C 1990.878906 3736.707031 2171.652344 3713.074219 2171.652344 3713.074219 C 2189.46875 3710.746094 2207.078125 3694.453125 2210.769531 3676.863281 L 2286.738281 3315.804688 C 2290.441406 3298.214844 2307.410156 3279.167969 2324.453125 3273.472656 L 2485.363281 3212.464844 C 2501.894531 3205.40625 2526.855469 3208.859375 2540.847656 3220.132812 L 2823.117188 3447.535156 C 2837.109375 3458.804688 2860.71875 3459.773438 2875.585938 3449.679688 L 3140.558594 3248.730469 C 3154.28125 3237.121094 3160.269531 3213.890625 3153.878906 3197.097656 L 3021.738281 2850.054688 C 3015.347656 2833.261719 3019.234375 2807.984375 3030.375 2793.890625 L 3117.855469 2674.640625 C 3127.960938 2659.789062 3150.839844 2649.191406 3168.710938 2651.117188 L 3529.855469 2689.886719 C 3547.726562 2691.804688 3568.15625 2679.867188 3575.265625 2663.371094 L 3693.566406 2339.859375 C 3698.8125 2322.675781 3691.289062 2299.882812 3676.828125 2289.21875 L 3377.113281 2068.023438 C 3362.652344 2057.351562 3352.21875 2033.992188 3353.929688 2016.097656 Z M 1875.761719 2960.679688 C 1271.75 2960.679688 782.078125 2471.011719 782.078125 1866.953125 C 782.078125 1262.90625 1271.726562 773.230469 1875.761719 773.230469 C 2479.796875 773.230469 2969.445312 1262.894531 2969.445312 1866.953125 C 2969.445312 2471.011719 2479.796875 2960.679688 1875.761719 2960.679688 Z M 1875.761719 2960.679688 " fill-opacity="1" fill-rule="nonzero"/></g><g fill="#21297a" fill-opacity="1"><g transform="translate(897.270019, 1695.184556)"><g><path d="M 125.875 -5.3125 C 94.363281 -22.300781 70.109375 -46.378906 53.109375 -77.546875 C 44.960938 -92.765625 38.851562 -109.398438 34.78125 -127.453125 C 30.707031 -145.515625 28.671875 -164.640625 28.671875 -184.828125 C 28.671875 -225.535156 36.992188 -261.296875 53.640625 -292.109375 C 70.640625 -323.617188 95.070312 -347.691406 126.9375 -364.328125 C 142.863281 -372.828125 160.296875 -379.113281 179.234375 -383.1875 C 198.179688 -387.257812 218.453125 -389.296875 240.046875 -389.296875 C 258.109375 -389.296875 275.988281 -387.523438 293.6875 -383.984375 C 311.75 -380.441406 328.039062 -374.953125 342.5625 -367.515625 L 349.984375 -363.796875 L 349.984375 -277.765625 L 330.875 -277.765625 L 327.6875 -279.359375 C 315.644531 -286.796875 302.367188 -292.28125 287.859375 -295.8125 C 272.984375 -299.351562 258.992188 -301.125 245.890625 -301.125 C 227.128906 -301.125 210.664062 -298.644531 196.5 -293.6875 C 182.34375 -288.738281 170.128906 -281.304688 159.859375 -271.390625 C 139.328125 -251.554688 129.0625 -222.703125 129.0625 -184.828125 C 129.0625 -165.703125 131.625 -148.96875 136.75 -134.625 C 141.882812 -120.289062 149.410156 -108.34375 159.328125 -98.78125 C 179.148438 -78.957031 206.941406 -69.046875 242.703125 -69.046875 C 256.515625 -69.046875 270.679688 -71.171875 285.203125 -75.421875 C 292.628906 -77.898438 299.882812 -80.726562 306.96875 -83.90625 C 314.050781 -87.09375 320.957031 -90.632812 327.6875 -94.53125 L 330.875 -96.65625 L 349.984375 -96.65625 L 349.984375 -10.625 L 343.09375 -6.375 C 312.988281 10.976562 277.582031 19.65625 236.875 19.65625 C 194.03125 19.65625 157.03125 11.332031 125.875 -5.3125 Z M 125.875 -5.3125 "/></g></g></g><g fill="#21297a" fill-opacity="1"><g transform="translate(1279.660469, 1695.184556)"><g><path d="M 138.078125 -294.75 L 138.078125 -228.90625 L 297.40625 -228.90625 L 297.40625 -144.453125 L 138.078125 -144.453125 L 138.078125 -74.890625 L 309.09375 -74.890625 L 309.09375 13.28125 L 41.421875 13.28125 L 41.421875 -382.921875 L 309.09375 -382.921875 L 309.09375 -294.75 Z M 138.078125 -294.75 "/></g></g></g><g fill="#21297a" fill-opacity="1"><g transform="translate(1619.563096, 1695.184556)"><g><path d="M 247.21875 -376.8125 C 264.75 -372.738281 280.859375 -366.628906 295.546875 -358.484375 C 310.242188 -350.335938 323.253906 -340.421875 334.578125 -328.734375 C 345.910156 -317.054688 355.296875 -303.785156 362.734375 -288.921875 C 377.960938 -259.171875 385.578125 -224.46875 385.578125 -184.8125 C 385.578125 -145.164062 377.960938 -110.46875 362.734375 -80.71875 C 347.515625 -50.625 325.03125 -27.4375 295.28125 -11.15625 C 265.894531 5.132812 231.195312 13.28125 191.1875 13.28125 L 41.421875 13.28125 L 41.421875 -382.921875 L 191.1875 -382.921875 C 211.019531 -382.921875 229.695312 -380.882812 247.21875 -376.8125 Z M 260.234375 -102.5 C 276.878906 -120.914062 285.203125 -148.359375 285.203125 -184.828125 C 285.203125 -203.585938 283.078125 -219.78125 278.828125 -233.40625 C 274.578125 -247.039062 268.378906 -258.285156 260.234375 -267.140625 C 243.953125 -285.191406 220.9375 -294.21875 191.1875 -294.21875 L 138.078125 -294.21875 L 138.078125 -75.421875 L 191.1875 -75.421875 C 220.9375 -75.421875 243.953125 -84.445312 260.234375 -102.5 Z M 260.234375 -102.5 "/></g></g></g><g fill="#21297a" fill-opacity="1"><g transform="translate(2033.819415, 1695.184556)"><g><path d="M 207.125 19.65625 C 154.375 19.65625 112.679688 4.164062 82.046875 -26.8125 C 51.421875 -57.800781 36.109375 -99.847656 36.109375 -152.953125 L 36.109375 -382.921875 L 132.78125 -382.921875 L 132.78125 -154.546875 C 132.78125 -124.097656 139.148438 -102.144531 151.890625 -88.6875 C 164.640625 -75.238281 183.050781 -68.515625 207.125 -68.515625 C 231.550781 -68.515625 249.960938 -75.238281 262.359375 -88.6875 C 275.109375 -102.851562 281.484375 -124.804688 281.484375 -154.546875 L 281.484375 -382.921875 L 378.140625 -382.921875 L 378.140625 -152.953125 C 378.140625 -99.847656 362.828125 -57.800781 332.203125 -26.8125 C 301.578125 4.164062 259.882812 19.65625 207.125 19.65625 Z M 207.125 19.65625 "/></g></g></g><g fill="#21297a" fill-opacity="1"><g transform="translate(2448.075733, 1695.184556)"><g><path d="M 54.703125 -382.921875 L 176.859375 -382.921875 C 231.023438 -382.921875 271.914062 -371.585938 299.53125 -348.921875 C 327.863281 -325.554688 342.03125 -292.097656 342.03125 -248.546875 C 342.03125 -227.304688 338.578125 -208.007812 331.671875 -190.65625 C 324.765625 -173.3125 314.40625 -158.441406 300.59375 -146.046875 C 272.976562 -121.972656 233.859375 -109.9375 183.234375 -109.9375 L 138.078125 -109.9375 L 138.078125 13.28125 L 41.421875 13.28125 L 41.421875 -382.921875 Z M 177.390625 -197.5625 C 185.523438 -197.5625 192.957031 -198.09375 199.6875 -199.15625 C 206.414062 -200.21875 212.082031 -201.546875 216.6875 -203.140625 C 221.289062 -204.734375 225.007812 -206.769531 227.84375 -209.25 C 232.445312 -212.4375 235.894531 -217.128906 238.1875 -223.328125 C 240.488281 -229.523438 241.640625 -237.398438 241.640625 -246.953125 C 241.640625 -264.304688 237.21875 -276.347656 228.375 -283.078125 C 218.457031 -290.503906 201.285156 -294.21875 176.859375 -294.21875 L 138.078125 -294.21875 L 138.078125 -197.5625 Z M 177.390625 -197.5625 "/></g></g></g><g fill="#21297a" fill-opacity="1"><g transform="translate(1201.288444, 2424.987409)"><g><path d="M 2.953125 -6.171875 L 2.953125 -46.609375 L 12.578125 -40.4375 C 20.628906 -35.175781 28.601562 -32.546875 36.5 -32.546875 C 40.28125 -32.546875 42.828125 -33.125 44.140625 -34.28125 C 45.453125 -35.757812 46.273438 -37.894531 46.609375 -40.6875 C 46.929688 -44.800781 47.09375 -51.867188 47.09375 -61.890625 L 47.09375 -177.796875 L 91.984375 -177.796875 L 91.984375 -52.765625 C 91.984375 -42.242188 90.910156 -33.078125 88.765625 -25.265625 C 86.628906 -17.460938 83.257812 -11.015625 78.65625 -5.921875 C 69.613281 4.109375 57.125 9.125 41.1875 9.125 C 28.519531 9.125 16.765625 5.753906 5.921875 -0.984375 L 2.953125 -2.71875 Z M 2.953125 -6.171875 "/></g></g></g><g fill="#21297a" fill-opacity="1"><g transform="translate(1309.78898, 2424.987409)"><g><path d="M 55.234375 -2.46875 C 41.421875 -10.351562 30.984375 -21.53125 23.921875 -36 C 16.847656 -50.132812 13.3125 -66.738281 13.3125 -85.8125 C 13.3125 -104.882812 16.847656 -121.488281 23.921875 -135.625 C 30.984375 -150.09375 41.421875 -161.269531 55.234375 -169.15625 C 61.972656 -172.9375 69.410156 -175.8125 77.546875 -177.78125 C 85.691406 -179.757812 94.363281 -180.75 103.5625 -180.75 C 122.3125 -180.75 138.425781 -176.882812 151.90625 -169.15625 C 158.8125 -165.21875 164.894531 -160.453125 170.15625 -154.859375 C 175.414062 -149.273438 179.769531 -142.863281 183.21875 -135.625 C 186.832031 -128.550781 189.503906 -120.863281 191.234375 -112.5625 C 192.960938 -104.257812 193.828125 -95.34375 193.828125 -85.8125 C 193.828125 -66.738281 190.289062 -50.132812 183.21875 -36 C 176.144531 -21.53125 165.707031 -10.351562 151.90625 -2.46875 C 138.425781 5.257812 122.3125 9.125 103.5625 9.125 C 84.820312 9.125 68.710938 5.257812 55.234375 -2.46875 Z M 121.8125 -36.5 C 127.070312 -38.632812 131.632812 -41.921875 135.5 -46.359375 C 139.363281 -50.796875 142.28125 -56.257812 144.25 -62.75 C 146.226562 -69.25 147.21875 -76.9375 147.21875 -85.8125 C 147.21875 -103.238281 143.269531 -116.390625 135.375 -125.265625 C 131.59375 -129.703125 127.070312 -132.988281 121.8125 -135.125 C 116.550781 -137.269531 110.46875 -138.34375 103.5625 -138.34375 C 89.925781 -138.34375 79.328125 -133.984375 71.765625 -125.265625 C 63.867188 -116.390625 59.921875 -103.238281 59.921875 -85.8125 C 59.921875 -76.9375 60.90625 -69.25 62.875 -62.75 C 64.851562 -56.257812 67.816406 -50.796875 71.765625 -46.359375 C 79.328125 -37.648438 89.925781 -33.296875 103.5625 -33.296875 C 110.46875 -33.296875 116.550781 -34.363281 121.8125 -36.5 Z M 121.8125 -36.5 "/></g></g></g><g fill="#21297a" fill-opacity="1"><g transform="translate(1516.926302, 2424.987409)"><g><path d="M 23.1875 -177.796875 L 61.890625 -177.796875 L 61.890625 6.171875 L 17.015625 6.171875 L 17.015625 -177.796875 Z M 23.1875 -177.796875 "/></g></g></g><g fill="#21297a" fill-opacity="1"><g transform="translate(1595.83576, 2424.987409)"><g><path d="M 178.046875 -171.625 L 178.046875 6.171875 L 136.125 6.171875 L 134.390625 3.703125 L 64.109375 -94.203125 L 64.109375 6.171875 L 19.234375 6.171875 L 19.234375 -177.796875 L 61.15625 -177.796875 L 62.875 -175.328125 L 133.15625 -77.671875 L 133.15625 -177.796875 L 178.046875 -177.796875 Z M 178.046875 -171.625 "/></g></g></g><g fill="#21297a" fill-opacity="1"><g transform="translate(1793.109465, 2424.987409)"><g><path d="M 173.859375 -169.40625 L 111.21875 2.21875 L 109.734375 6.171875 L 63.375 6.171875 L 61.890625 2.21875 L -0.734375 -169.40625 L -3.9375 -177.796875 L 44.640625 -177.796875 L 46.109375 -173.609375 L 87.296875 -53.515625 L 128.234375 -173.609375 L 129.71875 -177.796875 L 177.0625 -177.796875 Z M 173.859375 -169.40625 "/></g></g></g><g fill="#21297a" fill-opacity="1"><g transform="translate(1965.723944, 2424.987409)"><g><path d="M 23.1875 -177.796875 L 61.890625 -177.796875 L 61.890625 6.171875 L 17.015625 6.171875 L 17.015625 -177.796875 Z M 23.1875 -177.796875 "/></g></g></g><g fill="#21297a" fill-opacity="1"><g transform="translate(2044.633379, 2424.987409)"><g><path d="M 25.40625 -177.796875 L 64.109375 -177.796875 L 64.109375 -34.765625 L 136.359375 -34.765625 L 136.359375 6.171875 L 19.234375 6.171875 L 19.234375 -177.796875 Z M 25.40625 -177.796875 "/></g></g></g><g fill="#21297a" fill-opacity="1"><g transform="translate(2187.656782, 2424.987409)"><g><path d="M 25.40625 -177.796875 L 64.109375 -177.796875 L 64.109375 -34.765625 L 136.359375 -34.765625 L 136.359375 6.171875 L 19.234375 6.171875 L 19.234375 -177.796875 Z M 25.40625 -177.796875 "/></g></g></g><g fill="#21297a" fill-opacity="1"><g transform="translate(2330.680184, 2424.987409)"><g><path d="M 64.109375 -136.859375 L 64.109375 -106.28125 L 138.09375 -106.28125 L 138.09375 -67.078125 L 64.109375 -67.078125 L 64.109375 -34.765625 L 143.515625 -34.765625 L 143.515625 6.171875 L 19.234375 6.171875 L 19.234375 -177.796875 L 143.515625 -177.796875 L 143.515625 -136.859375 Z M 64.109375 -136.859375 "/></g></g></g></svg>