<svg xmlns="http://www.w3.org/2000/svg" xmlns:xlink="http://www.w3.org/1999/xlink" width="500" zoomAndPan="magnify" viewBox="0 0 375 374.999991" height="500" preserveAspectRatio="xMidYMid meet" version="1.0"><defs><clipPath id="579a41a7fc"><path d="M 3 34.015625 L 370 34.015625 L 370 105 L 3 105 Z M 3 34.015625 " clip-rule="nonzero"/></clipPath><clipPath id="8ffd40e2e9"><path d="M 3 269 L 370 269 L 370 340.765625 L 3 340.765625 Z M 3 269 " clip-rule="nonzero"/></clipPath></defs><g clip-path="url(#579a41a7fc)"><path fill="#ffffff" d="M 334.769531 104.910156 L 38.203125 104.910156 C 37.058594 104.886719 35.917969 104.804688 34.785156 104.671875 C 33.648438 104.535156 32.523438 104.34375 31.40625 104.101562 C 30.289062 103.855469 29.1875 103.558594 28.101562 103.207031 C 27.011719 102.859375 25.945312 102.457031 24.894531 102 C 23.847656 101.546875 22.820312 101.042969 21.820312 100.488281 C 20.820312 99.9375 19.851562 99.335938 18.910156 98.6875 C 17.96875 98.042969 17.058594 97.351562 16.183594 96.617188 C 15.308594 95.878906 14.472656 95.105469 13.675781 94.289062 C 12.875 93.472656 12.117188 92.621094 11.398438 91.730469 C 10.683594 90.839844 10.011719 89.917969 9.382812 88.964844 C 8.757812 88.011719 8.175781 87.027344 7.644531 86.015625 C 7.113281 85.007812 6.632812 83.972656 6.199219 82.914062 C 5.769531 81.859375 5.386719 80.78125 5.0625 79.6875 C 4.734375 78.59375 4.460938 77.488281 4.242188 76.367188 C 4.019531 75.246094 3.855469 74.121094 3.746094 72.984375 C 3.632812 71.847656 3.578125 70.707031 3.578125 69.566406 C 3.578125 68.425781 3.632812 67.285156 3.746094 66.148438 C 3.855469 65.011719 4.019531 63.886719 4.242188 62.765625 C 4.460938 61.644531 4.734375 60.539062 5.0625 59.445312 C 5.386719 58.351562 5.769531 57.273438 6.199219 56.21875 C 6.632812 55.160156 7.113281 54.125 7.644531 53.117188 C 8.175781 52.105469 8.757812 51.121094 9.382812 50.167969 C 10.011719 49.214844 10.683594 48.292969 11.398438 47.402344 C 12.117188 46.511719 12.875 45.660156 13.675781 44.84375 C 14.472656 44.027344 15.308594 43.253906 16.183594 42.519531 C 17.058594 41.78125 17.96875 41.089844 18.910156 40.445312 C 19.851562 39.796875 20.820312 39.195312 21.820312 38.644531 C 22.820312 38.089844 23.847656 37.585938 24.894531 37.132812 C 25.945312 36.679688 27.011719 36.273438 28.101562 35.925781 C 29.1875 35.574219 30.289062 35.277344 31.40625 35.03125 C 32.523438 34.789062 33.648438 34.597656 34.785156 34.460938 C 35.917969 34.328125 37.058594 34.246094 38.203125 34.222656 L 334.769531 34.222656 C 335.910156 34.246094 337.050781 34.328125 338.183594 34.460938 C 339.320312 34.597656 340.445312 34.789062 341.5625 35.03125 C 342.679688 35.277344 343.78125 35.574219 344.871094 35.925781 C 345.957031 36.273438 347.027344 36.679688 348.074219 37.132812 C 349.125 37.585938 350.148438 38.089844 351.148438 38.644531 C 352.148438 39.195312 353.117188 39.796875 354.058594 40.445312 C 355.003906 41.089844 355.910156 41.78125 356.785156 42.519531 C 357.660156 43.253906 358.496094 44.027344 359.296875 44.84375 C 360.09375 45.660156 360.855469 46.511719 361.570312 47.402344 C 362.285156 48.292969 362.957031 49.214844 363.585938 50.167969 C 364.214844 51.121094 364.792969 52.105469 365.324219 53.117188 C 365.855469 54.125 366.339844 55.160156 366.769531 56.21875 C 367.203125 57.273438 367.582031 58.351562 367.910156 59.445312 C 368.234375 60.539062 368.511719 61.644531 368.730469 62.765625 C 368.949219 63.886719 369.113281 65.011719 369.226562 66.148438 C 369.335938 67.285156 369.390625 68.425781 369.390625 69.566406 C 369.390625 70.707031 369.335938 71.847656 369.226562 72.984375 C 369.113281 74.121094 368.949219 75.246094 368.730469 76.367188 C 368.511719 77.488281 368.234375 78.59375 367.910156 79.6875 C 367.582031 80.78125 367.203125 81.859375 366.769531 82.914062 C 366.339844 83.972656 365.855469 85.007812 365.324219 86.015625 C 364.792969 87.027344 364.214844 88.011719 363.585938 88.964844 C 362.957031 89.917969 362.285156 90.839844 361.570312 91.730469 C 360.855469 92.621094 360.09375 93.472656 359.296875 94.289062 C 358.496094 95.105469 357.660156 95.878906 356.785156 96.617188 C 355.910156 97.351562 355.003906 98.042969 354.058594 98.6875 C 353.117188 99.335938 352.148438 99.9375 351.148438 100.488281 C 350.148438 101.042969 349.125 101.546875 348.074219 102 C 347.027344 102.457031 345.957031 102.859375 344.871094 103.207031 C 343.78125 103.558594 342.679688 103.855469 341.5625 104.101562 C 340.445312 104.34375 339.320312 104.535156 338.183594 104.671875 C 337.050781 104.804688 335.910156 104.886719 334.769531 104.910156 Z M 334.769531 104.910156 " fill-opacity="1" fill-rule="nonzero"/></g><path fill="#ffffff" d="M 334.769531 222.523438 L 38.203125 222.523438 C 37.082031 222.472656 35.96875 222.371094 34.855469 222.214844 C 33.746094 222.058594 32.648438 221.851562 31.558594 221.589844 C 30.46875 221.328125 29.390625 221.015625 28.332031 220.652344 C 27.273438 220.289062 26.230469 219.878906 25.210938 219.414062 C 24.191406 218.953125 23.195312 218.445312 22.222656 217.886719 C 21.25 217.328125 20.304688 216.726562 19.390625 216.078125 C 18.476562 215.433594 17.597656 214.742188 16.746094 214.011719 C 15.898438 213.28125 15.085938 212.511719 14.3125 211.703125 C 13.539062 210.894531 12.804688 210.050781 12.109375 209.171875 C 11.414062 208.292969 10.765625 207.382812 10.15625 206.441406 C 9.550781 205.5 8.988281 204.53125 8.476562 203.539062 C 7.960938 202.542969 7.492188 201.527344 7.078125 200.488281 C 6.660156 199.449219 6.292969 198.394531 5.976562 197.320312 C 5.660156 196.246094 5.394531 195.160156 5.183594 194.0625 C 4.96875 192.960938 4.808594 191.855469 4.703125 190.742188 C 4.597656 189.628906 4.542969 188.511719 4.542969 187.390625 C 4.542969 186.273438 4.597656 185.15625 4.703125 184.039062 C 4.808594 182.925781 4.96875 181.820312 5.183594 180.722656 C 5.394531 179.621094 5.660156 178.535156 5.976562 177.460938 C 6.292969 176.386719 6.660156 175.332031 7.078125 174.292969 C 7.492188 173.253906 7.960938 172.238281 8.476562 171.242188 C 8.988281 170.25 9.550781 169.28125 10.15625 168.339844 C 10.765625 167.402344 11.414062 166.492188 12.109375 165.613281 C 12.804688 164.734375 13.539062 163.890625 14.3125 163.082031 C 15.085938 162.273438 15.898438 161.503906 16.746094 160.769531 C 17.597656 160.039062 18.476562 159.351562 19.390625 158.703125 C 20.304688 158.054688 21.25 157.453125 22.222656 156.894531 C 23.195312 156.339844 24.191406 155.828125 25.210938 155.367188 C 26.230469 154.902344 27.273438 154.492188 28.332031 154.128906 C 29.390625 153.765625 30.46875 153.453125 31.558594 153.191406 C 32.648438 152.933594 33.746094 152.722656 34.855469 152.566406 C 35.96875 152.414062 37.082031 152.308594 38.203125 152.261719 L 334.769531 152.261719 C 335.953125 152.207031 337.136719 152.214844 338.320312 152.28125 C 339.503906 152.351562 340.683594 152.476562 341.851562 152.664062 C 343.023438 152.847656 344.183594 153.09375 345.328125 153.394531 C 346.476562 153.699219 347.605469 154.058594 348.714844 154.476562 C 349.824219 154.890625 350.910156 155.363281 351.972656 155.890625 C 353.035156 156.414062 354.066406 156.996094 355.070312 157.625 C 356.074219 158.253906 357.042969 158.933594 357.980469 159.664062 C 358.914062 160.390625 359.808594 161.164062 360.667969 161.984375 C 361.523438 162.800781 362.335938 163.660156 363.105469 164.5625 C 363.875 165.460938 364.597656 166.398438 365.273438 167.375 C 365.949219 168.347656 366.574219 169.351562 367.144531 170.386719 C 367.71875 171.425781 368.238281 172.488281 368.703125 173.578125 C 369.171875 174.664062 369.582031 175.773438 369.933594 176.90625 C 370.289062 178.035156 370.582031 179.179688 370.820312 180.339844 C 371.058594 181.5 371.238281 182.667969 371.355469 183.847656 C 371.476562 185.027344 371.535156 186.207031 371.535156 187.390625 C 371.535156 188.574219 371.476562 189.757812 371.355469 190.933594 C 371.238281 192.113281 371.058594 193.28125 370.820312 194.441406 C 370.582031 195.601562 370.289062 196.746094 369.933594 197.878906 C 369.582031 199.007812 369.171875 200.117188 368.703125 201.207031 C 368.238281 202.292969 367.71875 203.359375 367.144531 204.394531 C 366.574219 205.429688 365.949219 206.433594 365.273438 207.410156 C 364.597656 208.382812 363.875 209.320312 363.105469 210.21875 C 362.335938 211.121094 361.523438 211.980469 360.667969 212.800781 C 359.808594 213.617188 358.914062 214.390625 357.980469 215.121094 C 357.042969 215.847656 356.074219 216.527344 355.070312 217.15625 C 354.066406 217.789062 353.035156 218.367188 351.972656 218.890625 C 350.910156 219.417969 349.824219 219.890625 348.714844 220.308594 C 347.605469 220.722656 346.476562 221.082031 345.328125 221.386719 C 344.183594 221.6875 343.023438 221.933594 341.851562 222.121094 C 340.683594 222.304688 339.503906 222.433594 338.320312 222.5 C 337.136719 222.566406 335.953125 222.574219 334.769531 222.523438 Z M 334.769531 222.523438 " fill-opacity="1" fill-rule="nonzero"/><g clip-path="url(#8ffd40e2e9)"><path fill="#ffffff" d="M 334.769531 340.628906 L 38.203125 340.628906 C 37.058594 340.605469 35.917969 340.523438 34.785156 340.386719 C 33.648438 340.253906 32.523438 340.0625 31.40625 339.820312 C 30.289062 339.574219 29.1875 339.277344 28.101562 338.925781 C 27.011719 338.574219 25.945312 338.171875 24.894531 337.71875 C 23.847656 337.265625 22.820312 336.761719 21.820312 336.207031 C 20.820312 335.652344 19.851562 335.054688 18.910156 334.40625 C 17.96875 333.757812 17.058594 333.066406 16.183594 332.332031 C 15.308594 331.597656 14.472656 330.820312 13.675781 330.007812 C 12.875 329.191406 12.117188 328.335938 11.398438 327.449219 C 10.683594 326.558594 10.011719 325.636719 9.382812 324.683594 C 8.757812 323.726562 8.175781 322.746094 7.644531 321.734375 C 7.113281 320.722656 6.632812 319.691406 6.199219 318.632812 C 5.769531 317.578125 5.386719 316.5 5.0625 315.40625 C 4.734375 314.3125 4.460938 313.207031 4.242188 312.085938 C 4.019531 310.964844 3.855469 309.835938 3.746094 308.699219 C 3.632812 307.566406 3.578125 306.425781 3.578125 305.285156 C 3.578125 304.144531 3.632812 303.003906 3.746094 301.867188 C 3.855469 300.730469 4.019531 299.601562 4.242188 298.484375 C 4.460938 297.363281 4.734375 296.253906 5.0625 295.160156 C 5.386719 294.066406 5.769531 292.992188 6.199219 291.933594 C 6.632812 290.878906 7.113281 289.84375 7.644531 288.832031 C 8.175781 287.824219 8.757812 286.839844 9.382812 285.886719 C 10.011719 284.933594 10.683594 284.011719 11.398438 283.121094 C 12.117188 282.230469 12.875 281.378906 13.675781 280.5625 C 14.472656 279.746094 15.308594 278.96875 16.183594 278.234375 C 17.058594 277.5 17.96875 276.808594 18.910156 276.160156 C 19.851562 275.515625 20.820312 274.914062 21.820312 274.359375 C 22.820312 273.808594 23.847656 273.304688 24.894531 272.851562 C 25.945312 272.394531 27.011719 271.992188 28.101562 271.640625 C 29.1875 271.292969 30.289062 270.992188 31.40625 270.75 C 32.523438 270.503906 33.648438 270.316406 34.785156 270.179688 C 35.917969 270.042969 37.058594 269.964844 38.203125 269.9375 L 334.769531 269.9375 C 335.910156 269.964844 337.050781 270.042969 338.183594 270.179688 C 339.320312 270.316406 340.445312 270.503906 341.5625 270.75 C 342.679688 270.992188 343.78125 271.292969 344.871094 271.640625 C 345.957031 271.992188 347.027344 272.394531 348.074219 272.851562 C 349.125 273.304688 350.148438 273.808594 351.148438 274.359375 C 352.148438 274.914062 353.117188 275.515625 354.058594 276.160156 C 355.003906 276.808594 355.910156 277.5 356.785156 278.234375 C 357.660156 278.96875 358.496094 279.746094 359.296875 280.5625 C 360.09375 281.378906 360.855469 282.230469 361.570312 283.121094 C 362.285156 284.011719 362.957031 284.933594 363.585938 285.886719 C 364.214844 286.839844 364.792969 287.824219 365.324219 288.832031 C 365.855469 289.84375 366.339844 290.878906 366.769531 291.933594 C 367.203125 292.992188 367.582031 294.066406 367.910156 295.160156 C 368.234375 296.253906 368.511719 297.363281 368.730469 298.484375 C 368.949219 299.601562 369.113281 300.730469 369.226562 301.867188 C 369.335938 303.003906 369.390625 304.144531 369.390625 305.285156 C 369.390625 306.425781 369.335938 307.566406 369.226562 308.699219 C 369.113281 309.835938 368.949219 310.964844 368.730469 312.085938 C 368.511719 313.207031 368.234375 314.3125 367.910156 315.40625 C 367.582031 316.5 367.203125 317.578125 366.769531 318.632812 C 366.339844 319.691406 365.855469 320.722656 365.324219 321.734375 C 364.792969 322.746094 364.214844 323.726562 363.585938 324.683594 C 362.957031 325.636719 362.285156 326.558594 361.570312 327.449219 C 360.855469 328.335938 360.09375 329.191406 359.296875 330.007812 C 358.496094 330.820312 357.660156 331.597656 356.785156 332.332031 C 355.910156 333.066406 355.003906 333.757812 354.058594 334.40625 C 353.117188 335.054688 352.148438 335.652344 351.148438 336.207031 C 350.148438 336.761719 349.125 337.265625 348.074219 337.71875 C 347.027344 338.171875 345.957031 338.574219 344.871094 338.925781 C 343.78125 339.277344 342.679688 339.574219 341.5625 339.820312 C 340.445312 340.0625 339.320312 340.253906 338.183594 340.386719 C 337.050781 340.523438 335.910156 340.605469 334.769531 340.628906 Z M 334.769531 340.628906 " fill-opacity="1" fill-rule="nonzero"/></g></svg>