<svg xmlns="http://www.w3.org/2000/svg" xmlns:xlink="http://www.w3.org/1999/xlink" width="369" zoomAndPan="magnify" viewBox="0 0 276.75 296.999993" height="396" preserveAspectRatio="xMidYMid meet" version="1.0"><defs><clipPath id="073975b62a"><path d="M 0.0976562 0.132812 L 276.5 0.132812 L 276.5 296.863281 L 0.0976562 296.863281 Z M 0.0976562 0.132812 " clip-rule="nonzero"/></clipPath></defs><path fill="#ffffff" d="M 41.464844 34.621094 L 235.203125 34.621094 C 239 34.621094 242.109375 37.707031 242.109375 41.53125 L 242.109375 172.234375 C 242.109375 176.03125 239.023438 179.140625 235.203125 179.140625 L 231.066406 179.140625 L 231.066406 170.78125 C 231.066406 166.960938 227.984375 163.875 224.164062 163.875 L 154.738281 163.875 C 150.941406 163.875 147.859375 166.960938 147.859375 170.78125 L 147.859375 179.140625 L 41.464844 179.140625 C 37.644531 179.140625 34.5625 176.03125 34.5625 172.234375 L 34.5625 41.53125 C 34.5625 37.734375 37.644531 34.648438 41.441406 34.621094 C 41.441406 34.621094 41.441406 34.621094 41.464844 34.621094 Z M 41.464844 27.742188 C 33.851562 27.742188 27.660156 33.910156 27.660156 41.53125 L 27.660156 172.234375 C 27.660156 179.851562 33.824219 186.023438 41.441406 186.023438 L 154.738281 186.023438 L 154.738281 170.78125 L 224.164062 170.78125 L 224.164062 186.023438 L 235.203125 186.023438 C 242.820312 186.023438 248.984375 179.878906 249.011719 172.234375 L 249.011719 41.53125 C 249.011719 33.9375 242.84375 27.742188 235.230469 27.742188 C 235.203125 27.742188 235.203125 27.742188 235.203125 27.742188 L 41.464844 27.742188 " fill-opacity="1" fill-rule="nonzero"/><g clip-path="url(#073975b62a)"><path fill="#ffffff" d="M 97.324219 213.628906 L 179.347656 213.628906 L 193.074219 246.90625 L 83.570312 246.90625 Z M 20.757812 13.949219 L 255.886719 13.949219 C 259.683594 13.949219 262.792969 17.035156 262.792969 20.832031 L 262.792969 192.929688 C 262.792969 196.726562 259.683594 199.8125 255.886719 199.839844 L 20.757812 199.839844 C 16.960938 199.8125 13.878906 196.726562 13.878906 192.929688 L 13.878906 20.832031 C 13.878906 17.035156 16.960938 13.949219 20.757812 13.949219 Z M 20.757812 0.160156 C 9.347656 0.160156 0.0976562 9.414062 0.0976562 20.832031 L 0.0976562 192.929688 C 0.0976562 204.347656 9.347656 213.601562 20.757812 213.628906 L 85.230469 213.628906 L 53.902344 289.410156 C 52.71875 292.28125 54.085938 295.550781 56.960938 296.710938 C 59.804688 297.871094 63.046875 296.554688 64.230469 293.707031 L 79.039062 257.875 L 197.605469 257.875 L 212.414062 293.707031 C 213.625 296.554688 216.894531 297.898438 219.738281 296.710938 C 222.582031 295.527344 223.925781 292.257812 222.769531 289.410156 L 191.414062 213.628906 L 255.886719 213.628906 C 267.296875 213.601562 276.546875 204.347656 276.546875 192.929688 L 276.546875 20.832031 C 276.546875 9.414062 267.296875 0.160156 255.886719 0.160156 L 20.757812 0.160156 " fill-opacity="1" fill-rule="nonzero"/></g><path fill="#ffffff" d="M 218.15625 122.003906 L 61.703125 122.003906 C 59.804688 122.003906 58.277344 123.53125 58.277344 125.457031 C 58.277344 127.355469 59.804688 128.886719 61.703125 128.886719 L 218.15625 128.886719 C 220.054688 128.886719 221.582031 127.355469 221.582031 125.457031 C 221.582031 123.53125 220.054688 122.003906 218.15625 122.003906 " fill-opacity="1" fill-rule="nonzero"/><path fill="#ffffff" d="M 218.15625 96.269531 L 61.703125 96.269531 C 59.804688 96.269531 58.277344 97.796875 58.277344 99.722656 C 58.277344 101.621094 59.804688 103.152344 61.703125 103.152344 L 218.15625 103.152344 C 220.054688 103.152344 221.582031 101.621094 221.582031 99.722656 C 221.582031 97.796875 220.054688 96.269531 218.15625 96.269531 " fill-opacity="1" fill-rule="nonzero"/><path fill="#ffffff" d="M 218.15625 70.507812 L 61.703125 70.507812 C 59.804688 70.507812 58.277344 72.0625 58.277344 73.960938 C 58.277344 75.886719 59.804688 77.417969 61.703125 77.417969 L 218.15625 77.417969 C 220.054688 77.417969 221.582031 75.886719 221.582031 73.960938 C 221.582031 72.0625 220.054688 70.507812 218.15625 70.507812 " fill-opacity="1" fill-rule="nonzero"/><path fill="#ffffff" d="M 210.042969 185.074219 L 168.886719 185.074219 C 166.960938 185.074219 165.433594 186.628906 165.433594 188.527344 C 165.433594 190.425781 166.960938 191.957031 168.886719 191.957031 L 210.042969 191.957031 C 211.9375 191.957031 213.492188 190.425781 213.492188 188.527344 C 213.492188 186.628906 211.9375 185.074219 210.042969 185.074219 " fill-opacity="1" fill-rule="nonzero"/></svg>