<svg xmlns="http://www.w3.org/2000/svg" xmlns:xlink="http://www.w3.org/1999/xlink" width="358" zoomAndPan="magnify" viewBox="0 0 268.5 269.999989" height="360" preserveAspectRatio="xMidYMid meet" version="1.0"><defs><clipPath id="038fb7e47d"><path d="M 130 0.25 L 140 0.25 L 140 9 L 130 9 Z M 130 0.25 " clip-rule="nonzero"/></clipPath><clipPath id="1689b02700"><path d="M 133 267 L 137 267 L 137 269.75 L 133 269.75 Z M 133 267 " clip-rule="nonzero"/></clipPath><clipPath id="7cec6f968b"><path d="M 87 220 L 197 220 L 197 269.75 L 87 269.75 Z M 87 220 " clip-rule="nonzero"/></clipPath><clipPath id="2002e7e106"><path d="M 265 130 L 268 130 L 268 134 L 265 134 Z M 265 130 " clip-rule="nonzero"/></clipPath><clipPath id="1f3b519f6d"><path d="M 229 55 L 268 55 L 268 197 L 229 197 Z M 229 55 " clip-rule="nonzero"/></clipPath></defs><path fill="#ffffff" d="M 87.386719 83.785156 C 87.386719 85.125 86.296875 86.214844 84.957031 86.214844 C 83.617188 86.214844 82.527344 85.125 82.527344 83.785156 C 82.527344 82.445312 83.617188 81.359375 84.957031 81.359375 C 86.296875 81.359375 87.386719 82.445312 87.386719 83.785156 " fill-opacity="1" fill-rule="nonzero"/><path fill="#ffffff" d="M 94.382812 132.183594 C 94.382812 133.523438 93.296875 134.613281 91.957031 134.613281 C 90.617188 134.613281 89.527344 133.523438 89.527344 132.183594 C 89.527344 130.84375 90.617188 129.757812 91.957031 129.757812 C 93.296875 129.757812 94.382812 130.84375 94.382812 132.183594 " fill-opacity="1" fill-rule="nonzero"/><path fill="#ffffff" d="M 132.589844 95.636719 C 132.589844 96.492188 131.894531 97.191406 131.035156 97.191406 C 130.175781 97.191406 129.480469 96.492188 129.480469 95.636719 C 129.480469 94.777344 130.175781 94.082031 131.035156 94.082031 C 131.894531 94.082031 132.589844 94.777344 132.589844 95.636719 " fill-opacity="1" fill-rule="nonzero"/><path fill="#ffffff" d="M 143.625 30.421875 C 143.625 31.761719 142.539062 32.847656 141.199219 32.847656 C 139.859375 32.847656 138.769531 31.761719 138.769531 30.421875 C 138.769531 29.082031 139.859375 27.996094 141.199219 27.996094 C 142.539062 27.996094 143.625 29.082031 143.625 30.421875 " fill-opacity="1" fill-rule="nonzero"/><path fill="#ffffff" d="M 93.507812 42.125 C 93.507812 42.984375 92.816406 43.679688 91.957031 43.679688 C 91.097656 43.679688 90.402344 42.984375 90.402344 42.125 C 90.402344 41.269531 91.097656 40.574219 91.957031 40.574219 C 92.816406 40.574219 93.507812 41.269531 93.507812 42.125 " fill-opacity="1" fill-rule="nonzero"/><path fill="#ffffff" d="M 55.742188 113.792969 C 55.742188 114.648438 55.046875 115.34375 54.1875 115.34375 C 53.328125 115.34375 52.632812 114.648438 52.632812 113.792969 C 52.632812 112.933594 53.328125 112.238281 54.1875 112.238281 C 55.046875 112.238281 55.742188 112.933594 55.742188 113.792969 " fill-opacity="1" fill-rule="nonzero"/><path fill="#ffffff" d="M 54.1875 64.582031 C 54.1875 65.4375 53.488281 66.136719 52.632812 66.136719 C 51.773438 66.136719 51.078125 65.4375 51.078125 64.582031 C 51.078125 63.722656 51.773438 63.027344 52.632812 63.027344 C 53.488281 63.027344 54.1875 63.722656 54.1875 64.582031 " fill-opacity="1" fill-rule="nonzero"/><path fill="#ffffff" d="M 153.867188 163.238281 C 153.867188 164.097656 153.171875 164.792969 152.3125 164.792969 C 151.457031 164.792969 150.761719 164.097656 150.761719 163.238281 C 150.761719 162.378906 151.457031 161.683594 152.3125 161.683594 C 153.171875 161.683594 153.867188 162.378906 153.867188 163.238281 " fill-opacity="1" fill-rule="nonzero"/><path fill="#ffffff" d="M 149.601562 132.183594 C 149.601562 133.523438 148.515625 134.613281 147.175781 134.613281 C 145.835938 134.613281 144.746094 133.523438 144.746094 132.183594 C 144.746094 130.84375 145.835938 129.757812 147.175781 129.757812 C 148.515625 129.757812 149.601562 130.84375 149.601562 132.183594 " fill-opacity="1" fill-rule="nonzero"/><path fill="#ffffff" d="M 82.527344 187.039062 C 82.527344 188.378906 81.441406 189.46875 80.101562 189.46875 C 78.761719 189.46875 77.671875 188.378906 77.671875 187.039062 C 77.671875 185.699219 78.761719 184.613281 80.101562 184.613281 C 81.441406 184.613281 82.527344 185.699219 82.527344 187.039062 " fill-opacity="1" fill-rule="nonzero"/><path fill="#ffffff" d="M 18.402344 161.683594 C 18.402344 163.023438 17.3125 164.113281 15.972656 164.113281 C 14.632812 164.113281 13.542969 163.023438 13.542969 161.683594 C 13.542969 160.34375 14.632812 159.257812 15.972656 159.257812 C 17.3125 159.257812 18.402344 160.34375 18.402344 161.683594 " fill-opacity="1" fill-rule="nonzero"/><path fill="#ffffff" d="M 12.394531 99.617188 C 12.394531 100.957031 11.304688 102.042969 9.964844 102.042969 C 8.621094 102.042969 7.535156 100.957031 7.535156 99.617188 C 7.535156 98.277344 8.621094 97.191406 9.964844 97.191406 C 11.304688 97.191406 12.394531 98.277344 12.394531 99.617188 " fill-opacity="1" fill-rule="nonzero"/><path fill="#ffffff" d="M 189.046875 76.046875 C 189.046875 77.386719 187.960938 78.476562 186.617188 78.476562 C 185.277344 78.476562 184.1875 77.386719 184.1875 76.046875 C 184.1875 74.707031 185.277344 73.621094 186.617188 73.621094 C 187.960938 73.621094 189.046875 74.707031 189.046875 76.046875 " fill-opacity="1" fill-rule="nonzero"/><path fill="#ffffff" d="M 51.078125 157.707031 C 51.078125 158.5625 50.382812 159.257812 49.523438 159.257812 C 48.664062 159.257812 47.96875 158.5625 47.96875 157.707031 C 47.96875 156.847656 48.664062 156.152344 49.523438 156.152344 C 50.382812 156.152344 51.078125 156.847656 51.078125 157.707031 " fill-opacity="1" fill-rule="nonzero"/><path fill="#ffffff" d="M 49.523438 212.925781 C 49.523438 213.78125 48.828125 214.476562 47.96875 214.476562 C 47.113281 214.476562 46.414062 213.78125 46.414062 212.925781 C 46.414062 212.066406 47.113281 211.371094 47.96875 211.371094 C 48.828125 211.371094 49.523438 212.066406 49.523438 212.925781 " fill-opacity="1" fill-rule="nonzero"/><path fill="#ffffff" d="M 116.21875 163.238281 C 116.21875 164.097656 115.523438 164.792969 114.664062 164.792969 C 113.804688 164.792969 113.109375 164.097656 113.109375 163.238281 C 113.109375 162.378906 113.804688 161.683594 114.664062 161.683594 C 115.523438 161.683594 116.21875 162.378906 116.21875 163.238281 " fill-opacity="1" fill-rule="nonzero"/><path fill="#ffffff" d="M 125.304688 200.503906 C 125.304688 201.359375 124.605469 202.058594 123.75 202.058594 C 122.890625 202.058594 122.195312 201.359375 122.195312 200.503906 C 122.195312 199.644531 122.890625 198.949219 123.75 198.949219 C 124.605469 198.949219 125.304688 199.644531 125.304688 200.503906 " fill-opacity="1" fill-rule="nonzero"/><path fill="#ffffff" d="M 123.75 64.582031 C 123.75 65.4375 123.054688 66.136719 122.195312 66.136719 C 121.335938 66.136719 120.640625 65.4375 120.640625 64.582031 C 120.640625 63.722656 121.335938 63.027344 122.195312 63.027344 C 123.054688 63.027344 123.75 63.722656 123.75 64.582031 " fill-opacity="1" fill-rule="nonzero"/><path fill="#ffffff" d="M 177.414062 107.820312 C 177.414062 108.675781 176.71875 109.371094 175.859375 109.371094 C 175 109.371094 174.304688 108.675781 174.304688 107.820312 C 174.304688 106.960938 175 106.265625 175.859375 106.265625 C 176.71875 106.265625 177.414062 106.960938 177.414062 107.820312 " fill-opacity="1" fill-rule="nonzero"/><path fill="#ffffff" d="M 159.246094 72.066406 C 159.246094 72.925781 158.550781 73.621094 157.695312 73.621094 C 156.835938 73.621094 156.136719 72.925781 156.136719 72.066406 C 156.136719 71.210938 156.835938 70.515625 157.695312 70.515625 C 158.550781 70.515625 159.246094 71.210938 159.246094 72.066406 " fill-opacity="1" fill-rule="nonzero"/><path fill="#ffffff" d="M 178.96875 40.574219 C 178.96875 41.433594 178.273438 42.125 177.414062 42.125 C 176.554688 42.125 175.859375 41.433594 175.859375 40.574219 C 175.859375 39.714844 176.554688 39.023438 177.414062 39.023438 C 178.273438 39.023438 178.96875 39.714844 178.96875 40.574219 " fill-opacity="1" fill-rule="nonzero"/><path fill="#ffffff" d="M 113.109375 10.117188 C 113.109375 10.976562 112.414062 11.671875 111.558594 11.671875 C 110.699219 11.671875 110 10.976562 110 10.117188 C 110 9.261719 110.699219 8.5625 111.558594 8.5625 C 112.414062 8.5625 113.109375 9.261719 113.109375 10.117188 " fill-opacity="1" fill-rule="nonzero"/><path fill="#ffffff" d="M 62.941406 32.453125 C 62.941406 33.523438 62.074219 34.394531 61 34.394531 C 59.925781 34.394531 59.054688 33.523438 59.054688 32.453125 C 59.054688 31.382812 59.925781 30.511719 61 30.511719 C 62.074219 30.511719 62.941406 31.382812 62.941406 32.453125 " fill-opacity="1" fill-rule="nonzero"/><path fill="#ffffff" d="M 192.929688 145.320312 C 192.929688 146.394531 192.0625 147.261719 190.988281 147.261719 C 189.914062 147.261719 189.046875 146.394531 189.046875 145.320312 C 189.046875 144.25 189.914062 143.382812 190.988281 143.382812 C 192.0625 143.382812 192.929688 144.25 192.929688 145.320312 " fill-opacity="1" fill-rule="nonzero"/><path fill="#ffffff" d="M 220.832031 103.984375 C 220.832031 105.054688 219.960938 105.925781 218.890625 105.925781 C 217.816406 105.925781 216.945312 105.054688 216.945312 103.984375 C 216.945312 102.914062 217.816406 102.042969 218.890625 102.042969 C 219.960938 102.042969 220.832031 102.914062 220.832031 103.984375 " fill-opacity="1" fill-rule="nonzero"/><path fill="#ffffff" d="M 220.832031 49.292969 C 220.832031 50.367188 219.960938 51.234375 218.890625 51.234375 C 217.816406 51.234375 216.945312 50.367188 216.945312 49.292969 C 216.945312 48.222656 217.816406 47.351562 218.890625 47.351562 C 219.960938 47.351562 220.832031 48.222656 220.832031 49.292969 " fill-opacity="1" fill-rule="nonzero"/><path fill="#ffffff" d="M 167.621094 10.117188 C 167.621094 11.191406 166.753906 12.058594 165.679688 12.058594 C 164.605469 12.058594 163.734375 11.191406 163.734375 10.117188 C 163.734375 9.046875 164.605469 8.175781 165.679688 8.175781 C 166.753906 8.175781 167.621094 9.046875 167.621094 10.117188 " fill-opacity="1" fill-rule="nonzero"/><path fill="#ffffff" d="M 177.804688 194.53125 C 177.804688 195.605469 176.933594 196.472656 175.859375 196.472656 C 174.789062 196.472656 173.917969 195.605469 173.917969 194.53125 C 173.917969 193.457031 174.789062 192.589844 175.859375 192.589844 C 176.933594 192.589844 177.804688 193.457031 177.804688 194.53125 " fill-opacity="1" fill-rule="nonzero"/><path fill="#ffffff" d="M 97.492188 226.179688 C 97.492188 227.039062 96.796875 227.734375 95.9375 227.734375 C 95.078125 227.734375 94.382812 227.039062 94.382812 226.179688 C 94.382812 225.324219 95.078125 224.628906 95.9375 224.628906 C 96.796875 224.628906 97.492188 225.324219 97.492188 226.179688 " fill-opacity="1" fill-rule="nonzero"/><path fill="#ffffff" d="M 212.960938 177.277344 C 212.960938 178.136719 212.261719 178.832031 211.40625 178.832031 C 210.546875 178.832031 209.851562 178.136719 209.851562 177.277344 C 209.851562 176.417969 210.546875 175.722656 211.40625 175.722656 C 212.261719 175.722656 212.960938 176.417969 212.960938 177.277344 " fill-opacity="1" fill-rule="nonzero"/><path fill="#ffffff" d="M 156.976562 232.21875 C 156.976562 233.078125 156.28125 233.773438 155.421875 233.773438 C 154.5625 233.773438 153.867188 233.078125 153.867188 232.21875 C 153.867188 231.359375 154.5625 230.667969 155.421875 230.667969 C 156.28125 230.667969 156.976562 231.359375 156.976562 232.21875 " fill-opacity="1" fill-rule="nonzero"/><path fill="#ffffff" d="M 247.714844 134.613281 C 247.714844 135.46875 247.019531 136.164062 246.160156 136.164062 C 245.300781 136.164062 244.609375 135.46875 244.609375 134.613281 C 244.609375 133.753906 245.300781 133.058594 246.160156 133.058594 C 247.019531 133.058594 247.714844 133.753906 247.714844 134.613281 " fill-opacity="1" fill-rule="nonzero"/><path fill="#ffffff" d="M 164.644531 10.660156 L 165.320312 10.671875 L 165.390625 10.0625 Z M 113.175781 10.355469 L 124.503906 18.617188 L 163.347656 11.121094 L 163.378906 11.09375 Z M 111.902344 9.988281 L 104.222656 22.53125 L 123.890625 18.734375 Z M 110.992188 10.601562 L 64.097656 30.273438 L 103.617188 22.648438 Z M 125.003906 18.984375 L 141.707031 31.167969 L 140.925781 29.167969 L 162.589844 11.730469 Z M 60.914062 31.613281 L 61.964844 31.691406 L 61.296875 31.453125 Z M 63.683594 31.820312 L 96.496094 34.28125 L 103.292969 23.171875 L 62.054688 31.132812 L 61.917969 31.191406 Z M 97.003906 34.316406 L 120.167969 36.054688 L 141.464844 31.554688 L 124.394531 19.101562 L 103.898438 23.054688 Z M 121.789062 36.175781 L 138.246094 37.410156 L 141.421875 32.027344 Z M 138.753906 37.449219 L 141.117188 37.625 L 142.09375 32.152344 L 142.003906 31.933594 Z M 141.574219 37.660156 L 144.320312 37.863281 L 142.410156 32.964844 Z M 144.824219 37.902344 L 162.027344 39.191406 L 165.257812 11.214844 L 163.542969 11.546875 L 141.472656 29.3125 L 142.089844 30.890625 L 142.433594 30.304688 L 142.855469 30.460938 L 142.5625 32.105469 Z M 65.304688 32.398438 L 91.859375 41.851562 L 96.226562 34.714844 Z M 96.738281 34.753906 L 92.339844 41.933594 L 92.480469 41.90625 L 118.574219 36.390625 Z M 177.929688 39.601562 L 217.839844 49.515625 L 218.574219 48.464844 L 166.183594 10.1875 Z M 219.117188 50.070312 L 219.117188 50.578125 L 219.320312 49.914062 Z M 218.035156 50.03125 L 217.570312 50.695312 L 218.332031 50.105469 Z M 61.082031 32.082031 L 70.71875 53.757812 L 91.25 42.351562 L 92.144531 43 L 92.328125 41.953125 L 92.054688 42.402344 L 63.589844 32.269531 Z M 61.054688 33.140625 L 53.144531 63.519531 L 70.316406 53.980469 Z M 92.46875 43.796875 L 89.007812 63.546875 L 119.453125 63.386719 Z M 70.902344 54.175781 L 75.101562 63.621094 L 88.546875 63.550781 L 92.058594 43.5 L 91.21875 42.890625 Z M 70.503906 54.398438 L 53.695312 63.730469 L 74.605469 63.621094 Z M 120.84375 63.832031 L 121.03125 63.96875 L 121.289062 63.828125 Z M 121.4375 64.265625 L 122.125 64.765625 L 137.988281 37.847656 L 120.195312 36.511719 L 92.726562 42.320312 L 92.554688 43.296875 L 120.222656 63.382812 L 122.191406 63.371094 L 122.304688 63.796875 Z M 122.921875 64.3125 L 135.804688 67.515625 L 141.039062 38.074219 L 138.496094 37.882812 Z M 145.007812 38.375 L 157.90625 71.40625 L 158.234375 72.0625 L 158.234375 72.042969 L 161.972656 39.644531 Z M 162.480469 39.226562 L 177.589844 40.359375 L 177.632812 40.511719 L 187.445312 74.109375 L 216.359375 51.636719 L 217.5625 49.914062 L 177.59375 39.984375 L 177.550781 39.878906 L 165.800781 10.457031 Z M 158.714844 71.867188 L 186.550781 74.804688 L 187.054688 74.410156 L 177.238281 40.789062 L 162.429688 39.679688 Z M 187.972656 75.925781 L 194.914062 82.351562 L 215.480469 52.898438 L 187.582031 74.578125 Z M 52.894531 64.476562 L 82.941406 82.980469 L 83.183594 82.925781 L 74.804688 64.078125 L 52.96875 64.191406 Z M 88.929688 64.003906 L 85.566406 83.195312 L 120.589844 64.210938 L 120.074219 63.835938 Z M 83.699219 82.964844 L 84.804688 84.226562 L 84.703125 83.664062 L 85.054688 83.472656 L 88.464844 64.003906 L 75.300781 64.074219 Z M 53.1875 65.191406 L 65.976562 86.792969 L 82.304688 83.125 Z M 52.890625 65.582031 L 53.648438 89.5625 L 65.511719 86.898438 Z M 195.253906 82.664062 L 206.222656 92.824219 L 218.660156 52.070312 L 218.660156 50.425781 L 216.691406 51.957031 Z M 136.164062 68.070312 L 131.644531 93.503906 L 155.871094 72.96875 Z M 123.375 64.890625 L 130.398438 94.5625 L 131.101562 93.964844 L 135.726562 67.960938 Z M 85.738281 85.292969 L 129.929688 94.957031 L 130.007812 94.890625 L 122.8125 64.496094 L 122.265625 65.425781 L 120.996094 64.507812 L 85.464844 83.769531 L 85.328125 84.558594 L 85.386719 84.890625 Z M 130.519531 95.085938 L 130.886719 95.167969 L 130.976562 94.667969 L 130.515625 95.058594 Z M 131.332031 95.261719 L 131.957031 95.398438 L 163.597656 83.800781 L 157.488281 71.589844 L 144.507812 38.335938 L 141.492188 38.109375 L 136.246094 67.625 L 156.84375 72.746094 L 131.519531 94.207031 Z M 11.464844 97.648438 L 11.570312 99.023438 L 53.195312 89.667969 L 52.417969 65.042969 Z M 10.828125 99.652344 L 11.167969 99.765625 L 11.15625 99.582031 Z M 86.242188 85.867188 L 100.742188 102.425781 L 129.375 95.429688 L 129.492188 95.328125 Z M 206.59375 93.167969 L 218.210938 103.925781 L 218.660156 103.886719 L 218.660156 53.628906 Z M 85.542969 85.761719 L 89.054688 105.285156 L 100.242188 102.546875 Z M 206.445312 93.648438 L 202.890625 105.300781 L 217.601562 103.980469 Z M 164.230469 84.054688 L 175.269531 106.125 L 185.050781 76.421875 Z M 194.988281 83.039062 L 177.882812 107.546875 L 202.398438 105.347656 L 206.074219 93.308594 Z M 66.222656 87.203125 L 78.460938 107.875 L 88.609375 105.390625 L 85.054688 85.609375 L 84.695312 85.53125 L 84.800781 84.914062 L 84.324219 84.363281 L 82.859375 83.464844 Z M 11.636719 99.914062 L 53.949219 113.476562 L 53.210938 90.128906 L 11.605469 99.480469 Z M 101.078125 102.8125 L 111.300781 114.492188 L 130.339844 95.992188 L 130.195312 95.6875 L 130.144531 95.46875 L 130.050781 95.449219 L 129.585938 95.84375 L 129.535156 95.859375 Z M 55.878906 113.859375 L 91.589844 130.941406 L 78.238281 108.394531 Z M 89.132812 105.730469 L 93.773438 131.523438 L 110.976562 114.808594 L 100.578125 102.933594 Z M 92.167969 131.21875 L 93.359375 131.785156 L 88.691406 105.839844 L 78.703125 108.28125 L 92.195312 131.074219 Z M 130.894531 96.089844 L 148.582031 131.8125 L 174.753906 107.691406 L 175.066406 106.738281 L 163.800781 84.210938 L 131.988281 95.871094 L 131.253906 95.710938 L 131.246094 95.746094 Z M 92.03125 131.902344 L 92.59375 132.667969 L 93.105469 132.171875 L 92.078125 131.679688 Z M 175.554688 106.703125 L 176.066406 107.71875 L 191.0625 142.492188 L 202.257812 105.816406 L 176.949219 108.089844 L 194.652344 82.730469 L 187.570312 76.171875 L 187.191406 74.878906 L 186.683594 75.273438 L 186.59375 75.265625 L 158.34375 72.285156 L 164.027344 83.644531 L 185.773438 75.671875 Z M 191.34375 143.136719 L 192.171875 145.0625 L 244.910156 134.460938 L 220.003906 104.222656 L 219.117188 104.300781 L 219.117188 105.382812 L 218.050781 104.394531 L 202.746094 105.773438 Z M 11.671875 100.402344 L 16.183594 160.105469 L 49.3125 157.492188 L 52.898438 114.90625 L 53.351562 114.945312 L 49.785156 157.28125 L 91.511719 132.183594 L 91.652344 131.476562 L 54.535156 113.71875 L 77.996094 107.984375 L 65.757812 87.308594 L 53.664062 90.027344 L 54.425781 114.105469 Z M 111.601562 114.835938 L 151.597656 160.511719 L 146.535156 132.199219 L 190.285156 145.039062 L 190.855469 143.164062 L 175.652344 107.910156 L 175.355469 107.316406 L 175.148438 107.945312 L 175.105469 107.984375 L 148.445312 132.558594 L 130.550781 96.421875 Z M 152.175781 161.175781 L 152.386719 161.414062 L 191.734375 145.199219 L 191.136719 143.808594 L 190.589844 145.605469 L 147.109375 132.84375 Z M 92.953125 132.957031 L 152.011719 162.832031 L 151.75 161.378906 L 111.277344 115.152344 L 93.871094 132.0625 L 93.960938 132.582031 L 93.542969 132.378906 Z M 93.308594 133.648438 L 114.984375 163.289062 L 82.988281 185.886719 L 152.304688 163.875 L 152.367188 163.890625 L 210.9375 177.746094 L 191.9375 145.609375 L 152.3125 161.933594 L 152.617188 163.644531 L 152.210938 163.441406 Z M 91.914062 132.511719 L 81.3125 186.417969 L 81.554688 186.339844 L 114.34375 163.1875 L 92.414062 133.195312 L 92.175781 133.074219 L 92.261719 132.988281 Z M 49.894531 157.75 L 80.160156 186.78125 L 80.816406 186.574219 L 91.394531 132.785156 Z M 80.621094 187.554688 L 80.71875 187.082031 L 80.039062 187.296875 L 79.941406 187.203125 L 49.441406 157.941406 L 15.761719 160.597656 L 11.207031 100.253906 L 9.097656 99.578125 L 11.121094 99.121094 L 10.992188 97.445312 L 52.289062 64.5625 L 52.265625 64.527344 L 51.808594 64.78125 L 51.589844 64.382812 L 52.035156 64.136719 L 51.804688 63.742188 L 52.617188 63.738281 L 60.867188 32.066406 L 59.9375 31.992188 L 59.863281 31.558594 L 60.660156 31.226562 L 60.136719 31.039062 L 61.921875 30.695312 L 112.117188 9.636719 L 111.96875 9.882812 L 163.933594 10.648438 L 165.464844 9.417969 L 165.496094 9.121094 L 165.671875 9.25 L 165.777344 9.167969 L 165.867188 9.390625 L 219.203125 48.359375 L 218.3125 49.632812 L 218.789062 49.75 L 220.171875 48.671875 L 219.117188 52.140625 L 219.117188 103.84375 L 220.203125 103.746094 L 220.277344 103.839844 L 245.742188 134.757812 L 192.394531 145.480469 L 211.871094 178.433594 L 152.324219 164.347656 L 81.757812 186.753906 L 80.621094 187.554688 " fill-opacity="1" fill-rule="nonzero"/><path fill="#ffffff" d="M 186.433594 159.46875 L 211.21875 176.867188 L 218.570312 105.722656 L 191.191406 145.425781 Z M 10.695312 101.082031 L 47.800781 211.710938 L 50.414062 158.847656 Z M 80.148438 188.125 L 48.8125 212.554688 L 122.71875 200.441406 Z M 47.71875 213.410156 L 47.742188 212.957031 L 9.746094 99.6875 L 10.152344 99.488281 L 50.875 158.714844 L 48.222656 212.441406 L 80.050781 187.621094 L 80.164062 187.65625 L 123.664062 200.242188 L 152.320312 162.855469 L 174.234375 194.035156 L 185.894531 159.644531 L 147.199219 132.476562 L 114.390625 163.816406 L 122.269531 64.5625 L 122.722656 64.597656 L 114.941406 162.660156 L 147.152344 131.890625 L 186.042969 159.195312 L 190.800781 145.195312 L 218.699219 104.734375 L 219.113281 104.882812 L 211.59375 177.6875 L 186.28125 159.917969 L 174.378906 195.027344 L 152.304688 163.621094 L 123.835938 200.765625 L 123.734375 200.734375 L 48.0625 213.140625 L 47.71875 213.410156 " fill-opacity="1" fill-rule="nonzero"/><path fill="#ffffff" d="M 155.476562 232.597656 L 123.742188 200.820312 L 95.84375 226.578125 L 80.742188 187.121094 L 81.167969 186.957031 L 96.03125 225.785156 L 123.753906 200.1875 L 123.910156 200.34375 L 155.367188 231.84375 L 175.550781 194.628906 L 114.601562 163.460938 L 49.503906 157.375 L 49.546875 156.921875 L 114.730469 163.015625 L 114.769531 163.035156 L 176.171875 194.4375 L 155.476562 232.597656 " fill-opacity="1" fill-rule="nonzero"/><path fill="#ffffff" d="M 95.242188 224.910156 L 15.832031 161.863281 L 16.058594 161.472656 L 79.097656 186.816406 L 175.820312 194.300781 L 212.863281 177.074219 L 213.054688 177.484375 L 175.902344 194.761719 L 175.84375 194.757812 L 78.996094 187.265625 L 78.960938 187.25 L 17.339844 162.480469 L 95.527344 224.554688 L 95.242188 224.910156 " fill-opacity="1" fill-rule="nonzero"/><path fill="#ffffff" d="M 96.019531 226.980469 L 95.855469 226.558594 L 175.554688 195.039062 L 146.96875 131.078125 L 147.382812 130.894531 L 176.164062 195.289062 L 96.019531 226.980469 " fill-opacity="1" fill-rule="nonzero"/><path fill="#ffffff" d="M 101.847656 115.34375 C 101.847656 117.746094 99.898438 119.695312 97.492188 119.695312 C 95.089844 119.695312 93.136719 117.746094 93.136719 115.34375 C 93.136719 112.941406 95.089844 110.992188 97.492188 110.992188 C 99.898438 110.992188 101.847656 112.941406 101.847656 115.34375 " fill-opacity="1" fill-rule="nonzero"/><path fill="#ffffff" d="M 178.660156 64.582031 C 178.660156 66.984375 176.710938 68.933594 174.304688 68.933594 C 171.902344 68.933594 169.949219 66.984375 169.949219 64.582031 C 169.949219 62.179688 171.902344 60.230469 174.304688 60.230469 C 176.710938 60.230469 178.660156 62.179688 178.660156 64.582031 " fill-opacity="1" fill-rule="nonzero"/><path fill="#ffffff" d="M 50.40625 98.335938 C 50.40625 99.683594 49.316406 100.773438 47.96875 100.773438 C 46.621094 100.773438 45.53125 99.683594 45.53125 98.335938 C 45.53125 96.992188 46.621094 95.902344 47.96875 95.902344 C 49.316406 95.902344 50.40625 96.992188 50.40625 98.335938 " fill-opacity="1" fill-rule="nonzero"/><path fill="#ffffff" d="M 113.628906 55.179688 C 113.628906 58.429688 110.992188 61.066406 107.738281 61.066406 C 104.484375 61.066406 101.847656 58.429688 101.847656 55.179688 C 101.847656 51.929688 104.484375 49.292969 107.738281 49.292969 C 110.992188 49.292969 113.628906 51.929688 113.628906 55.179688 " fill-opacity="1" fill-rule="nonzero"/><path fill="#ffffff" d="M 171.570312 156.152344 C 171.570312 159.402344 168.933594 162.039062 165.679688 162.039062 C 162.425781 162.039062 159.789062 159.402344 159.789062 156.152344 C 159.789062 152.902344 162.425781 150.265625 165.679688 150.265625 C 168.933594 150.265625 171.570312 152.902344 171.570312 156.152344 " fill-opacity="1" fill-rule="nonzero"/><path fill="#ffffff" d="M 56.296875 175.722656 C 56.296875 178.976562 53.660156 181.609375 50.40625 181.609375 C 47.152344 181.609375 44.515625 178.976562 44.515625 175.722656 C 44.515625 172.472656 47.152344 169.835938 50.40625 169.835938 C 53.660156 169.835938 56.296875 172.472656 56.296875 175.722656 " fill-opacity="1" fill-rule="nonzero"/><path fill="#ffffff" d="M 35.789062 55.179688 C 35.789062 57.582031 33.839844 59.53125 31.4375 59.53125 C 29.03125 59.53125 27.082031 57.582031 27.082031 55.179688 C 27.082031 52.777344 29.03125 50.828125 31.4375 50.828125 C 33.839844 50.828125 35.789062 52.777344 35.789062 55.179688 " fill-opacity="1" fill-rule="nonzero"/><path fill="#ffffff" d="M 120.574219 189.46875 C 120.574219 191.871094 118.625 193.820312 116.21875 193.820312 C 113.816406 193.820312 111.863281 191.871094 111.863281 189.46875 C 111.863281 187.0625 113.816406 185.113281 116.21875 185.113281 C 118.625 185.113281 120.574219 187.0625 120.574219 189.46875 " fill-opacity="1" fill-rule="nonzero"/><g clip-path="url(#038fb7e47d)"><path fill="#ffffff" d="M 139.105469 4.617188 C 139.105469 7.019531 137.15625 8.96875 134.75 8.96875 C 132.34375 8.96875 130.394531 7.019531 130.394531 4.617188 C 130.394531 2.214844 132.34375 0.265625 134.75 0.265625 C 137.15625 0.265625 139.105469 2.214844 139.105469 4.617188 " fill-opacity="1" fill-rule="nonzero"/></g><path fill="#ffffff" d="M 91.742188 259.527344 C 91.742188 261.929688 89.789062 263.878906 87.386719 263.878906 C 84.980469 263.878906 83.03125 261.929688 83.03125 259.527344 C 83.03125 257.121094 84.980469 255.171875 87.386719 255.171875 C 89.789062 255.171875 91.742188 257.121094 91.742188 259.527344 " fill-opacity="1" fill-rule="nonzero"/><path fill="#ffffff" d="M 206.316406 105.925781 C 206.316406 108.066406 204.582031 109.800781 202.441406 109.800781 C 200.296875 109.800781 198.5625 108.066406 198.5625 105.925781 C 198.5625 103.785156 200.296875 102.050781 202.441406 102.050781 C 204.582031 102.050781 206.316406 103.785156 206.316406 105.925781 " fill-opacity="1" fill-rule="nonzero"/><path fill="#ffffff" d="M 199.523438 220.277344 C 199.523438 222.679688 197.578125 224.628906 195.167969 224.628906 C 192.765625 224.628906 190.8125 222.679688 190.8125 220.277344 C 190.8125 217.871094 192.765625 215.921875 195.167969 215.921875 C 197.578125 215.921875 199.523438 217.871094 199.523438 220.277344 " fill-opacity="1" fill-rule="nonzero"/><path fill="#ffffff" d="M 89.824219 160.140625 C 89.824219 161.484375 88.730469 162.578125 87.386719 162.578125 C 86.039062 162.578125 84.949219 161.484375 84.949219 160.140625 C 84.949219 158.792969 86.039062 157.707031 87.386719 157.707031 C 88.730469 157.707031 89.824219 158.792969 89.824219 160.140625 " fill-opacity="1" fill-rule="nonzero"/><path fill="#ffffff" d="M 38.226562 147.261719 C 38.226562 148.609375 37.136719 149.699219 35.789062 149.699219 C 34.445312 149.699219 33.355469 148.609375 33.355469 147.261719 C 33.355469 145.917969 34.445312 144.828125 35.789062 144.828125 C 37.136719 144.828125 38.226562 145.917969 38.226562 147.261719 " fill-opacity="1" fill-rule="nonzero"/><path fill="#ffffff" d="M 4.984375 125.695312 C 4.984375 127.039062 3.890625 128.128906 2.546875 128.128906 C 1.199219 128.128906 0.109375 127.039062 0.109375 125.695312 C 0.109375 124.351562 1.199219 123.261719 2.546875 123.261719 C 3.890625 123.261719 4.984375 124.351562 4.984375 125.695312 " fill-opacity="1" fill-rule="nonzero"/><path fill="#ffffff" d="M 77.671875 18.660156 C 77.671875 20.003906 76.582031 21.09375 75.234375 21.09375 C 73.890625 21.09375 72.796875 20.003906 72.796875 18.660156 C 72.796875 17.3125 73.890625 16.222656 75.234375 16.222656 C 76.582031 16.222656 77.671875 17.3125 77.671875 18.660156 " fill-opacity="1" fill-rule="nonzero"/><path fill="#ffffff" d="M 23.277344 204.492188 C 23.277344 205.835938 22.183594 206.925781 20.839844 206.925781 C 19.492188 206.925781 18.402344 205.835938 18.402344 204.492188 C 18.402344 203.148438 19.492188 202.058594 20.839844 202.058594 C 22.183594 202.058594 23.277344 203.148438 23.277344 204.492188 " fill-opacity="1" fill-rule="nonzero"/><path fill="#ffffff" d="M 123.011719 92.167969 C 123.011719 93.511719 121.921875 94.601562 120.574219 94.601562 C 119.230469 94.601562 118.136719 93.511719 118.136719 92.167969 C 118.136719 90.820312 119.230469 89.730469 120.574219 89.730469 C 121.921875 89.730469 123.011719 90.820312 123.011719 92.167969 " fill-opacity="1" fill-rule="nonzero"/><path fill="#ffffff" d="M 130.429688 149.699219 C 130.429688 151.046875 129.335938 152.136719 127.988281 152.136719 C 126.644531 152.136719 125.550781 151.046875 125.550781 149.699219 C 125.550781 148.355469 126.644531 147.261719 127.988281 147.261719 C 129.335938 147.261719 130.429688 148.355469 130.429688 149.699219 " fill-opacity="1" fill-rule="nonzero"/><path fill="#ffffff" d="M 164.917969 39.226562 C 164.917969 40.574219 163.828125 41.664062 162.484375 41.664062 C 161.136719 41.664062 160.042969 40.574219 160.042969 39.226562 C 160.042969 37.882812 161.136719 36.789062 162.484375 36.789062 C 163.828125 36.789062 164.917969 37.882812 164.917969 39.226562 " fill-opacity="1" fill-rule="nonzero"/><path fill="#ffffff" d="M 72.796875 227.734375 C 72.796875 229.082031 71.707031 230.171875 70.359375 230.171875 C 69.011719 230.171875 67.921875 229.082031 67.921875 227.734375 C 67.921875 226.390625 69.011719 225.300781 70.359375 225.300781 C 71.707031 225.300781 72.796875 226.390625 72.796875 227.734375 " fill-opacity="1" fill-rule="nonzero"/><path fill="#ffffff" d="M 132.832031 233.773438 C 132.832031 235.117188 131.742188 236.207031 130.394531 236.207031 C 129.050781 236.207031 127.957031 235.117188 127.957031 233.773438 C 127.957031 232.425781 129.050781 231.335938 130.394531 231.335938 C 131.742188 231.335938 132.832031 232.425781 132.832031 233.773438 " fill-opacity="1" fill-rule="nonzero"/><path fill="#ffffff" d="M 170.0625 259.527344 C 170.0625 260.871094 168.96875 261.960938 167.621094 261.960938 C 166.277344 261.960938 165.183594 260.871094 165.183594 259.527344 C 165.183594 258.183594 166.277344 257.089844 167.621094 257.089844 C 168.96875 257.089844 170.0625 258.183594 170.0625 259.527344 " fill-opacity="1" fill-rule="nonzero"/><path fill="#ffffff" d="M 165.871094 200.503906 C 165.871094 202.375 164.355469 203.890625 162.484375 203.890625 C 160.609375 203.890625 159.089844 202.375 159.089844 200.503906 C 159.089844 198.632812 160.609375 197.113281 162.484375 197.113281 C 164.355469 197.113281 165.871094 198.632812 165.871094 200.503906 " fill-opacity="1" fill-rule="nonzero"/><path fill="#ffffff" d="M 208.753906 157.707031 C 208.753906 159.050781 207.664062 160.140625 206.320312 160.140625 C 204.972656 160.140625 203.878906 159.050781 203.878906 157.707031 C 203.878906 156.359375 204.972656 155.269531 206.320312 155.269531 C 207.664062 155.269531 208.753906 156.359375 208.753906 157.707031 " fill-opacity="1" fill-rule="nonzero"/><path fill="#ffffff" d="M 162.480469 103.984375 C 162.480469 105.328125 161.390625 106.417969 160.042969 106.417969 C 158.699219 106.417969 157.605469 105.328125 157.605469 103.984375 C 157.605469 102.636719 158.699219 101.546875 160.042969 101.546875 C 161.390625 101.546875 162.480469 102.636719 162.480469 103.984375 " fill-opacity="1" fill-rule="nonzero"/><path fill="#ffffff" d="M 215.394531 30.511719 C 215.394531 31.855469 214.304688 32.949219 212.960938 32.949219 C 211.613281 32.949219 210.523438 31.855469 210.523438 30.511719 C 210.523438 29.164062 211.613281 28.078125 212.960938 28.078125 C 214.304688 28.078125 215.394531 29.164062 215.394531 30.511719 " fill-opacity="1" fill-rule="nonzero"/><path fill="#ffffff" d="M 232.429688 196.472656 C 232.429688 197.816406 231.339844 198.910156 229.992188 198.910156 C 228.644531 198.910156 227.554688 197.816406 227.554688 196.472656 C 227.554688 195.125 228.644531 194.035156 229.992188 194.035156 C 231.339844 194.035156 232.429688 195.125 232.429688 196.472656 " fill-opacity="1" fill-rule="nonzero"/><path fill="#ffffff" d="M 264.550781 169.835938 C 264.550781 171.183594 263.460938 172.273438 262.113281 172.273438 C 260.769531 172.273438 259.675781 171.183594 259.675781 169.835938 C 259.675781 168.492188 260.769531 167.402344 262.113281 167.402344 C 263.460938 167.402344 264.550781 168.492188 264.550781 169.835938 " fill-opacity="1" fill-rule="nonzero"/><path fill="#ffffff" d="M 229.992188 231.335938 C 229.992188 232.679688 228.902344 233.773438 227.554688 233.773438 C 226.207031 233.773438 225.117188 232.679688 225.117188 231.335938 C 225.117188 229.992188 226.207031 228.902344 227.554688 228.902344 C 228.902344 228.902344 229.992188 229.992188 229.992188 231.335938 " fill-opacity="1" fill-rule="nonzero"/><path fill="#ffffff" d="M 241.660156 128.128906 C 241.660156 129.476562 240.570312 130.566406 239.222656 130.566406 C 237.878906 130.566406 236.785156 129.476562 236.785156 128.128906 C 236.785156 126.785156 237.878906 125.695312 239.222656 125.695312 C 240.570312 125.695312 241.660156 126.785156 241.660156 128.128906 " fill-opacity="1" fill-rule="nonzero"/><path fill="#ffffff" d="M 264.550781 102.042969 C 264.550781 103.386719 263.460938 104.480469 262.113281 104.480469 C 260.769531 104.480469 259.675781 103.386719 259.675781 102.042969 C 259.675781 100.695312 260.769531 99.605469 262.113281 99.605469 C 263.460938 99.605469 264.550781 100.695312 264.550781 102.042969 " fill-opacity="1" fill-rule="nonzero"/><path fill="#ffffff" d="M 239.222656 73.621094 C 239.222656 74.964844 238.132812 76.058594 236.785156 76.058594 C 235.4375 76.058594 234.347656 74.964844 234.347656 73.621094 C 234.347656 72.273438 235.4375 71.1875 236.785156 71.1875 C 238.132812 71.1875 239.222656 72.273438 239.222656 73.621094 " fill-opacity="1" fill-rule="nonzero"/><path fill="#ffffff" d="M 97.660156 115.5 L 97.328125 115.1875 L 120.472656 90.695312 L 120.804688 91.007812 L 97.660156 115.5 " fill-opacity="1" fill-rule="nonzero"/><path fill="#ffffff" d="M 2.65625 123.457031 L 2.4375 123.0625 L 49.078125 96.992188 L 49.300781 97.386719 L 2.65625 123.457031 " fill-opacity="1" fill-rule="nonzero"/><path fill="#ffffff" d="M 48.140625 98.160156 L 96.53125 114.480469 L 31.988281 55.988281 Z M 97.421875 115.261719 L 47.796875 98.523438 L 47.757812 98.421875 L 31.222656 55.261719 L 31.589844 55.011719 L 97.644531 114.878906 L 97.421875 115.261719 " fill-opacity="1" fill-rule="nonzero"/><path fill="#ffffff" d="M 20.617188 202.109375 L 2.191406 125.195312 L 35.542969 146.832031 L 31.195312 54.949219 L 31.4375 54.953125 L 105.324219 56.476562 L 105.316406 56.929688 L 31.675781 55.414062 L 36.039062 147.695312 L 2.898438 126.195312 L 21.0625 202.003906 L 20.617188 202.109375 " fill-opacity="1" fill-rule="nonzero"/><path fill="#ffffff" d="M 85.851562 259.785156 L 85.75 259.699219 L 20.511719 204.515625 L 47.800781 174.148438 L 48.140625 174.453125 L 21.164062 204.46875 L 85.945312 259.269531 L 194.734375 219.289062 L 194.890625 219.71875 L 85.851562 259.785156 " fill-opacity="1" fill-rule="nonzero"/><path fill="#ffffff" d="M 70.503906 226.359375 L 70.214844 226.003906 L 114.519531 189.847656 L 114.808594 190.199219 L 70.503906 226.359375 " fill-opacity="1" fill-rule="nonzero"/><path fill="#ffffff" d="M 162.6875 200.785156 L 116.167969 189.6875 L 50.359375 175.945312 L 50.453125 175.503906 L 116.265625 189.246094 L 162.273438 200.21875 L 165.453125 156.136719 L 165.90625 156.167969 L 162.6875 200.785156 " fill-opacity="1" fill-rule="nonzero"/><path fill="#ffffff" d="M 115.996094 189.519531 L 98.644531 115.394531 L 99.089844 115.292969 L 116.441406 189.414062 L 115.996094 189.519531 " fill-opacity="1" fill-rule="nonzero"/><path fill="#ffffff" d="M 206.558594 157.945312 L 165.476562 155.484375 L 165.453125 155.292969 L 159.816406 103.121094 L 160.269531 103.070312 L 165.886719 155.054688 L 206.078125 157.464844 L 203.652344 106.429688 L 204.109375 106.410156 L 206.558594 157.945312 " fill-opacity="1" fill-rule="nonzero"/><path fill="#ffffff" d="M 87.304688 259.839844 L 70.164062 230.285156 L 70.554688 230.058594 L 87.46875 259.210938 L 130.398438 233.503906 L 130.515625 233.578125 L 167.742188 256.898438 L 167.503906 257.285156 L 130.394531 234.039062 L 87.304688 259.839844 " fill-opacity="1" fill-rule="nonzero"/><path fill="#ffffff" d="M 130.40625 234.003906 L 130.371094 234 L 70.046875 227.207031 L 70.09375 226.757812 L 130.382812 233.542969 L 194.84375 220.113281 L 165.664062 157.019531 L 166.078125 156.828125 L 195.496094 220.441406 L 195.214844 220.5 L 130.40625 234.003906 " fill-opacity="1" fill-rule="nonzero"/><path fill="#ffffff" d="M 98.113281 115.160156 L 165.808594 156.621094 L 202.222656 105.839844 L 212.691406 30.789062 L 162.703125 39.417969 L 160.265625 103.285156 Z M 48.222656 99.160156 L 50.613281 175.070312 L 75.550781 142.003906 Z M 75.808594 142.414062 L 51.097656 175.1875 L 87.046875 160.035156 Z M 50.199219 176.375 L 47.714844 97.515625 L 75.839844 141.617188 L 95.808594 115.136719 L 95.894531 115.121094 L 159.824219 102.90625 L 162.261719 39.035156 L 213.226562 30.234375 L 202.65625 106.011719 L 202.625 106.058594 L 165.933594 157.230469 L 165.753906 157.121094 L 98.71875 116.066406 L 128.410156 148.898438 L 87.441406 159.476562 L 87.328125 159.039062 L 127.570312 148.644531 L 97.410156 115.292969 L 96.066406 115.550781 L 76.101562 142.027344 L 87.722656 160.246094 L 87.472656 160.351562 L 50.550781 175.910156 L 50.199219 176.375 " fill-opacity="1" fill-rule="nonzero"/><path fill="#ffffff" d="M 167.738281 259.753906 L 89.527344 259.753906 L 89.527344 259.300781 L 167.507812 259.300781 L 196.113281 220.140625 L 196.484375 220.410156 L 167.738281 259.753906 " fill-opacity="1" fill-rule="nonzero"/><path fill="#ffffff" d="M 227.933594 230.683594 L 227.480469 230.652344 L 229.734375 196.925781 L 195.300781 220.464844 L 195.042969 220.085938 L 230.25 196.019531 L 227.933594 230.683594 " fill-opacity="1" fill-rule="nonzero"/><path fill="#ffffff" d="M 229.871094 196.664062 L 165.554688 155.460938 L 165.800781 155.078125 L 229.285156 195.75 L 205.847656 157.371094 L 206.367188 157.484375 L 262.816406 169.613281 L 262.71875 170.058594 L 206.789062 158.039062 L 230.1875 196.355469 L 229.871094 196.664062 " fill-opacity="1" fill-rule="nonzero"/><path fill="#ffffff" d="M 130.417969 234.070312 L 130.261719 233.957031 L 50.894531 176.359375 L 70.773438 228.179688 L 70.261719 227.941406 L 20.570312 204.617188 L 20.617188 204.433594 L 35.628906 146.988281 L 35.847656 147.042969 L 87.441406 159.921875 L 87.332031 160.359375 L 35.953125 147.539062 L 21.105469 204.367188 L 69.945312 227.289062 L 49.921875 175.089844 L 130.375 233.476562 L 162.566406 202.023438 L 127.800781 149.828125 L 128.179688 149.574219 L 163.15625 202.085938 L 130.417969 234.070312 " fill-opacity="1" fill-rule="nonzero"/><path fill="#ffffff" d="M 105.515625 55.292969 L 105.125 55.066406 L 134.289062 4.960938 L 75.285156 18.878906 L 75.179688 18.4375 L 135.210938 4.273438 L 105.515625 55.292969 " fill-opacity="1" fill-rule="nonzero"/><path fill="#ffffff" d="M 135.410156 5.074219 L 162.675781 39.105469 L 162.6875 39.128906 L 174.382812 64.210938 L 212.511719 30.601562 Z M 160.074219 104.203125 L 120.398438 92.351562 L 120.359375 92.242188 L 107.402344 54.902344 L 173.921875 64.296875 L 162.289062 39.347656 L 134.09375 4.160156 L 213.40625 30.417969 L 174.582031 64.640625 L 174.691406 64.867188 L 108.074219 55.457031 L 120.75 91.980469 L 160.207031 103.765625 L 160.074219 104.203125 " fill-opacity="1" fill-rule="nonzero"/><path fill="#ffffff" d="M 108.113281 56.273438 L 107.976562 55.839844 L 161.710938 39.007812 L 161.847656 39.441406 L 108.113281 56.273438 " fill-opacity="1" fill-rule="nonzero"/><path fill="#ffffff" d="M 165.683594 157.054688 L 120.425781 92.351562 L 31.683594 56.265625 L 31.855469 55.847656 L 120.722656 91.980469 L 120.761719 92.035156 L 166.058594 156.792969 L 165.683594 157.054688 " fill-opacity="1" fill-rule="nonzero"/><path fill="#ffffff" d="M 99.089844 115.078125 L 98.640625 115.011719 L 107.515625 55.148438 L 107.964844 55.214844 L 99.089844 115.078125 " fill-opacity="1" fill-rule="nonzero"/><path fill="#ffffff" d="M 160.457031 103.769531 L 201.996094 105.679688 L 174.371094 65.078125 Z M 160.660156 104.234375 L 206.339844 156.601562 L 238.839844 128.164062 L 202.371094 106.152344 Z M 206.296875 157.246094 L 206.148438 157.074219 L 160.160156 104.355469 L 129.667969 148.902344 L 129.292969 148.644531 L 159.851562 104 L 159.617188 103.734375 L 159.980469 103.75 L 174.242188 64.085938 L 202.472656 105.570312 L 236.625 71.90625 L 236.945312 72.230469 L 202.808594 105.882812 L 239.605469 128.097656 L 206.296875 157.246094 " fill-opacity="1" fill-rule="nonzero"/><path fill="#ffffff" d="M 227.753906 231.449219 L 227.355469 231.226562 L 261.34375 170.742188 L 230.285156 195.527344 L 230 195.171875 L 261.972656 169.660156 L 262.3125 169.949219 L 227.753906 231.449219 " fill-opacity="1" fill-rule="nonzero"/><path fill="#ffffff" d="M 202.453125 106.152344 L 202.425781 105.699219 L 262.101562 101.816406 L 262.128906 102.269531 L 202.453125 106.152344 " fill-opacity="1" fill-rule="nonzero"/><path fill="#ffffff" d="M 162.859375 200.164062 L 194.789062 218.382812 L 205.964844 158.367188 Z M 167.636719 259.769531 L 167.550781 259.742188 L 70.089844 227.886719 L 70.136719 227.683594 L 97.152344 115.480469 L 36.101562 147.359375 L 51.277344 175.617188 L 50.875 175.832031 L 35.480469 147.167969 L 97.832031 114.613281 L 70.628906 227.585938 L 167.609375 259.28125 L 226.960938 231.363281 L 194.554688 219.652344 L 194.703125 218.855469 L 162.105469 200.257812 L 162.324219 200.046875 L 206.671875 157.042969 L 195.207031 218.621094 L 196.414062 219.304688 L 196.1875 219.703125 L 195.121094 219.09375 L 195.070312 219.355469 L 228.148438 231.308594 L 167.636719 259.769531 " fill-opacity="1" fill-rule="nonzero"/><path fill="#ffffff" d="M 116.347656 190.332031 L 116.09375 189.957031 L 165.085938 157.175781 L 87.390625 159.484375 L 87.378906 159.03125 L 166.65625 156.671875 L 116.347656 190.332031 " fill-opacity="1" fill-rule="nonzero"/><path fill="#ffffff" d="M 239.449219 128.070312 L 261.886719 168.949219 L 261.886719 102.128906 L 237.042969 74.25 Z M 261.914062 169.945312 L 238.996094 128.195312 L 238.996094 128.140625 L 236.566406 73.820312 L 174.34375 64.816406 L 120.679688 92.367188 L 120.46875 91.964844 L 174.265625 64.347656 L 236.363281 73.332031 L 212.761719 30.621094 L 213.117188 30.347656 L 239.382812 55.894531 L 239.066406 56.21875 L 213.902344 31.746094 L 236.929688 73.414062 L 237.003906 73.421875 L 237.007812 73.53125 L 262.34375 101.957031 L 262.34375 169.835938 L 261.914062 169.945312 " fill-opacity="1" fill-rule="nonzero"/><path fill="#ffffff" d="M 167.921875 260.328125 L 167.4375 259.660156 L 117.046875 189.601562 L 117.417969 189.332031 L 167.324219 258.722656 L 162.253906 200.230469 L 162.707031 200.191406 L 167.921875 260.328125 " fill-opacity="1" fill-rule="nonzero"/><path fill="#ffffff" d="M 98.179688 44.777344 L 49.71875 96.792969 L 107.402344 55.144531 Z M 49.863281 176.027344 L 2.28125 125.746094 L 31.246094 55.042969 L 31.289062 55.007812 L 75.257812 18.34375 L 75.402344 18.507812 L 98.183594 44.105469 L 133.695312 5.988281 L 134.03125 6.296875 L 98.488281 44.445312 L 108.074219 55.21875 L 107.871094 55.363281 L 48.101562 98.523438 L 47.804688 98.183594 L 97.875 44.4375 L 75.210938 18.972656 L 31.625 55.320312 L 2.8125 125.644531 L 50.191406 175.714844 L 49.863281 176.027344 " fill-opacity="1" fill-rule="nonzero"/><path fill="#ffffff" d="M 239.394531 128.28125 L 239.050781 127.980469 L 261.945312 101.890625 L 262.285156 102.191406 L 239.394531 128.28125 " fill-opacity="1" fill-rule="nonzero"/><path fill="#ffffff" d="M 262.484375 170.351562 L 261.988281 170.027344 L 159.664062 103.285156 L 159.914062 102.90625 L 261.746094 169.324219 L 236.585938 73.761719 L 134.621094 4.804688 L 134.796875 4.394531 L 180.113281 14.238281 L 180.015625 14.683594 L 135.855469 5.089844 L 236.984375 73.480469 L 237.003906 73.5625 L 262.484375 170.351562 " fill-opacity="1" fill-rule="nonzero"/><path fill="#ffffff" d="M 240.316406 56.054688 C 240.316406 56.660156 239.828125 57.152344 239.222656 57.152344 C 238.617188 57.152344 238.128906 56.660156 238.128906 56.054688 C 238.128906 55.453125 238.617188 54.960938 239.222656 54.960938 C 239.828125 54.960938 240.316406 55.453125 240.316406 56.054688 " fill-opacity="1" fill-rule="nonzero"/><path fill="#ffffff" d="M 238.355469 73.632812 L 237.898438 73.609375 L 238.996094 54.949219 L 239.449219 54.972656 L 238.355469 73.632812 " fill-opacity="1" fill-rule="nonzero"/><g clip-path="url(#1689b02700)"><path fill="#ffffff" d="M 136.179688 268.839844 C 136.179688 269.628906 135.539062 270.269531 134.75 270.269531 C 133.960938 270.269531 133.320312 269.628906 133.320312 268.839844 C 133.320312 268.050781 133.960938 267.410156 134.75 267.410156 C 135.539062 267.410156 136.179688 268.050781 136.179688 268.839844 " fill-opacity="1" fill-rule="nonzero"/></g><path fill="#ffffff" d="M 47.84375 235.203125 C 47.84375 235.992188 47.203125 236.628906 46.414062 236.628906 C 45.625 236.628906 44.984375 235.992188 44.984375 235.203125 C 44.984375 234.414062 45.625 233.773438 46.414062 233.773438 C 47.203125 233.773438 47.84375 234.414062 47.84375 235.203125 " fill-opacity="1" fill-rule="nonzero"/><path fill="#ffffff" d="M 197.730469 253.746094 C 197.730469 254.535156 197.089844 255.175781 196.296875 255.175781 C 195.507812 255.175781 194.867188 254.535156 194.867188 253.746094 C 194.867188 252.957031 195.507812 252.316406 196.296875 252.316406 C 197.089844 252.316406 197.730469 252.957031 197.730469 253.746094 " fill-opacity="1" fill-rule="nonzero"/><path fill="#ffffff" d="M 46.613281 235.792969 L 20.664062 204.636719 L 21.015625 204.347656 L 46.21875 234.609375 L 49.296875 176.835938 L 49.75 176.859375 L 46.613281 235.792969 " fill-opacity="1" fill-rule="nonzero"/><g clip-path="url(#7cec6f968b)"><path fill="#ffffff" d="M 134.757812 269.074219 L 134.707031 269.0625 L 87.339844 259.75 L 87.429688 259.304688 L 134.742188 268.605469 L 167.558594 259.308594 L 196.066406 253.558594 L 194.941406 220.28125 L 195.398438 220.269531 L 196.53125 253.929688 L 167.667969 259.75 L 134.757812 269.074219 " fill-opacity="1" fill-rule="nonzero"/></g><path fill="#ffffff" d="M 134.523438 268.867188 L 130.808594 234.199219 L 131.261719 234.148438 L 134.976562 268.816406 L 134.523438 268.867188 " fill-opacity="1" fill-rule="nonzero"/><path fill="#ffffff" d="M 116.191406 190.800781 L 98.199219 234.09375 L 130.085938 233.550781 Z M 89.351562 234.699219 L 87.707031 258.152344 L 97.515625 234.558594 Z M 87.59375 259.613281 L 87.15625 259.511719 L 88.894531 234.707031 L 46.417969 235.429688 L 46.410156 234.972656 L 88.925781 234.25 L 97.265625 115.03125 L 97.71875 115.0625 L 89.382812 234.242188 L 97.703125 234.101562 L 116.246094 189.488281 L 130.707031 233.996094 L 98.011719 234.550781 L 87.59375 259.613281 " fill-opacity="1" fill-rule="nonzero"/><path fill="#ffffff" d="M 196.433594 253.929688 L 196.167969 253.558594 L 227.226562 231.292969 L 165.007812 155.414062 L 165.359375 155.125 L 227.882812 231.378906 L 227.6875 231.519531 L 196.433594 253.929688 " fill-opacity="1" fill-rule="nonzero"/><path fill="#ffffff" d="M 250.574219 202.058594 C 250.574219 202.84375 249.933594 203.484375 249.144531 203.484375 C 248.355469 203.484375 247.714844 202.84375 247.714844 202.058594 C 247.714844 201.269531 248.355469 200.628906 249.144531 200.628906 C 249.933594 200.628906 250.574219 201.269531 250.574219 202.058594 " fill-opacity="1" fill-rule="nonzero"/><g clip-path="url(#2002e7e106)"><path fill="#ffffff" d="M 268.382812 132.183594 C 268.382812 132.972656 267.746094 133.613281 266.953125 133.613281 C 266.164062 133.613281 265.527344 132.972656 265.527344 132.183594 C 265.527344 131.394531 266.164062 130.753906 266.953125 130.753906 C 267.746094 130.753906 268.382812 131.394531 268.382812 132.183594 " fill-opacity="1" fill-rule="nonzero"/></g><path fill="#ffffff" d="M 249.222656 202.46875 L 206.152344 157.863281 L 206.480469 157.546875 L 249.0625 201.644531 L 261.890625 169.78125 L 266.648438 132.15625 L 267.101562 132.214844 L 262.335938 169.894531 L 262.324219 169.921875 L 249.222656 202.46875 " fill-opacity="1" fill-rule="nonzero"/><g clip-path="url(#1f3b519f6d)"><path fill="#ffffff" d="M 239.417969 128.386719 L 230.519531 194.253906 L 252.742188 130.238281 Z M 230.207031 196.546875 L 229.765625 196.441406 L 239.027344 127.875 L 252.894531 129.800781 L 262.523438 102.066406 L 239.246094 56.160156 L 239.65625 55.953125 L 263.015625 102.03125 L 262.984375 102.125 L 253.355469 129.867188 L 268.417969 131.960938 L 268.351562 132.410156 L 253.203125 130.304688 L 230.207031 196.546875 " fill-opacity="1" fill-rule="nonzero"/></g><path fill="#ffffff" d="M 227.738281 230.804688 L 227.371094 230.53125 L 248.964844 201.917969 L 249.328125 202.195312 L 227.738281 230.804688 " fill-opacity="1" fill-rule="nonzero"/><path fill="#ffffff" d="M 266.652344 132.214844 L 262.542969 102.082031 L 262.996094 102.019531 L 267.101562 132.152344 L 266.652344 132.214844 " fill-opacity="1" fill-rule="nonzero"/><path fill="#ffffff" d="M 88.292969 259.113281 L 46.300781 235.402344 L 46.527344 235.003906 L 88.515625 258.71875 L 88.292969 259.113281 " fill-opacity="1" fill-rule="nonzero"/><path fill="#ffffff" d="M 181.160156 14.460938 C 181.160156 15.0625 180.667969 15.554688 180.0625 15.554688 C 179.460938 15.554688 178.96875 15.0625 178.96875 14.460938 C 178.96875 13.855469 179.460938 13.367188 180.0625 13.367188 C 180.667969 13.367188 181.160156 13.855469 181.160156 14.460938 " fill-opacity="1" fill-rule="nonzero"/><path fill="#ffffff" d="M 48.992188 99.675781 L 48.5625 99.535156 L 75.097656 18.34375 L 174.117188 64.242188 L 179.875 14.117188 L 213.058594 30.308594 L 212.859375 30.714844 L 180.253906 14.804688 L 174.496094 64.921875 L 174.210938 64.789062 L 75.371094 18.972656 L 48.992188 99.675781 " fill-opacity="1" fill-rule="nonzero"/></svg>