<svg xmlns="http://www.w3.org/2000/svg" xmlns:xlink="http://www.w3.org/1999/xlink" width="54" zoomAndPan="magnify" viewBox="0 0 40.5 40.5" height="54" preserveAspectRatio="xMidYMid meet" version="1.0"><defs><clipPath id="e6044d8bcb"><path d="M 24 23 L 40.007812 23 L 40.007812 40.007812 L 24 40.007812 Z M 24 23 " clip-rule="nonzero"/></clipPath><clipPath id="85bddb2728"><path d="M 14 36 L 23 36 L 23 40.007812 L 14 40.007812 Z M 14 36 " clip-rule="nonzero"/></clipPath><clipPath id="059c38be70"><path d="M 36 5 L 40.007812 5 L 40.007812 28 L 36 28 Z M 36 5 " clip-rule="nonzero"/></clipPath></defs><path fill="#ffffff" d="M 17.0625 33.117188 L 15.425781 32.695312 C 15.636719 31.878906 15.972656 31.117188 16.4375 30.414062 C 16.898438 29.710938 17.464844 29.101562 18.128906 28.585938 C 18.796875 28.074219 19.527344 27.679688 20.324219 27.40625 C 21.121094 27.136719 21.9375 27 22.78125 27 L 23.625 27 C 23.859375 27 24.058594 26.917969 24.222656 26.753906 C 24.386719 26.589844 24.46875 26.390625 24.46875 26.15625 L 24.46875 23.625 L 26.15625 23.625 L 26.15625 26.15625 C 26.15625 26.492188 26.09375 26.816406 25.964844 27.125 C 25.835938 27.433594 25.652344 27.707031 25.414062 27.945312 C 25.175781 28.183594 24.902344 28.367188 24.59375 28.496094 C 24.285156 28.625 23.960938 28.6875 23.625 28.6875 L 22.78125 28.6875 C 22.125 28.6875 21.488281 28.792969 20.871094 29.003906 C 20.25 29.214844 19.679688 29.523438 19.164062 29.921875 C 18.644531 30.324219 18.207031 30.796875 17.847656 31.34375 C 17.488281 31.890625 17.222656 32.480469 17.0625 33.117188 Z M 17.0625 33.117188 " fill-opacity="1" fill-rule="nonzero"/><g clip-path="url(#e6044d8bcb)"><path fill="#ffffff" d="M 39.65625 40.5 L 24.46875 40.5 L 24.46875 38.8125 L 38.8125 38.8125 L 38.8125 34.59375 C 38.8125 34.210938 38.773438 33.828125 38.699219 33.449219 C 38.621094 33.074219 38.511719 32.707031 38.363281 32.351562 C 38.21875 31.996094 38.039062 31.660156 37.824219 31.335938 C 37.613281 31.015625 37.371094 30.71875 37.101562 30.445312 C 36.828125 30.171875 36.535156 29.929688 36.21875 29.710938 C 35.898438 29.496094 35.5625 29.3125 35.210938 29.160156 C 34.855469 29.011719 34.492188 28.894531 34.113281 28.816406 C 33.738281 28.734375 33.359375 28.691406 32.972656 28.6875 L 32.0625 28.6875 C 31.726562 28.6875 31.402344 28.625 31.09375 28.496094 C 30.785156 28.367188 30.511719 28.183594 30.273438 27.945312 C 30.035156 27.707031 29.851562 27.433594 29.722656 27.125 C 29.59375 26.816406 29.53125 26.492188 29.53125 26.15625 L 29.53125 23.625 L 31.21875 23.625 L 31.21875 26.15625 C 31.21875 26.390625 31.300781 26.589844 31.464844 26.753906 C 31.628906 26.917969 31.828125 27 32.0625 27 L 32.992188 27 C 33.484375 27.007812 33.972656 27.0625 34.457031 27.164062 C 34.941406 27.265625 35.410156 27.414062 35.867188 27.609375 C 36.320312 27.804688 36.753906 28.039062 37.164062 28.316406 C 37.570312 28.59375 37.949219 28.910156 38.296875 29.261719 C 38.644531 29.613281 38.957031 29.996094 39.230469 30.40625 C 39.503906 30.820312 39.734375 31.253906 39.921875 31.710938 C 40.113281 32.167969 40.253906 32.640625 40.351562 33.125 C 40.449219 33.609375 40.5 34.097656 40.5 34.59375 L 40.5 39.65625 C 40.5 39.890625 40.417969 40.089844 40.253906 40.253906 C 40.089844 40.417969 39.890625 40.5 39.65625 40.5 Z M 39.65625 40.5 " fill-opacity="1" fill-rule="nonzero"/></g><path fill="#ffffff" d="M 35.4375 15.1875 C 35.109375 15.179688 34.78125 15.148438 34.457031 15.09375 C 33.519531 14.964844 32.664062 14.628906 31.890625 14.085938 C 31.121094 13.539062 30.515625 12.847656 30.082031 12.007812 C 28.863281 13.476562 26.34375 15.015625 21.132812 15.167969 C 20.847656 15.1875 20.546875 15.1875 20.25 15.1875 C 20.015625 15.1875 19.816406 15.105469 19.652344 14.941406 C 19.488281 14.777344 19.40625 14.578125 19.40625 14.34375 L 19.40625 11.8125 C 19.402344 11.097656 19.492188 10.390625 19.667969 9.695312 C 19.847656 9.003906 20.109375 8.34375 20.460938 7.714844 C 20.808594 7.089844 21.230469 6.515625 21.722656 6 C 22.21875 5.480469 22.773438 5.035156 23.382812 4.660156 C 24.054688 4.246094 24.769531 3.933594 25.527344 3.71875 C 26.285156 3.503906 27.058594 3.398438 27.847656 3.398438 C 28.632812 3.398438 29.40625 3.503906 30.164062 3.71875 C 30.921875 3.933594 31.636719 4.246094 32.308594 4.660156 C 32.917969 5.035156 33.472656 5.480469 33.964844 6 C 34.460938 6.519531 34.882812 7.089844 35.230469 7.714844 C 35.578125 8.34375 35.839844 9.003906 36.019531 9.695312 C 36.199219 10.390625 36.285156 11.097656 36.28125 11.8125 L 36.28125 14.34375 C 36.28125 14.578125 36.199219 14.777344 36.035156 14.941406 C 35.871094 15.105469 35.671875 15.1875 35.4375 15.1875 Z M 27.84375 5.0625 C 27.402344 5.0625 26.960938 5.109375 26.527344 5.195312 C 26.09375 5.28125 25.671875 5.410156 25.261719 5.582031 C 24.855469 5.75 24.464844 5.957031 24.097656 6.203125 C 23.730469 6.449219 23.386719 6.730469 23.074219 7.042969 C 22.761719 7.355469 22.480469 7.699219 22.234375 8.066406 C 21.988281 8.433594 21.78125 8.824219 21.613281 9.230469 C 21.441406 9.640625 21.3125 10.0625 21.226562 10.496094 C 21.140625 10.929688 21.09375 11.371094 21.09375 11.8125 L 21.09375 13.484375 C 29.285156 13.238281 29.523438 9.453125 29.53125 9.269531 C 29.53125 9.039062 29.613281 8.839844 29.777344 8.671875 C 29.941406 8.507812 30.140625 8.425781 30.375 8.425781 C 30.609375 8.425781 30.808594 8.507812 30.972656 8.671875 C 31.136719 8.839844 31.21875 9.039062 31.21875 9.269531 C 31.179688 9.765625 31.234375 10.25 31.382812 10.722656 C 31.53125 11.195312 31.765625 11.625 32.078125 12.007812 C 32.394531 12.390625 32.769531 12.703125 33.203125 12.941406 C 33.636719 13.179688 34.101562 13.332031 34.59375 13.390625 L 34.59375 11.8125 C 34.59375 11.371094 34.546875 10.929688 34.460938 10.496094 C 34.375 10.0625 34.246094 9.640625 34.074219 9.230469 C 33.90625 8.824219 33.699219 8.433594 33.453125 8.066406 C 33.203125 7.699219 32.925781 7.355469 32.613281 7.042969 C 32.300781 6.730469 31.957031 6.453125 31.589844 6.203125 C 31.222656 5.957031 30.832031 5.75 30.425781 5.582031 C 30.015625 5.410156 29.59375 5.28125 29.160156 5.195312 C 28.726562 5.109375 28.285156 5.0625 27.84375 5.0625 Z M 27.84375 5.0625 " fill-opacity="1" fill-rule="nonzero"/><path fill="#ffffff" d="M 32.90625 5.0625 L 31.21875 5.0625 C 31.21875 4.613281 31.132812 4.183594 30.960938 3.769531 C 30.789062 3.359375 30.546875 2.992188 30.230469 2.675781 C 29.914062 2.359375 29.546875 2.117188 29.136719 1.945312 C 28.722656 1.773438 28.292969 1.6875 27.84375 1.6875 C 27.394531 1.6875 26.964844 1.773438 26.550781 1.945312 C 26.140625 2.117188 25.773438 2.359375 25.457031 2.675781 C 25.140625 2.992188 24.898438 3.359375 24.726562 3.769531 C 24.554688 4.183594 24.46875 4.613281 24.46875 5.0625 L 22.78125 5.0625 C 22.78125 4.730469 22.8125 4.402344 22.878906 4.074219 C 22.945312 3.75 23.039062 3.433594 23.167969 3.125 C 23.292969 2.816406 23.449219 2.527344 23.632812 2.25 C 23.820312 1.972656 24.027344 1.71875 24.265625 1.484375 C 24.5 1.246094 24.753906 1.039062 25.03125 0.851562 C 25.308594 0.667969 25.597656 0.511719 25.90625 0.386719 C 26.214844 0.257812 26.53125 0.164062 26.855469 0.0976562 C 27.183594 0.03125 27.511719 0 27.84375 0 C 28.175781 0 28.503906 0.03125 28.832031 0.0976562 C 29.15625 0.164062 29.472656 0.257812 29.78125 0.386719 C 30.089844 0.511719 30.378906 0.667969 30.65625 0.851562 C 30.933594 1.039062 31.1875 1.246094 31.421875 1.484375 C 31.660156 1.71875 31.867188 1.972656 32.054688 2.25 C 32.238281 2.527344 32.394531 2.816406 32.519531 3.125 C 32.648438 3.433594 32.742188 3.75 32.808594 4.074219 C 32.875 4.402344 32.90625 4.730469 32.90625 5.0625 Z M 32.90625 5.0625 " fill-opacity="1" fill-rule="nonzero"/><path fill="#ffffff" d="M 35.4375 19.40625 L 34.59375 19.40625 L 34.59375 17.71875 L 35.4375 17.71875 C 35.671875 17.71875 35.871094 17.636719 36.035156 17.472656 C 36.199219 17.308594 36.28125 17.109375 36.28125 16.875 C 36.28125 16.640625 36.199219 16.441406 36.035156 16.277344 C 35.871094 16.113281 35.671875 16.03125 35.4375 16.03125 L 34.59375 16.03125 L 34.59375 14.34375 L 35.4375 14.34375 C 35.773438 14.34375 36.097656 14.40625 36.40625 14.535156 C 36.714844 14.664062 36.988281 14.847656 37.226562 15.085938 C 37.464844 15.324219 37.648438 15.597656 37.777344 15.90625 C 37.90625 16.214844 37.96875 16.539062 37.96875 16.875 C 37.96875 17.210938 37.90625 17.535156 37.777344 17.84375 C 37.648438 18.152344 37.464844 18.425781 37.226562 18.664062 C 36.988281 18.902344 36.714844 19.085938 36.40625 19.214844 C 36.097656 19.34375 35.773438 19.40625 35.4375 19.40625 Z M 35.4375 19.40625 " fill-opacity="1" fill-rule="nonzero"/><path fill="#ffffff" d="M 21.09375 19.40625 L 20.25 19.40625 C 19.914062 19.40625 19.589844 19.34375 19.28125 19.214844 C 18.972656 19.085938 18.699219 18.902344 18.460938 18.664062 C 18.222656 18.425781 18.039062 18.152344 17.910156 17.84375 C 17.78125 17.535156 17.71875 17.210938 17.71875 16.875 C 17.71875 16.539062 17.78125 16.214844 17.910156 15.90625 C 18.039062 15.597656 18.222656 15.324219 18.460938 15.085938 C 18.699219 14.847656 18.972656 14.664062 19.28125 14.535156 C 19.589844 14.40625 19.914062 14.34375 20.25 14.34375 L 21.09375 14.34375 L 21.09375 16.03125 L 20.25 16.03125 C 20.015625 16.03125 19.816406 16.113281 19.652344 16.277344 C 19.488281 16.441406 19.40625 16.640625 19.40625 16.875 C 19.40625 17.109375 19.488281 17.308594 19.652344 17.472656 C 19.816406 17.636719 20.015625 17.71875 20.25 17.71875 L 21.09375 17.71875 Z M 21.09375 19.40625 " fill-opacity="1" fill-rule="nonzero"/><path fill="#ffffff" d="M 27.84375 25.3125 C 27.34375 25.3125 26.851562 25.261719 26.363281 25.164062 C 25.875 25.066406 25.398438 24.921875 24.9375 24.730469 C 24.480469 24.542969 24.042969 24.308594 23.625 24.03125 C 23.210938 23.753906 22.828125 23.4375 22.476562 23.085938 C 22.125 22.734375 21.808594 22.351562 21.53125 21.9375 C 21.253906 21.519531 21.019531 21.082031 20.832031 20.625 C 20.640625 20.164062 20.496094 19.6875 20.398438 19.199219 C 20.300781 18.710938 20.25 18.21875 20.25 17.71875 L 20.25 14.34375 L 21.9375 14.34375 L 21.9375 17.71875 C 21.9375 18.105469 21.976562 18.492188 22.050781 18.871094 C 22.125 19.25 22.238281 19.621094 22.386719 19.980469 C 22.535156 20.335938 22.71875 20.675781 22.933594 21 C 23.148438 21.324219 23.394531 21.621094 23.667969 21.894531 C 23.941406 22.167969 24.238281 22.414062 24.5625 22.628906 C 24.886719 22.84375 25.226562 23.027344 25.582031 23.175781 C 25.941406 23.324219 26.3125 23.4375 26.691406 23.511719 C 27.070312 23.585938 27.457031 23.625 27.84375 23.625 C 28.230469 23.625 28.617188 23.585938 28.996094 23.511719 C 29.375 23.4375 29.746094 23.324219 30.105469 23.175781 C 30.460938 23.027344 30.800781 22.84375 31.125 22.628906 C 31.449219 22.414062 31.746094 22.167969 32.019531 21.894531 C 32.292969 21.621094 32.539062 21.324219 32.753906 21 C 32.96875 20.675781 33.152344 20.335938 33.300781 19.980469 C 33.449219 19.621094 33.5625 19.25 33.636719 18.871094 C 33.710938 18.492188 33.75 18.105469 33.75 17.71875 L 33.75 14.34375 L 35.4375 14.34375 L 35.4375 17.71875 C 35.4375 18.21875 35.386719 18.710938 35.289062 19.199219 C 35.191406 19.6875 35.046875 20.164062 34.855469 20.625 C 34.667969 21.082031 34.433594 21.519531 34.15625 21.9375 C 33.878906 22.351562 33.5625 22.734375 33.210938 23.085938 C 32.859375 23.4375 32.476562 23.753906 32.0625 24.03125 C 31.644531 24.308594 31.207031 24.542969 30.75 24.730469 C 30.289062 24.921875 29.8125 25.066406 29.324219 25.164062 C 28.835938 25.261719 28.34375 25.3125 27.84375 25.3125 Z M 27.84375 25.3125 " fill-opacity="1" fill-rule="nonzero"/><path fill="#ffffff" d="M 18.558594 38.003906 C 18.476562 38.003906 18.398438 37.992188 18.320312 37.96875 L 6.75 37.96875 C 6.515625 37.96875 6.316406 37.886719 6.152344 37.722656 C 5.988281 37.558594 5.90625 37.359375 5.90625 37.125 L 5.90625 33.75 C 5.90625 33.515625 5.988281 33.316406 6.152344 33.152344 C 6.316406 32.988281 6.515625 32.90625 6.75 32.90625 C 11.457031 32.90625 16.582031 33.976562 18.5625 35.640625 C 20.542969 33.976562 25.667969 32.90625 30.375 32.90625 C 30.609375 32.90625 30.808594 32.988281 30.972656 33.152344 C 31.136719 33.316406 31.21875 33.515625 31.21875 33.75 L 31.21875 37.125 C 31.21875 37.359375 31.136719 37.558594 30.972656 37.722656 C 30.808594 37.886719 30.609375 37.96875 30.375 37.96875 L 18.816406 37.96875 C 18.730469 37.992188 18.644531 38.003906 18.558594 38.003906 Z M 20.742188 36.28125 L 29.53125 36.28125 L 29.53125 34.605469 C 26.496094 34.609375 23.566406 35.167969 20.742188 36.28125 Z M 7.59375 36.28125 L 16.433594 36.28125 C 13.589844 35.171875 10.644531 34.613281 7.59375 34.605469 Z M 7.59375 36.28125 " fill-opacity="1" fill-rule="nonzero"/><g clip-path="url(#85bddb2728)"><path fill="#ffffff" d="M 21.9375 40.5 L 15.1875 40.5 C 14.953125 40.5 14.753906 40.417969 14.589844 40.253906 C 14.425781 40.089844 14.34375 39.890625 14.34375 39.65625 L 14.34375 37.125 C 14.34375 36.890625 14.425781 36.691406 14.589844 36.527344 C 14.753906 36.363281 14.953125 36.28125 15.1875 36.28125 L 21.9375 36.28125 C 22.171875 36.28125 22.371094 36.363281 22.535156 36.527344 C 22.699219 36.691406 22.78125 36.890625 22.78125 37.125 L 22.78125 39.65625 C 22.78125 39.890625 22.699219 40.089844 22.535156 40.253906 C 22.371094 40.417969 22.171875 40.5 21.9375 40.5 Z M 16.03125 38.8125 L 21.09375 38.8125 L 21.09375 37.96875 L 16.03125 37.96875 Z M 16.03125 38.8125 " fill-opacity="1" fill-rule="nonzero"/></g><g clip-path="url(#059c38be70)"><path fill="#ffffff" d="M 40.5 27.84375 L 38.8125 27.84375 L 38.8125 6.75 L 36.28125 6.75 L 36.28125 5.0625 L 39.65625 5.0625 C 39.890625 5.0625 40.089844 5.144531 40.253906 5.308594 C 40.417969 5.472656 40.5 5.671875 40.5 5.90625 Z M 40.5 27.84375 " fill-opacity="1" fill-rule="nonzero"/></g><path fill="#ffffff" d="M 14.34375 31.21875 L 0.84375 31.21875 C 0.609375 31.21875 0.410156 31.136719 0.246094 30.972656 C 0.0820312 30.808594 0 30.609375 0 30.375 L 0 5.90625 C 0 5.671875 0.0820312 5.472656 0.246094 5.308594 C 0.410156 5.144531 0.609375 5.0625 0.84375 5.0625 L 18.5625 5.0625 L 18.5625 6.75 L 1.6875 6.75 L 1.6875 29.53125 L 14.34375 29.53125 Z M 14.34375 31.21875 " fill-opacity="1" fill-rule="nonzero"/><path fill="#ffffff" d="M 3.375 8.4375 L 11.8125 8.4375 L 11.8125 10.125 L 3.375 10.125 Z M 3.375 8.4375 " fill-opacity="1" fill-rule="nonzero"/><path fill="#ffffff" d="M 12.65625 8.4375 L 14.34375 8.4375 L 14.34375 10.125 L 12.65625 10.125 Z M 12.65625 8.4375 " fill-opacity="1" fill-rule="nonzero"/><path fill="#ffffff" d="M 3.375 11.8125 L 5.0625 11.8125 L 5.0625 13.5 L 3.375 13.5 Z M 3.375 11.8125 " fill-opacity="1" fill-rule="nonzero"/><path fill="#ffffff" d="M 5.90625 11.8125 L 14.34375 11.8125 L 14.34375 13.5 L 5.90625 13.5 Z M 5.90625 11.8125 " fill-opacity="1" fill-rule="nonzero"/><path fill="#ffffff" d="M 3.375 15.1875 L 6.75 15.1875 L 6.75 16.875 L 3.375 16.875 Z M 3.375 15.1875 " fill-opacity="1" fill-rule="nonzero"/><path fill="#ffffff" d="M 12.65625 15.1875 L 14.34375 15.1875 L 14.34375 16.875 L 12.65625 16.875 Z M 12.65625 15.1875 " fill-opacity="1" fill-rule="nonzero"/><path fill="#ffffff" d="M 7.59375 15.1875 L 11.8125 15.1875 L 11.8125 16.875 L 7.59375 16.875 Z M 7.59375 15.1875 " fill-opacity="1" fill-rule="nonzero"/></svg>