<svg xmlns="http://www.w3.org/2000/svg" xmlns:xlink="http://www.w3.org/1999/xlink" width="500" zoomAndPan="magnify" viewBox="0 0 375 374.999991" height="500" preserveAspectRatio="xMidYMid meet" version="1.0"><path fill="#000000" d="M 157.96875 306.625 L 142.84375 302.71875 C 143.324219 300.847656 143.882812 299 144.519531 297.175781 C 145.152344 295.347656 145.863281 293.554688 146.644531 291.785156 C 147.429688 290.019531 148.28125 288.289062 149.207031 286.59375 C 150.132812 284.898438 151.128906 283.242188 152.191406 281.628906 C 153.253906 280.015625 154.378906 278.445312 155.570312 276.925781 C 156.761719 275.402344 158.015625 273.933594 159.328125 272.515625 C 160.640625 271.097656 162.011719 269.738281 163.4375 268.433594 C 164.859375 267.128906 166.335938 265.886719 167.867188 264.703125 C 169.394531 263.519531 170.96875 262.402344 172.585938 261.347656 C 174.207031 260.296875 175.867188 259.3125 177.570312 258.394531 C 179.269531 257.480469 181.007812 256.632812 182.777344 255.863281 C 184.550781 255.089844 186.347656 254.390625 188.179688 253.765625 C 190.007812 253.140625 191.859375 252.59375 193.730469 252.121094 C 195.605469 251.652344 197.496094 251.257812 199.402344 250.941406 C 201.308594 250.628906 203.222656 250.390625 205.148438 250.234375 C 207.074219 250.074219 209.003906 250 210.9375 250 L 218.75 250 C 219.261719 250 219.769531 249.949219 220.273438 249.851562 C 220.777344 249.75 221.265625 249.601562 221.738281 249.40625 C 222.214844 249.207031 222.664062 248.96875 223.089844 248.683594 C 223.515625 248.398438 223.910156 248.074219 224.273438 247.710938 C 224.636719 247.347656 224.960938 246.953125 225.246094 246.527344 C 225.53125 246.101562 225.769531 245.652344 225.96875 245.175781 C 226.164062 244.703125 226.3125 244.214844 226.414062 243.710938 C 226.511719 243.207031 226.5625 242.699219 226.5625 242.1875 L 226.5625 218.75 L 242.1875 218.75 L 242.1875 242.1875 C 242.1875 242.957031 242.148438 243.722656 242.074219 244.484375 C 242 245.25 241.886719 246.007812 241.738281 246.761719 C 241.585938 247.511719 241.402344 248.257812 241.179688 248.992188 C 240.957031 249.726562 240.695312 250.449219 240.402344 251.15625 C 240.109375 251.867188 239.78125 252.558594 239.421875 253.234375 C 239.058594 253.914062 238.664062 254.570312 238.238281 255.207031 C 237.8125 255.847656 237.355469 256.460938 236.867188 257.054688 C 236.378906 257.648438 235.867188 258.21875 235.324219 258.761719 C 234.78125 259.304688 234.210938 259.816406 233.617188 260.304688 C 233.023438 260.792969 232.410156 261.25 231.769531 261.675781 C 231.132812 262.101562 230.476562 262.496094 229.796875 262.859375 C 229.121094 263.21875 228.429688 263.546875 227.71875 263.839844 C 227.011719 264.132812 226.289062 264.394531 225.554688 264.617188 C 224.820312 264.839844 224.074219 265.023438 223.324219 265.175781 C 222.570312 265.324219 221.8125 265.4375 221.046875 265.511719 C 220.285156 265.585938 219.519531 265.625 218.75 265.625 L 210.9375 265.625 C 209.433594 265.625 207.933594 265.6875 206.4375 265.808594 C 204.9375 265.933594 203.449219 266.117188 201.964844 266.363281 C 200.484375 266.609375 199.015625 266.914062 197.558594 267.28125 C 196.101562 267.648438 194.660156 268.074219 193.238281 268.5625 C 191.816406 269.046875 190.417969 269.589844 189.039062 270.191406 C 187.660156 270.792969 186.3125 271.449219 184.988281 272.160156 C 183.664062 272.875 182.375 273.640625 181.113281 274.457031 C 179.855469 275.277344 178.628906 276.148438 177.441406 277.066406 C 176.253906 277.988281 175.105469 278.953125 173.996094 279.96875 C 172.886719 280.984375 171.824219 282.039062 170.800781 283.144531 C 169.78125 284.246094 168.804688 285.386719 167.878906 286.570312 C 166.953125 287.753906 166.074219 288.972656 165.246094 290.226562 C 164.421875 291.480469 163.648438 292.769531 162.925781 294.085938 C 162.207031 295.40625 161.539062 296.75 160.929688 298.125 C 160.320312 299.5 159.769531 300.894531 159.273438 302.3125 C 158.78125 303.734375 158.34375 305.171875 157.96875 306.625 Z M 157.96875 306.625 " fill-opacity="1" fill-rule="nonzero"/><path fill="#000000" d="M 367.1875 375 L 226.5625 375 L 226.5625 359.375 L 359.375 359.375 L 359.375 320.3125 C 359.367188 318.535156 359.277344 316.765625 359.097656 314.996094 C 358.921875 313.230469 358.65625 311.472656 358.308594 309.730469 C 357.960938 307.988281 357.527344 306.269531 357.011719 304.570312 C 356.496094 302.867188 355.898438 301.199219 355.222656 299.554688 C 354.542969 297.914062 353.785156 296.308594 352.953125 294.738281 C 352.117188 293.171875 351.210938 291.644531 350.230469 290.164062 C 349.246094 288.683594 348.195312 287.253906 347.074219 285.878906 C 345.953125 284.5 344.769531 283.179688 343.519531 281.914062 C 342.269531 280.652344 340.964844 279.453125 339.597656 278.316406 C 338.234375 277.179688 336.816406 276.109375 335.347656 275.113281 C 333.875 274.113281 332.363281 273.1875 330.804688 272.335938 C 329.246094 271.484375 327.648438 270.710938 326.011719 270.015625 C 324.378906 269.316406 322.714844 268.703125 321.019531 268.167969 C 319.328125 267.632812 317.609375 267.179688 315.871094 266.8125 C 314.132812 266.445312 312.382812 266.160156 310.617188 265.960938 C 308.851562 265.761719 307.082031 265.652344 305.304688 265.625 L 296.875 265.625 C 296.105469 265.625 295.339844 265.585938 294.578125 265.511719 C 293.8125 265.4375 293.054688 265.324219 292.300781 265.175781 C 291.550781 265.023438 290.804688 264.839844 290.070312 264.617188 C 289.335938 264.394531 288.613281 264.132812 287.90625 263.839844 C 287.195312 263.546875 286.503906 263.21875 285.828125 262.859375 C 285.148438 262.496094 284.492188 262.101562 283.855469 261.675781 C 283.214844 261.25 282.601562 260.792969 282.007812 260.304688 C 281.414062 259.816406 280.84375 259.304688 280.300781 258.761719 C 279.757812 258.21875 279.246094 257.648438 278.757812 257.054688 C 278.269531 256.460938 277.8125 255.847656 277.386719 255.207031 C 276.960938 254.570312 276.566406 253.914062 276.203125 253.234375 C 275.84375 252.558594 275.515625 251.867188 275.222656 251.15625 C 274.929688 250.449219 274.667969 249.726562 274.445312 248.992188 C 274.222656 248.257812 274.039062 247.511719 273.886719 246.761719 C 273.738281 246.007812 273.625 245.25 273.550781 244.484375 C 273.476562 243.722656 273.4375 242.957031 273.4375 242.1875 L 273.4375 218.75 L 289.0625 218.75 L 289.0625 242.1875 C 289.0625 242.699219 289.113281 243.207031 289.210938 243.710938 C 289.3125 244.214844 289.460938 244.703125 289.65625 245.175781 C 289.851562 245.652344 290.09375 246.101562 290.378906 246.527344 C 290.664062 246.953125 290.988281 247.347656 291.351562 247.710938 C 291.714844 248.074219 292.109375 248.398438 292.535156 248.683594 C 292.960938 248.96875 293.410156 249.207031 293.886719 249.40625 C 294.359375 249.601562 294.847656 249.75 295.351562 249.851562 C 295.855469 249.949219 296.363281 250 296.875 250 L 305.46875 250 C 306.609375 250.015625 307.75 250.0625 308.890625 250.132812 C 310.027344 250.207031 311.164062 250.304688 312.300781 250.433594 C 313.433594 250.558594 314.566406 250.714844 315.691406 250.894531 C 316.820312 251.078125 317.941406 251.289062 319.058594 251.523438 C 320.175781 251.761719 321.285156 252.023438 322.390625 252.3125 C 323.492188 252.605469 324.589844 252.921875 325.679688 253.265625 C 326.765625 253.609375 327.847656 253.976562 328.917969 254.375 C 329.988281 254.769531 331.046875 255.191406 332.097656 255.640625 C 333.148438 256.085938 334.1875 256.558594 335.214844 257.058594 C 336.242188 257.554688 337.253906 258.078125 338.257812 258.625 C 339.257812 259.171875 340.246094 259.742188 341.222656 260.339844 C 342.195312 260.933594 343.15625 261.550781 344.097656 262.195312 C 345.042969 262.835938 345.972656 263.5 346.882812 264.1875 C 347.796875 264.871094 348.691406 265.582031 349.566406 266.3125 C 350.445312 267.042969 351.304688 267.792969 352.144531 268.5625 C 352.988281 269.335938 353.808594 270.128906 354.609375 270.9375 C 355.414062 271.75 356.195312 272.582031 356.957031 273.429688 C 357.722656 274.28125 358.460938 275.148438 359.183594 276.035156 C 359.902344 276.917969 360.601562 277.824219 361.277344 278.742188 C 361.953125 279.660156 362.609375 280.597656 363.238281 281.546875 C 363.871094 282.5 364.476562 283.464844 365.0625 284.445312 C 365.644531 285.425781 366.207031 286.421875 366.742188 287.429688 C 367.277344 288.4375 367.789062 289.457031 368.273438 290.488281 C 368.761719 291.523438 369.222656 292.566406 369.65625 293.621094 C 370.09375 294.675781 370.503906 295.742188 370.886719 296.816406 C 371.273438 297.890625 371.628906 298.976562 371.960938 300.066406 C 372.292969 301.160156 372.597656 302.261719 372.875 303.367188 C 373.152344 304.476562 373.402344 305.585938 373.628906 306.707031 C 373.851562 307.828125 374.050781 308.949219 374.21875 310.078125 C 374.386719 311.207031 374.53125 312.339844 374.644531 313.476562 C 374.757812 314.613281 374.847656 315.75 374.90625 316.890625 C 374.964844 318.03125 374.996094 319.171875 375 320.3125 L 375 367.1875 C 375 367.699219 374.949219 368.207031 374.851562 368.710938 C 374.75 369.214844 374.601562 369.703125 374.40625 370.175781 C 374.207031 370.652344 373.96875 371.101562 373.683594 371.527344 C 373.398438 371.953125 373.074219 372.347656 372.710938 372.710938 C 372.347656 373.074219 371.953125 373.398438 371.527344 373.683594 C 371.101562 373.96875 370.652344 374.207031 370.175781 374.40625 C 369.703125 374.601562 369.214844 374.75 368.710938 374.851562 C 368.207031 374.949219 367.699219 375 367.1875 375 Z M 367.1875 375 " fill-opacity="1" fill-rule="nonzero"/><path fill="#000000" d="M 328.125 140.625 C 325.070312 140.5625 322.039062 140.269531 319.03125 139.742188 C 316.902344 139.453125 314.800781 139.035156 312.71875 138.492188 C 310.640625 137.953125 308.601562 137.289062 306.601562 136.5 C 304.605469 135.714844 302.660156 134.8125 300.765625 133.792969 C 298.875 132.773438 297.050781 131.644531 295.296875 130.410156 C 293.539062 129.171875 291.863281 127.832031 290.269531 126.394531 C 288.671875 124.957031 287.167969 123.429688 285.753906 121.808594 C 284.34375 120.191406 283.03125 118.496094 281.820312 116.71875 C 280.613281 114.945312 279.511719 113.101562 278.523438 111.195312 C 267.25 124.789062 243.929688 139.039062 195.65625 140.460938 C 193.046875 140.625 190.265625 140.625 187.5 140.625 C 186.988281 140.625 186.480469 140.574219 185.976562 140.476562 C 185.472656 140.375 184.984375 140.226562 184.511719 140.03125 C 184.035156 139.835938 183.585938 139.59375 183.160156 139.308594 C 182.734375 139.023438 182.339844 138.699219 181.976562 138.335938 C 181.613281 137.972656 181.289062 137.578125 181.003906 137.152344 C 180.71875 136.726562 180.476562 136.277344 180.28125 135.800781 C 180.085938 135.328125 179.9375 134.839844 179.835938 134.335938 C 179.738281 133.832031 179.6875 133.324219 179.6875 132.8125 L 179.6875 109.375 C 179.671875 106.070312 179.871094 102.777344 180.277344 99.5 C 180.683594 96.21875 181.300781 92.980469 182.121094 89.78125 C 182.945312 86.578125 183.96875 83.445312 185.191406 80.375 C 186.417969 77.304688 187.832031 74.328125 189.4375 71.4375 C 191.042969 68.550781 192.824219 65.777344 194.785156 63.117188 C 196.746094 60.457031 198.867188 57.933594 201.152344 55.546875 C 203.4375 53.15625 205.863281 50.925781 208.433594 48.847656 C 211.003906 46.769531 213.695312 44.867188 216.507812 43.132812 C 218.054688 42.183594 219.628906 41.292969 221.234375 40.453125 C 222.84375 39.613281 224.476562 38.832031 226.136719 38.101562 C 227.796875 37.375 229.480469 36.707031 231.1875 36.097656 C 232.894531 35.484375 234.621094 34.933594 236.363281 34.441406 C 238.109375 33.949219 239.867188 33.515625 241.644531 33.144531 C 243.417969 32.773438 245.203125 32.464844 246.996094 32.214844 C 248.792969 31.96875 250.59375 31.78125 252.402344 31.65625 C 254.210938 31.53125 256.023438 31.46875 257.835938 31.46875 C 259.648438 31.46875 261.460938 31.53125 263.269531 31.65625 C 265.074219 31.78125 266.878906 31.96875 268.671875 32.214844 C 270.46875 32.464844 272.253906 32.773438 274.027344 33.144531 C 275.804688 33.515625 277.5625 33.949219 279.308594 34.441406 C 281.050781 34.933594 282.777344 35.484375 284.484375 36.097656 C 286.191406 36.707031 287.875 37.375 289.535156 38.101562 C 291.195312 38.832031 292.828125 39.613281 294.4375 40.453125 C 296.042969 41.292969 297.617188 42.183594 299.164062 43.132812 C 301.976562 44.867188 304.664062 46.773438 307.234375 48.851562 C 309.800781 50.929688 312.226562 53.164062 314.507812 55.550781 C 316.789062 57.941406 318.910156 60.464844 320.867188 63.125 C 322.824219 65.785156 324.605469 68.558594 326.210938 71.445312 C 327.8125 74.335938 329.226562 77.3125 330.449219 80.382812 C 331.671875 83.453125 332.691406 86.585938 333.511719 89.785156 C 334.332031 92.984375 334.945312 96.222656 335.351562 99.503906 C 335.757812 102.78125 335.953125 106.070312 335.9375 109.375 L 335.9375 132.8125 C 335.9375 133.324219 335.886719 133.832031 335.789062 134.335938 C 335.6875 134.839844 335.539062 135.328125 335.34375 135.800781 C 335.148438 136.277344 334.90625 136.726562 334.621094 137.152344 C 334.335938 137.578125 334.011719 137.972656 333.648438 138.335938 C 333.285156 138.699219 332.890625 139.023438 332.464844 139.308594 C 332.039062 139.59375 331.589844 139.835938 331.113281 140.03125 C 330.640625 140.226562 330.152344 140.375 329.648438 140.476562 C 329.144531 140.574219 328.636719 140.625 328.125 140.625 Z M 257.8125 46.875 C 255.765625 46.878906 253.726562 46.984375 251.691406 47.1875 C 249.65625 47.394531 247.636719 47.695312 245.628906 48.097656 C 243.625 48.5 241.640625 49 239.683594 49.597656 C 237.730469 50.195312 235.804688 50.886719 233.917969 51.671875 C 232.027344 52.453125 230.179688 53.332031 228.378906 54.296875 C 226.574219 55.261719 224.824219 56.3125 223.121094 57.453125 C 221.421875 58.589844 219.78125 59.804688 218.199219 61.105469 C 216.621094 62.402344 215.105469 63.773438 213.660156 65.222656 C 212.210938 66.667969 210.839844 68.183594 209.542969 69.761719 C 208.242188 71.34375 207.027344 72.984375 205.890625 74.683594 C 204.75 76.386719 203.699219 78.136719 202.734375 79.941406 C 201.769531 81.742188 200.890625 83.589844 200.109375 85.480469 C 199.324219 87.367188 198.632812 89.292969 198.035156 91.246094 C 197.4375 93.203125 196.9375 95.1875 196.535156 97.191406 C 196.132812 99.199219 195.832031 101.21875 195.625 103.253906 C 195.421875 105.289062 195.316406 107.328125 195.3125 109.375 L 195.3125 124.84375 C 271.164062 122.5625 273.375 87.546875 273.4375 85.835938 C 273.4375 85.324219 273.488281 84.816406 273.585938 84.3125 C 273.6875 83.808594 273.835938 83.320312 274.03125 82.847656 C 274.226562 82.371094 274.46875 81.921875 274.753906 81.496094 C 275.039062 81.070312 275.363281 80.675781 275.726562 80.3125 C 276.089844 79.949219 276.484375 79.625 276.910156 79.339844 C 277.335938 79.054688 277.785156 78.8125 278.261719 78.617188 C 278.734375 78.421875 279.222656 78.273438 279.726562 78.171875 C 280.230469 78.074219 280.738281 78.023438 281.25 78.023438 C 281.761719 78.023438 282.269531 78.074219 282.773438 78.171875 C 283.277344 78.273438 283.765625 78.421875 284.238281 78.617188 C 284.714844 78.8125 285.164062 79.054688 285.589844 79.339844 C 286.015625 79.625 286.410156 79.949219 286.773438 80.3125 C 287.136719 80.675781 287.460938 81.070312 287.746094 81.496094 C 288.03125 81.921875 288.269531 82.371094 288.46875 82.847656 C 288.664062 83.320312 288.8125 83.808594 288.914062 84.3125 C 289.011719 84.816406 289.0625 85.324219 289.0625 85.835938 C 288.976562 86.96875 288.941406 88.101562 288.960938 89.238281 C 288.984375 90.371094 289.058594 91.503906 289.1875 92.632812 C 289.316406 93.757812 289.496094 94.878906 289.734375 95.988281 C 289.96875 97.101562 290.257812 98.195312 290.597656 99.28125 C 290.9375 100.363281 291.328125 101.425781 291.769531 102.472656 C 292.210938 103.519531 292.703125 104.539062 293.242188 105.539062 C 293.78125 106.539062 294.367188 107.507812 295 108.453125 C 295.632812 109.394531 296.308594 110.304688 297.03125 111.183594 C 297.75 112.0625 298.507812 112.902344 299.308594 113.710938 C 300.109375 114.515625 300.945312 115.28125 301.816406 116.007812 C 302.691406 116.734375 303.597656 117.414062 304.535156 118.054688 C 305.472656 118.695312 306.4375 119.285156 307.433594 119.832031 C 308.429688 120.378906 309.449219 120.878906 310.488281 121.328125 C 311.53125 121.777344 312.59375 122.175781 313.675781 122.527344 C 314.753906 122.875 315.851562 123.167969 316.957031 123.414062 C 318.066406 123.65625 319.183594 123.847656 320.3125 123.984375 L 320.3125 109.375 C 320.308594 107.328125 320.203125 105.289062 320 103.253906 C 319.792969 101.21875 319.488281 99.199219 319.085938 97.191406 C 318.683594 95.1875 318.183594 93.207031 317.589844 91.25 C 316.992188 89.292969 316.300781 87.371094 315.515625 85.480469 C 314.730469 83.589844 313.855469 81.746094 312.890625 79.941406 C 311.921875 78.140625 310.871094 76.386719 309.734375 74.6875 C 308.597656 72.988281 307.378906 71.347656 306.082031 69.765625 C 304.78125 68.183594 303.410156 66.671875 301.964844 65.222656 C 300.515625 63.777344 299.003906 62.40625 297.421875 61.105469 C 295.839844 59.808594 294.199219 58.589844 292.5 57.453125 C 290.800781 56.316406 289.046875 55.265625 287.246094 54.296875 C 285.441406 53.332031 283.597656 52.457031 281.707031 51.671875 C 279.816406 50.886719 277.894531 50.195312 275.9375 49.597656 C 273.980469 49.003906 272 48.503906 269.996094 48.101562 C 267.988281 47.699219 265.96875 47.394531 263.933594 47.1875 C 261.898438 46.984375 259.859375 46.878906 257.8125 46.875 Z M 257.8125 46.875 " fill-opacity="1" fill-rule="nonzero"/><path fill="#000000" d="M 304.6875 46.875 L 289.0625 46.875 C 289.0625 45.851562 289.011719 44.832031 288.910156 43.8125 C 288.8125 42.792969 288.660156 41.78125 288.460938 40.777344 C 288.261719 39.773438 288.015625 38.78125 287.71875 37.804688 C 287.417969 36.824219 287.074219 35.863281 286.683594 34.917969 C 286.292969 33.96875 285.855469 33.046875 285.371094 32.144531 C 284.890625 31.242188 284.363281 30.363281 283.796875 29.511719 C 283.226562 28.664062 282.617188 27.839844 281.96875 27.050781 C 281.320312 26.257812 280.632812 25.5 279.910156 24.777344 C 279.1875 24.054688 278.429688 23.367188 277.636719 22.71875 C 276.847656 22.070312 276.023438 21.460938 275.175781 20.890625 C 274.324219 20.324219 273.445312 19.796875 272.542969 19.316406 C 271.640625 18.832031 270.71875 18.394531 269.769531 18.003906 C 268.824219 17.613281 267.863281 17.269531 266.882812 16.96875 C 265.90625 16.671875 264.914062 16.425781 263.910156 16.226562 C 262.90625 16.027344 261.894531 15.875 260.875 15.777344 C 259.855469 15.675781 258.835938 15.625 257.8125 15.625 C 256.789062 15.625 255.769531 15.675781 254.75 15.777344 C 253.730469 15.875 252.71875 16.027344 251.714844 16.226562 C 250.710938 16.425781 249.71875 16.671875 248.742188 16.96875 C 247.761719 17.269531 246.800781 17.613281 245.855469 18.003906 C 244.90625 18.394531 243.984375 18.832031 243.082031 19.316406 C 242.179688 19.796875 241.300781 20.324219 240.449219 20.890625 C 239.601562 21.460938 238.777344 22.070312 237.988281 22.71875 C 237.195312 23.367188 236.4375 24.054688 235.714844 24.777344 C 234.992188 25.5 234.304688 26.257812 233.65625 27.050781 C 233.007812 27.839844 232.398438 28.664062 231.828125 29.511719 C 231.261719 30.363281 230.734375 31.242188 230.253906 32.144531 C 229.769531 33.046875 229.332031 33.96875 228.941406 34.917969 C 228.550781 35.863281 228.207031 36.824219 227.90625 37.804688 C 227.609375 38.78125 227.363281 39.773438 227.164062 40.777344 C 226.964844 41.78125 226.8125 42.792969 226.714844 43.8125 C 226.613281 44.832031 226.5625 45.851562 226.5625 46.875 L 210.9375 46.875 C 210.9375 45.339844 211.011719 43.808594 211.164062 42.28125 C 211.3125 40.753906 211.539062 39.234375 211.839844 37.730469 C 212.136719 36.222656 212.511719 34.738281 212.957031 33.269531 C 213.402344 31.796875 213.917969 30.355469 214.503906 28.9375 C 215.09375 27.519531 215.75 26.132812 216.472656 24.777344 C 217.195312 23.425781 217.984375 22.109375 218.835938 20.832031 C 219.691406 19.554688 220.605469 18.324219 221.578125 17.136719 C 222.550781 15.949219 223.582031 14.816406 224.667969 13.730469 C 225.753906 12.644531 226.886719 11.613281 228.074219 10.640625 C 229.261719 9.667969 230.492188 8.753906 231.769531 7.898438 C 233.046875 7.046875 234.363281 6.257812 235.714844 5.535156 C 237.070312 4.8125 238.457031 4.15625 239.875 3.566406 C 241.292969 2.980469 242.734375 2.464844 244.207031 2.019531 C 245.675781 1.574219 247.160156 1.199219 248.667969 0.902344 C 250.171875 0.601562 251.691406 0.375 253.21875 0.226562 C 254.746094 0.0742188 256.277344 0 257.8125 0 C 259.347656 0 260.878906 0.0742188 262.40625 0.226562 C 263.933594 0.375 265.453125 0.601562 266.957031 0.902344 C 268.464844 1.199219 269.949219 1.574219 271.417969 2.019531 C 272.890625 2.464844 274.332031 2.980469 275.75 3.566406 C 277.167969 4.15625 278.554688 4.8125 279.910156 5.535156 C 281.261719 6.257812 282.578125 7.046875 283.855469 7.898438 C 285.132812 8.753906 286.363281 9.667969 287.550781 10.640625 C 288.738281 11.613281 289.871094 12.644531 290.957031 13.730469 C 292.042969 14.816406 293.074219 15.949219 294.046875 17.136719 C 295.019531 18.324219 295.933594 19.554688 296.789062 20.832031 C 297.640625 22.109375 298.429688 23.425781 299.152344 24.777344 C 299.875 26.132812 300.53125 27.519531 301.121094 28.9375 C 301.707031 30.355469 302.222656 31.796875 302.667969 33.269531 C 303.113281 34.738281 303.488281 36.222656 303.785156 37.730469 C 304.085938 39.234375 304.3125 40.753906 304.460938 42.28125 C 304.613281 43.808594 304.6875 45.339844 304.6875 46.875 Z M 304.6875 46.875 " fill-opacity="1" fill-rule="nonzero"/><path fill="#000000" d="M 328.125 179.6875 L 320.3125 179.6875 L 320.3125 164.0625 L 328.125 164.0625 C 328.636719 164.0625 329.144531 164.011719 329.648438 163.914062 C 330.152344 163.8125 330.640625 163.664062 331.113281 163.46875 C 331.589844 163.269531 332.039062 163.03125 332.464844 162.746094 C 332.890625 162.460938 333.285156 162.136719 333.648438 161.773438 C 334.011719 161.410156 334.335938 161.015625 334.621094 160.589844 C 334.90625 160.164062 335.148438 159.714844 335.34375 159.238281 C 335.539062 158.765625 335.6875 158.277344 335.789062 157.773438 C 335.886719 157.269531 335.9375 156.761719 335.9375 156.25 C 335.9375 155.738281 335.886719 155.230469 335.789062 154.726562 C 335.6875 154.222656 335.539062 153.734375 335.34375 153.261719 C 335.148438 152.785156 334.90625 152.335938 334.621094 151.910156 C 334.335938 151.484375 334.011719 151.089844 333.648438 150.726562 C 333.285156 150.363281 332.890625 150.039062 332.464844 149.753906 C 332.039062 149.46875 331.589844 149.226562 331.113281 149.03125 C 330.640625 148.835938 330.152344 148.6875 329.648438 148.585938 C 329.144531 148.488281 328.636719 148.4375 328.125 148.4375 L 320.3125 148.4375 L 320.3125 132.8125 L 328.125 132.8125 C 328.894531 132.8125 329.660156 132.851562 330.421875 132.925781 C 331.1875 133 331.945312 133.113281 332.699219 133.261719 C 333.449219 133.414062 334.195312 133.597656 334.929688 133.820312 C 335.664062 134.042969 336.386719 134.304688 337.09375 134.597656 C 337.804688 134.890625 338.496094 135.21875 339.171875 135.578125 C 339.851562 135.941406 340.507812 136.335938 341.144531 136.761719 C 341.785156 137.1875 342.398438 137.644531 342.992188 138.132812 C 343.585938 138.621094 344.15625 139.132812 344.699219 139.675781 C 345.242188 140.21875 345.753906 140.789062 346.242188 141.382812 C 346.730469 141.976562 347.1875 142.589844 347.613281 143.230469 C 348.039062 143.867188 348.433594 144.523438 348.796875 145.203125 C 349.15625 145.878906 349.484375 146.570312 349.777344 147.28125 C 350.070312 147.988281 350.332031 148.710938 350.554688 149.445312 C 350.777344 150.179688 350.960938 150.925781 351.113281 151.675781 C 351.261719 152.429688 351.375 153.1875 351.449219 153.953125 C 351.523438 154.714844 351.5625 155.480469 351.5625 156.25 C 351.5625 157.019531 351.523438 157.785156 351.449219 158.546875 C 351.375 159.3125 351.261719 160.070312 351.113281 160.824219 C 350.960938 161.574219 350.777344 162.320312 350.554688 163.054688 C 350.332031 163.789062 350.070312 164.511719 349.777344 165.21875 C 349.484375 165.929688 349.15625 166.621094 348.796875 167.296875 C 348.433594 167.976562 348.039062 168.632812 347.613281 169.269531 C 347.1875 169.910156 346.730469 170.523438 346.242188 171.117188 C 345.753906 171.710938 345.242188 172.28125 344.699219 172.824219 C 344.15625 173.367188 343.585938 173.878906 342.992188 174.367188 C 342.398438 174.855469 341.785156 175.3125 341.144531 175.738281 C 340.507812 176.164062 339.851562 176.558594 339.171875 176.921875 C 338.496094 177.28125 337.804688 177.609375 337.09375 177.902344 C 336.386719 178.195312 335.664062 178.457031 334.929688 178.679688 C 334.195312 178.902344 333.449219 179.085938 332.699219 179.238281 C 331.945312 179.386719 331.1875 179.5 330.421875 179.574219 C 329.660156 179.648438 328.894531 179.6875 328.125 179.6875 Z M 328.125 179.6875 " fill-opacity="1" fill-rule="nonzero"/><path fill="#000000" d="M 195.3125 179.6875 L 187.5 179.6875 C 186.730469 179.6875 185.964844 179.648438 185.203125 179.574219 C 184.4375 179.5 183.679688 179.386719 182.925781 179.238281 C 182.175781 179.085938 181.429688 178.902344 180.695312 178.679688 C 179.960938 178.457031 179.238281 178.195312 178.53125 177.902344 C 177.820312 177.609375 177.128906 177.28125 176.453125 176.921875 C 175.773438 176.558594 175.117188 176.164062 174.480469 175.738281 C 173.839844 175.3125 173.226562 174.855469 172.632812 174.367188 C 172.039062 173.878906 171.46875 173.367188 170.925781 172.824219 C 170.382812 172.28125 169.871094 171.710938 169.382812 171.117188 C 168.894531 170.523438 168.4375 169.910156 168.011719 169.269531 C 167.585938 168.632812 167.191406 167.976562 166.828125 167.296875 C 166.46875 166.621094 166.140625 165.929688 165.847656 165.21875 C 165.554688 164.511719 165.292969 163.789062 165.070312 163.054688 C 164.847656 162.320312 164.664062 161.574219 164.511719 160.824219 C 164.363281 160.070312 164.25 159.3125 164.175781 158.546875 C 164.101562 157.785156 164.0625 157.019531 164.0625 156.25 C 164.0625 155.480469 164.101562 154.714844 164.175781 153.953125 C 164.25 153.1875 164.363281 152.429688 164.511719 151.675781 C 164.664062 150.925781 164.847656 150.179688 165.070312 149.445312 C 165.292969 148.710938 165.554688 147.988281 165.847656 147.28125 C 166.140625 146.570312 166.46875 145.878906 166.828125 145.203125 C 167.191406 144.523438 167.585938 143.867188 168.011719 143.230469 C 168.4375 142.589844 168.894531 141.976562 169.382812 141.382812 C 169.871094 140.789062 170.382812 140.21875 170.925781 139.675781 C 171.46875 139.132812 172.039062 138.621094 172.632812 138.132812 C 173.226562 137.644531 173.839844 137.1875 174.480469 136.761719 C 175.117188 136.335938 175.773438 135.941406 176.453125 135.578125 C 177.128906 135.21875 177.820312 134.890625 178.53125 134.597656 C 179.238281 134.304688 179.960938 134.042969 180.695312 133.820312 C 181.429688 133.597656 182.175781 133.414062 182.925781 133.261719 C 183.679688 133.113281 184.4375 133 185.203125 132.925781 C 185.964844 132.851562 186.730469 132.8125 187.5 132.8125 L 195.3125 132.8125 L 195.3125 148.4375 L 187.5 148.4375 C 186.988281 148.4375 186.480469 148.488281 185.976562 148.585938 C 185.472656 148.6875 184.984375 148.835938 184.511719 149.03125 C 184.035156 149.226562 183.585938 149.46875 183.160156 149.753906 C 182.734375 150.039062 182.339844 150.363281 181.976562 150.726562 C 181.613281 151.089844 181.289062 151.484375 181.003906 151.910156 C 180.71875 152.335938 180.476562 152.785156 180.28125 153.261719 C 180.085938 153.734375 179.9375 154.222656 179.835938 154.726562 C 179.738281 155.230469 179.6875 155.738281 179.6875 156.25 C 179.6875 156.761719 179.738281 157.269531 179.835938 157.773438 C 179.9375 158.277344 180.085938 158.765625 180.28125 159.238281 C 180.476562 159.714844 180.71875 160.164062 181.003906 160.589844 C 181.289062 161.015625 181.613281 161.410156 181.976562 161.773438 C 182.339844 162.136719 182.734375 162.460938 183.160156 162.746094 C 183.585938 163.03125 184.035156 163.269531 184.511719 163.46875 C 184.984375 163.664062 185.472656 163.8125 185.976562 163.914062 C 186.480469 164.011719 186.988281 164.0625 187.5 164.0625 L 195.3125 164.0625 Z M 195.3125 179.6875 " fill-opacity="1" fill-rule="nonzero"/><path fill="#000000" d="M 257.8125 234.375 C 256.664062 234.375 255.511719 234.34375 254.363281 234.285156 C 253.214844 234.230469 252.066406 234.144531 250.921875 234.03125 C 249.777344 233.914062 248.636719 233.773438 247.5 233.605469 C 246.363281 233.433594 245.230469 233.238281 244.101562 233.011719 C 242.972656 232.785156 241.851562 232.53125 240.734375 232.253906 C 239.621094 231.972656 238.511719 231.664062 237.410156 231.328125 C 236.308594 230.996094 235.21875 230.632812 234.136719 230.246094 C 233.050781 229.855469 231.980469 229.441406 230.917969 229 C 229.855469 228.5625 228.804688 228.09375 227.765625 227.601562 C 226.722656 227.109375 225.695312 226.59375 224.683594 226.050781 C 223.667969 225.507812 222.667969 224.941406 221.683594 224.347656 C 220.695312 223.757812 219.722656 223.140625 218.765625 222.5 C 217.8125 221.863281 216.871094 221.199219 215.945312 220.515625 C 215.023438 219.828125 214.117188 219.121094 213.226562 218.390625 C 212.339844 217.660156 211.46875 216.910156 210.617188 216.136719 C 209.761719 215.363281 208.929688 214.570312 208.117188 213.757812 C 207.304688 212.945312 206.511719 212.113281 205.738281 211.257812 C 204.964844 210.40625 204.214844 209.535156 203.484375 208.648438 C 202.753906 207.757812 202.046875 206.851562 201.359375 205.929688 C 200.675781 205.003906 200.011719 204.0625 199.375 203.109375 C 198.734375 202.152344 198.117188 201.179688 197.527344 200.195312 C 196.933594 199.207031 196.367188 198.207031 195.824219 197.191406 C 195.28125 196.179688 194.765625 195.152344 194.273438 194.109375 C 193.78125 193.070312 193.3125 192.019531 192.875 190.957031 C 192.433594 189.894531 192.019531 188.824219 191.628906 187.738281 C 191.242188 186.65625 190.878906 185.566406 190.546875 184.464844 C 190.210938 183.363281 189.902344 182.253906 189.621094 181.140625 C 189.34375 180.023438 189.089844 178.902344 188.863281 177.773438 C 188.636719 176.644531 188.441406 175.511719 188.269531 174.375 C 188.101562 173.238281 187.960938 172.097656 187.84375 170.953125 C 187.730469 169.808594 187.644531 168.660156 187.589844 167.511719 C 187.53125 166.363281 187.5 165.210938 187.5 164.0625 L 187.5 132.8125 L 203.125 132.8125 L 203.125 164.0625 C 203.125 165.855469 203.210938 167.640625 203.386719 169.421875 C 203.5625 171.207031 203.828125 172.976562 204.175781 174.730469 C 204.523438 176.488281 204.960938 178.222656 205.480469 179.9375 C 206 181.652344 206.601562 183.335938 207.289062 184.992188 C 207.972656 186.644531 208.738281 188.261719 209.582031 189.84375 C 210.425781 191.421875 211.347656 192.957031 212.339844 194.445312 C 213.335938 195.933594 214.402344 197.371094 215.539062 198.757812 C 216.675781 200.140625 217.875 201.464844 219.144531 202.730469 C 220.410156 204 221.734375 205.199219 223.117188 206.335938 C 224.503906 207.472656 225.941406 208.539062 227.429688 209.535156 C 228.917969 210.527344 230.453125 211.449219 232.03125 212.292969 C 233.613281 213.136719 235.230469 213.902344 236.882812 214.585938 C 238.539062 215.273438 240.222656 215.875 241.9375 216.394531 C 243.652344 216.914062 245.386719 217.351562 247.144531 217.699219 C 248.898438 218.046875 250.667969 218.3125 252.453125 218.488281 C 254.234375 218.664062 256.019531 218.75 257.8125 218.75 C 259.605469 218.75 261.390625 218.664062 263.171875 218.488281 C 264.957031 218.3125 266.726562 218.046875 268.480469 217.699219 C 270.238281 217.351562 271.972656 216.914062 273.6875 216.394531 C 275.402344 215.875 277.085938 215.273438 278.742188 214.585938 C 280.394531 213.902344 282.011719 213.136719 283.59375 212.292969 C 285.171875 211.449219 286.707031 210.527344 288.195312 209.535156 C 289.683594 208.539062 291.121094 207.472656 292.507812 206.335938 C 293.890625 205.199219 295.214844 204 296.480469 202.730469 C 297.75 201.464844 298.949219 200.140625 300.085938 198.757812 C 301.222656 197.371094 302.289062 195.933594 303.285156 194.445312 C 304.277344 192.957031 305.199219 191.421875 306.042969 189.84375 C 306.886719 188.261719 307.652344 186.644531 308.335938 184.992188 C 309.023438 183.335938 309.625 181.652344 310.144531 179.9375 C 310.664062 178.222656 311.101562 176.488281 311.449219 174.730469 C 311.796875 172.976562 312.0625 171.207031 312.238281 169.421875 C 312.414062 167.640625 312.5 165.855469 312.5 164.0625 L 312.5 132.8125 L 328.125 132.8125 L 328.125 164.0625 C 328.125 165.210938 328.09375 166.363281 328.035156 167.511719 C 327.980469 168.660156 327.894531 169.808594 327.78125 170.953125 C 327.664062 172.097656 327.523438 173.238281 327.355469 174.375 C 327.183594 175.511719 326.988281 176.644531 326.761719 177.773438 C 326.535156 178.902344 326.28125 180.023438 326.003906 181.140625 C 325.722656 182.253906 325.414062 183.363281 325.078125 184.464844 C 324.746094 185.566406 324.382812 186.65625 323.996094 187.738281 C 323.605469 188.824219 323.191406 189.894531 322.75 190.957031 C 322.3125 192.019531 321.84375 193.070312 321.351562 194.109375 C 320.859375 195.152344 320.34375 196.179688 319.800781 197.191406 C 319.257812 198.207031 318.691406 199.207031 318.097656 200.195312 C 317.507812 201.179688 316.890625 202.152344 316.25 203.109375 C 315.613281 204.0625 314.949219 205.003906 314.265625 205.929688 C 313.578125 206.851562 312.871094 207.757812 312.140625 208.648438 C 311.410156 209.535156 310.660156 210.40625 309.886719 211.257812 C 309.113281 212.113281 308.320312 212.945312 307.507812 213.757812 C 306.695312 214.570312 305.863281 215.363281 305.007812 216.136719 C 304.15625 216.910156 303.285156 217.660156 302.398438 218.390625 C 301.507812 219.121094 300.601562 219.828125 299.679688 220.515625 C 298.753906 221.199219 297.8125 221.863281 296.859375 222.5 C 295.902344 223.140625 294.929688 223.757812 293.941406 224.347656 C 292.957031 224.941406 291.957031 225.507812 290.941406 226.050781 C 289.929688 226.59375 288.902344 227.109375 287.859375 227.601562 C 286.820312 228.09375 285.769531 228.5625 284.707031 229 C 283.644531 229.441406 282.574219 229.855469 281.488281 230.246094 C 280.40625 230.632812 279.316406 230.996094 278.214844 231.328125 C 277.113281 231.664062 276.003906 231.972656 274.890625 232.253906 C 273.773438 232.53125 272.652344 232.785156 271.523438 233.011719 C 270.394531 233.238281 269.261719 233.433594 268.125 233.605469 C 266.988281 233.773438 265.847656 233.914062 264.703125 234.03125 C 263.558594 234.144531 262.410156 234.230469 261.261719 234.285156 C 260.113281 234.34375 258.960938 234.375 257.8125 234.375 Z M 257.8125 234.375 " fill-opacity="1" fill-rule="nonzero"/><path fill="#000000" d="M 171.828125 351.898438 C 171.085938 351.894531 170.359375 351.78125 169.648438 351.5625 L 62.5 351.5625 C 61.988281 351.5625 61.480469 351.511719 60.976562 351.414062 C 60.472656 351.3125 59.984375 351.164062 59.511719 350.96875 C 59.035156 350.773438 58.585938 350.53125 58.160156 350.246094 C 57.734375 349.960938 57.339844 349.636719 56.976562 349.273438 C 56.613281 348.910156 56.289062 348.515625 56.003906 348.089844 C 55.71875 347.664062 55.476562 347.214844 55.28125 346.738281 C 55.085938 346.265625 54.9375 345.777344 54.835938 345.273438 C 54.738281 344.769531 54.6875 344.261719 54.6875 343.75 L 54.6875 312.5 C 54.6875 311.988281 54.738281 311.480469 54.835938 310.976562 C 54.9375 310.472656 55.085938 309.984375 55.28125 309.511719 C 55.476562 309.035156 55.71875 308.585938 56.003906 308.160156 C 56.289062 307.734375 56.613281 307.339844 56.976562 306.976562 C 57.339844 306.613281 57.734375 306.289062 58.160156 306.003906 C 58.585938 305.71875 59.035156 305.476562 59.511719 305.28125 C 59.984375 305.085938 60.472656 304.9375 60.976562 304.835938 C 61.480469 304.738281 61.988281 304.6875 62.5 304.6875 C 106.070312 304.6875 153.554688 314.601562 171.875 330.023438 C 190.195312 314.601562 237.679688 304.6875 281.25 304.6875 C 281.761719 304.6875 282.269531 304.738281 282.773438 304.835938 C 283.277344 304.9375 283.765625 305.085938 284.238281 305.28125 C 284.714844 305.476562 285.164062 305.71875 285.589844 306.003906 C 286.015625 306.289062 286.410156 306.613281 286.773438 306.976562 C 287.136719 307.339844 287.460938 307.734375 287.746094 308.160156 C 288.03125 308.585938 288.269531 309.035156 288.46875 309.511719 C 288.664062 309.984375 288.8125 310.472656 288.914062 310.976562 C 289.011719 311.480469 289.0625 311.988281 289.0625 312.5 L 289.0625 343.75 C 289.0625 344.261719 289.011719 344.769531 288.914062 345.273438 C 288.8125 345.777344 288.664062 346.265625 288.46875 346.738281 C 288.269531 347.214844 288.03125 347.664062 287.746094 348.089844 C 287.460938 348.515625 287.136719 348.910156 286.773438 349.273438 C 286.410156 349.636719 286.015625 349.960938 285.589844 350.246094 C 285.164062 350.53125 284.714844 350.769531 284.238281 350.96875 C 283.765625 351.164062 283.277344 351.3125 282.773438 351.414062 C 282.269531 351.511719 281.761719 351.5625 281.25 351.5625 L 174.21875 351.5625 C 173.4375 351.789062 172.640625 351.902344 171.828125 351.898438 Z M 192.054688 335.9375 L 273.4375 335.9375 L 273.4375 320.414062 C 259.507812 320.441406 245.703125 321.761719 232.019531 324.371094 C 218.339844 326.980469 205.015625 330.835938 192.054688 335.9375 Z M 70.3125 335.9375 L 152.171875 335.9375 C 139.121094 330.855469 125.71875 327.007812 111.957031 324.398438 C 98.199219 321.789062 84.316406 320.460938 70.3125 320.414062 Z M 70.3125 335.9375 " fill-opacity="1" fill-rule="nonzero"/><path fill="#000000" d="M 203.125 375 L 140.625 375 C 140.113281 375 139.605469 374.949219 139.101562 374.851562 C 138.597656 374.75 138.109375 374.601562 137.636719 374.40625 C 137.160156 374.207031 136.710938 373.96875 136.285156 373.683594 C 135.859375 373.398438 135.464844 373.074219 135.101562 372.710938 C 134.738281 372.347656 134.414062 371.953125 134.128906 371.527344 C 133.84375 371.101562 133.601562 370.652344 133.40625 370.175781 C 133.210938 369.703125 133.0625 369.214844 132.960938 368.710938 C 132.863281 368.207031 132.8125 367.699219 132.8125 367.1875 L 132.8125 343.75 C 132.8125 343.238281 132.863281 342.730469 132.960938 342.226562 C 133.0625 341.722656 133.210938 341.234375 133.40625 340.761719 C 133.601562 340.285156 133.84375 339.835938 134.128906 339.410156 C 134.414062 338.984375 134.738281 338.589844 135.101562 338.226562 C 135.464844 337.863281 135.859375 337.539062 136.285156 337.253906 C 136.710938 336.96875 137.160156 336.726562 137.636719 336.53125 C 138.109375 336.335938 138.597656 336.1875 139.101562 336.085938 C 139.605469 335.988281 140.113281 335.9375 140.625 335.9375 L 203.125 335.9375 C 203.636719 335.9375 204.144531 335.988281 204.648438 336.085938 C 205.152344 336.1875 205.640625 336.335938 206.113281 336.53125 C 206.589844 336.726562 207.039062 336.96875 207.464844 337.253906 C 207.890625 337.539062 208.285156 337.863281 208.648438 338.226562 C 209.011719 338.589844 209.335938 338.984375 209.621094 339.410156 C 209.90625 339.835938 210.144531 340.285156 210.34375 340.761719 C 210.539062 341.234375 210.6875 341.722656 210.789062 342.226562 C 210.886719 342.730469 210.9375 343.238281 210.9375 343.75 L 210.9375 367.1875 C 210.9375 367.699219 210.886719 368.207031 210.789062 368.710938 C 210.6875 369.214844 210.539062 369.703125 210.34375 370.175781 C 210.144531 370.652344 209.90625 371.101562 209.621094 371.527344 C 209.335938 371.953125 209.011719 372.347656 208.648438 372.710938 C 208.285156 373.074219 207.890625 373.398438 207.464844 373.683594 C 207.039062 373.96875 206.589844 374.207031 206.113281 374.40625 C 205.640625 374.601562 205.152344 374.75 204.648438 374.851562 C 204.144531 374.949219 203.636719 375 203.125 375 Z M 148.4375 359.375 L 195.3125 359.375 L 195.3125 351.5625 L 148.4375 351.5625 Z M 148.4375 359.375 " fill-opacity="1" fill-rule="nonzero"/><path fill="#000000" d="M 375 257.8125 L 359.375 257.8125 L 359.375 62.5 L 335.9375 62.5 L 335.9375 46.875 L 367.1875 46.875 C 367.699219 46.875 368.207031 46.925781 368.710938 47.023438 C 369.214844 47.125 369.703125 47.273438 370.175781 47.46875 C 370.652344 47.664062 371.101562 47.90625 371.527344 48.191406 C 371.953125 48.476562 372.347656 48.800781 372.710938 49.164062 C 373.074219 49.527344 373.398438 49.921875 373.683594 50.347656 C 373.96875 50.773438 374.207031 51.222656 374.40625 51.699219 C 374.601562 52.171875 374.75 52.660156 374.851562 53.164062 C 374.949219 53.667969 375 54.175781 375 54.6875 Z M 375 257.8125 " fill-opacity="1" fill-rule="nonzero"/><path fill="#000000" d="M 132.8125 289.0625 L 7.8125 289.0625 C 7.300781 289.0625 6.792969 289.011719 6.289062 288.914062 C 5.785156 288.8125 5.296875 288.664062 4.824219 288.46875 C 4.347656 288.269531 3.898438 288.03125 3.472656 287.746094 C 3.046875 287.460938 2.652344 287.136719 2.289062 286.773438 C 1.925781 286.410156 1.601562 286.015625 1.316406 285.589844 C 1.03125 285.164062 0.789062 284.714844 0.59375 284.238281 C 0.398438 283.765625 0.25 283.277344 0.148438 282.773438 C 0.0507812 282.269531 0 281.761719 0 281.25 L 0 54.6875 C 0 54.175781 0.0507812 53.667969 0.148438 53.164062 C 0.25 52.660156 0.398438 52.171875 0.59375 51.699219 C 0.789062 51.222656 1.03125 50.773438 1.316406 50.347656 C 1.601562 49.921875 1.925781 49.527344 2.289062 49.164062 C 2.652344 48.800781 3.046875 48.476562 3.472656 48.191406 C 3.898438 47.90625 4.347656 47.664062 4.824219 47.46875 C 5.296875 47.273438 5.785156 47.125 6.289062 47.023438 C 6.792969 46.925781 7.300781 46.875 7.8125 46.875 L 171.875 46.875 L 171.875 62.5 L 15.625 62.5 L 15.625 273.4375 L 132.8125 273.4375 Z M 132.8125 289.0625 " fill-opacity="1" fill-rule="nonzero"/><path fill="#000000" d="M 31.25 78.125 L 109.375 78.125 L 109.375 93.75 L 31.25 93.75 Z M 31.25 78.125 " fill-opacity="1" fill-rule="nonzero"/><path fill="#000000" d="M 117.1875 78.125 L 132.8125 78.125 L 132.8125 93.75 L 117.1875 93.75 Z M 117.1875 78.125 " fill-opacity="1" fill-rule="nonzero"/><path fill="#000000" d="M 31.25 109.375 L 46.875 109.375 L 46.875 125 L 31.25 125 Z M 31.25 109.375 " fill-opacity="1" fill-rule="nonzero"/><path fill="#000000" d="M 54.6875 109.375 L 132.8125 109.375 L 132.8125 125 L 54.6875 125 Z M 54.6875 109.375 " fill-opacity="1" fill-rule="nonzero"/><path fill="#000000" d="M 31.25 140.625 L 62.5 140.625 L 62.5 156.25 L 31.25 156.25 Z M 31.25 140.625 " fill-opacity="1" fill-rule="nonzero"/><path fill="#000000" d="M 117.1875 140.625 L 132.8125 140.625 L 132.8125 156.25 L 117.1875 156.25 Z M 117.1875 140.625 " fill-opacity="1" fill-rule="nonzero"/><path fill="#000000" d="M 70.3125 140.625 L 109.375 140.625 L 109.375 156.25 L 70.3125 156.25 Z M 70.3125 140.625 " fill-opacity="1" fill-rule="nonzero"/></svg>