<svg xmlns="http://www.w3.org/2000/svg" xmlns:xlink="http://www.w3.org/1999/xlink" width="500" zoomAndPan="magnify" viewBox="0 0 375 374.999991" height="500" preserveAspectRatio="xMidYMid meet" version="1.0"><path fill="#ffffff" d="M 238.25 108.222656 C 237.710938 108.761719 237.09375 109.234375 236.398438 109.628906 C 232.242188 111.992188 226.953125 110.539062 224.59375 106.378906 C 220.761719 99.636719 216.011719 93.414062 210.472656 87.875 C 207.089844 84.492188 207.089844 79.011719 210.472656 75.628906 C 213.855469 72.25 219.339844 72.25 222.722656 75.628906 C 229.355469 82.265625 235.050781 89.730469 239.648438 97.820312 C 241.621094 101.285156 240.9375 105.535156 238.25 108.222656 " fill-opacity="1" fill-rule="nonzero"/><path fill="#ffffff" d="M 194.945312 68.554688 C 192.460938 71.039062 188.605469 71.851562 185.222656 70.304688 C 165.015625 61.074219 141.382812 60.007812 120.382812 67.382812 C 115.871094 68.96875 110.929688 66.59375 109.34375 62.082031 C 107.761719 57.566406 110.136719 52.625 114.648438 51.039062 C 140.199219 42.070312 167.820312 43.316406 192.417969 54.554688 C 196.769531 56.542969 198.683594 61.675781 196.699219 66.027344 C 196.253906 66.996094 195.652344 67.84375 194.945312 68.554688 " fill-opacity="1" fill-rule="nonzero"/><path fill="#ffffff" d="M 264.636719 149.175781 C 264.636719 180.015625 252.625 209.011719 230.816406 230.820312 C 209.011719 252.625 180.015625 264.636719 149.175781 264.636719 C 118.332031 264.636719 89.339844 252.625 67.53125 230.820312 C 45.722656 209.011719 33.710938 180.015625 33.710938 149.175781 C 33.710938 118.332031 45.722656 89.339844 67.53125 67.53125 C 89.339844 45.722656 118.332031 33.710938 149.175781 33.710938 C 180.015625 33.710938 209.011719 45.722656 230.816406 67.53125 C 252.625 89.339844 264.636719 118.332031 264.636719 149.175781 Z M 47.121094 47.121094 C -9.242188 103.480469 -9.242188 194.867188 47.121094 251.230469 C 101.195312 305.304688 187.503906 307.488281 244.195312 257.800781 L 249.664062 263.269531 C 247.957031 269.6875 249.597656 276.816406 254.632812 281.84375 L 337.007812 364.222656 C 344.523438 371.738281 356.707031 371.738281 364.222656 364.222656 C 371.738281 356.707031 371.738281 344.523438 364.222656 337.007812 L 281.847656 254.632812 C 276.816406 249.597656 269.6875 247.953125 263.273438 249.664062 L 257.800781 244.195312 C 307.492188 187.503906 305.308594 101.195312 251.230469 47.121094 C 194.867188 -9.242188 103.480469 -9.242188 47.121094 47.121094 " fill-opacity="1" fill-rule="nonzero"/></svg>