<svg xmlns="http://www.w3.org/2000/svg" xmlns:xlink="http://www.w3.org/1999/xlink" width="500" zoomAndPan="magnify" viewBox="0 0 375 374.999991" height="500" preserveAspectRatio="xMidYMid meet" version="1.0"><defs><clipPath id="id1"><path d="M 0 43 L 375 43 L 375 368.578125 L 0 368.578125 Z M 0 43 " clip-rule="nonzero"/></clipPath><clipPath id="id2"><path d="M 56 6.328125 L 144 6.328125 L 144 94 L 56 94 Z M 56 6.328125 " clip-rule="nonzero"/></clipPath></defs><g clip-path="url(#id1)"><path fill="#000000" d="M 368.671875 168.714844 L 287.457031 168.714844 L 287.457031 156.226562 L 324.941406 156.226562 C 335.273438 156.226562 343.683594 147.816406 343.683594 137.488281 L 343.683594 62.539062 C 343.683594 52.207031 335.273438 43.800781 324.941406 43.800781 L 212.488281 43.800781 C 202.15625 43.800781 193.746094 52.207031 193.746094 62.539062 L 193.746094 137.488281 C 193.746094 147.816406 202.15625 156.226562 212.488281 156.226562 L 249.972656 156.226562 L 249.972656 168.714844 L 156.261719 168.714844 L 156.261719 162.46875 C 156.261719 131.472656 131.035156 106.257812 100.039062 106.257812 C 69.039062 106.257812 43.8125 131.472656 43.8125 162.46875 L 43.8125 168.714844 L 6.328125 168.714844 C 2.878906 168.714844 0.0820312 171.507812 0.0820312 174.960938 L 0.0820312 199.945312 C 0.0820312 203.398438 2.878906 206.191406 6.328125 206.191406 L 12.574219 206.191406 L 12.574219 362.332031 C 12.574219 365.785156 15.375 368.578125 18.824219 368.578125 L 356.175781 368.578125 C 359.625 368.578125 362.425781 365.785156 362.425781 362.332031 L 362.425781 206.191406 L 368.671875 206.191406 C 372.121094 206.191406 374.917969 203.398438 374.917969 199.945312 L 374.917969 174.960938 C 374.917969 171.507812 372.121094 168.714844 368.671875 168.714844 Z M 206.242188 137.488281 L 206.242188 62.539062 C 206.242188 59.089844 209.046875 56.292969 212.488281 56.292969 L 324.941406 56.292969 C 328.382812 56.292969 331.1875 59.089844 331.1875 62.539062 L 331.1875 137.488281 C 331.1875 140.933594 328.382812 143.734375 324.941406 143.734375 L 212.488281 143.734375 C 209.046875 143.734375 206.242188 140.933594 206.242188 137.488281 Z M 262.46875 156.226562 L 274.960938 156.226562 L 274.960938 168.714844 L 262.46875 168.714844 Z M 56.304688 162.46875 C 56.304688 138.367188 75.921875 118.75 100.039062 118.75 C 124.152344 118.75 143.769531 138.367188 143.769531 162.46875 L 143.769531 168.714844 L 56.304688 168.714844 Z M 349.929688 356.085938 L 25.070312 356.085938 L 25.070312 206.191406 L 349.929688 206.191406 Z M 362.425781 193.699219 L 12.574219 193.699219 L 12.574219 181.207031 L 362.425781 181.207031 Z M 362.425781 193.699219 " fill-opacity="1" fill-rule="nonzero"/></g><g clip-path="url(#id2)"><path fill="#000000" d="M 100.039062 93.769531 C 124.152344 93.769531 143.769531 74.148438 143.769531 50.046875 C 143.769531 25.945312 124.152344 6.328125 100.039062 6.328125 C 75.921875 6.328125 56.304688 25.945312 56.304688 50.046875 C 56.304688 74.148438 75.921875 93.769531 100.039062 93.769531 Z M 100.039062 18.820312 C 117.261719 18.820312 131.273438 32.828125 131.273438 50.046875 C 131.273438 67.265625 117.261719 81.277344 100.039062 81.277344 C 82.8125 81.277344 68.800781 67.265625 68.800781 50.046875 C 68.800781 32.828125 82.8125 18.820312 100.039062 18.820312 Z M 100.039062 18.820312 " fill-opacity="1" fill-rule="nonzero"/></g><path fill="#000000" d="M 118.78125 299.875 L 256.21875 299.875 C 259.667969 299.875 262.46875 297.082031 262.46875 293.628906 L 262.46875 243.664062 C 262.46875 240.210938 259.667969 237.417969 256.21875 237.417969 L 118.78125 237.417969 C 115.332031 237.417969 112.53125 240.210938 112.53125 243.664062 L 112.53125 293.628906 C 112.53125 297.082031 115.332031 299.875 118.78125 299.875 Z M 125.027344 249.910156 L 249.972656 249.910156 L 249.972656 287.382812 L 125.027344 287.382812 Z M 125.027344 249.910156 " fill-opacity="1" fill-rule="nonzero"/><path fill="#000000" d="M 137.523438 262.402344 L 237.476562 262.402344 L 237.476562 274.894531 L 137.523438 274.894531 Z M 137.523438 262.402344 " fill-opacity="1" fill-rule="nonzero"/></svg>