<svg xmlns="http://www.w3.org/2000/svg" xmlns:xlink="http://www.w3.org/1999/xlink" width="500" zoomAndPan="magnify" viewBox="0 0 375 374.999991" height="500" preserveAspectRatio="xMidYMid meet" version="1.0"><path fill="#000000" d="M 155.914062 80.222656 L 263.160156 187.433594 C 263.371094 187.644531 263.476562 187.898438 263.472656 188.195312 C 263.476562 188.492188 263.375 188.742188 263.160156 188.949219 L 155.996094 295.691406 C 154.132812 297.542969 152.46875 299.554688 151 301.734375 C 149.535156 303.914062 148.300781 306.214844 147.289062 308.640625 C 146.28125 311.0625 145.523438 313.5625 145.011719 316.140625 C 144.496094 318.714844 144.246094 321.316406 144.25 323.941406 L 144.25 323.980469 C 144.25 325.941406 144.390625 327.894531 144.679688 329.835938 C 144.96875 331.777344 145.394531 333.6875 145.964844 335.566406 C 146.535156 337.445312 147.238281 339.273438 148.078125 341.046875 C 148.917969 342.824219 149.882812 344.527344 150.972656 346.160156 C 152.0625 347.792969 153.265625 349.335938 154.582031 350.792969 C 155.902344 352.246094 157.320312 353.597656 158.835938 354.84375 C 160.351562 356.089844 161.953125 357.21875 163.636719 358.230469 C 165.320312 359.238281 167.070312 360.121094 168.882812 360.875 C 170.695312 361.625 172.554688 362.242188 174.460938 362.722656 C 176.363281 363.199219 178.292969 363.535156 180.246094 363.730469 C 182.203125 363.925781 184.160156 363.976562 186.121094 363.882812 C 188.082031 363.789062 190.027344 363.550781 191.953125 363.171875 C 193.878906 362.789062 195.765625 362.269531 197.617188 361.609375 C 199.464844 360.953125 201.257812 360.160156 202.992188 359.238281 C 204.722656 358.316406 206.378906 357.269531 207.960938 356.105469 C 209.539062 354.9375 211.023438 353.660156 212.414062 352.273438 L 326.09375 239.039062 L 371.359375 193.308594 C 371.722656 192.941406 372.050781 192.539062 372.335938 192.105469 C 372.625 191.671875 372.867188 191.214844 373.0625 190.734375 C 373.261719 190.25 373.410156 189.753906 373.507812 189.246094 C 373.609375 188.734375 373.660156 188.21875 373.65625 187.699219 C 373.65625 187.179688 373.601562 186.664062 373.5 186.15625 C 373.398438 185.644531 373.246094 185.148438 373.046875 184.667969 C 372.847656 184.1875 372.601562 183.734375 372.3125 183.300781 C 372.023438 182.867188 371.695312 182.46875 371.328125 182.101562 L 212.414062 23.648438 C 211.488281 22.726562 210.515625 21.847656 209.503906 21.019531 C 208.492188 20.191406 207.441406 19.414062 206.351562 18.691406 C 205.261719 17.964844 204.136719 17.292969 202.984375 16.679688 C 201.828125 16.0625 200.644531 15.507812 199.433594 15.007812 C 198.226562 14.507812 196.992188 14.070312 195.742188 13.691406 C 194.488281 13.3125 193.21875 13 191.933594 12.746094 C 190.652344 12.492188 189.355469 12.300781 188.054688 12.175781 C 186.75 12.046875 185.445312 11.984375 184.136719 11.988281 C 182.828125 11.988281 181.523438 12.054688 180.21875 12.183594 C 178.917969 12.3125 177.625 12.507812 176.339844 12.761719 C 175.058594 13.019531 173.789062 13.339844 172.539062 13.71875 C 171.285156 14.101562 170.054688 14.542969 168.84375 15.042969 C 167.636719 15.546875 166.457031 16.105469 165.300781 16.726562 C 164.148438 17.34375 163.027344 18.015625 161.941406 18.742188 C 160.851562 19.472656 159.800781 20.25 158.792969 21.082031 C 157.78125 21.914062 156.8125 22.792969 155.886719 23.71875 C 154.964844 24.644531 154.085938 25.613281 153.257812 26.625 C 152.425781 27.636719 151.648438 28.6875 150.921875 29.773438 C 150.195312 30.863281 149.523438 31.984375 148.90625 33.140625 C 148.292969 34.292969 147.734375 35.476562 147.234375 36.683594 C 146.734375 37.894531 146.292969 39.125 145.914062 40.378906 C 145.535156 41.628906 145.21875 42.898438 144.964844 44.179688 C 144.707031 45.464844 144.519531 46.757812 144.390625 48.058594 C 144.261719 49.363281 144.199219 50.667969 144.199219 51.976562 C 144.199219 53.285156 144.265625 54.589844 144.394531 55.890625 C 144.523438 57.195312 144.714844 58.484375 144.96875 59.769531 C 145.226562 61.050781 145.542969 62.320312 145.925781 63.570312 C 146.304688 64.824219 146.746094 66.054688 147.246094 67.261719 C 147.75 68.472656 148.308594 69.652344 148.925781 70.808594 C 149.542969 71.960938 150.214844 73.082031 150.941406 74.167969 C 151.667969 75.257812 152.449219 76.308594 153.277344 77.320312 C 154.109375 78.328125 154.988281 79.296875 155.914062 80.222656 Z M 201.183594 34.90625 L 354.492188 187.753906 L 314.824219 227.824219 L 201.183594 341.019531 C 200.347656 341.851562 199.453125 342.621094 198.503906 343.324219 C 197.550781 344.027344 196.554688 344.65625 195.511719 345.210938 C 194.46875 345.765625 193.390625 346.242188 192.277344 346.636719 C 191.164062 347.035156 190.027344 347.347656 188.867188 347.578125 C 187.707031 347.804688 186.535156 347.949219 185.355469 348.003906 C 184.175781 348.0625 182.996094 348.03125 181.820312 347.914062 C 180.644531 347.796875 179.480469 347.59375 178.335938 347.304688 C 177.1875 347.015625 176.070312 346.644531 174.980469 346.191406 C 173.886719 345.738281 172.835938 345.207031 171.820312 344.601562 C 170.808594 343.992188 169.84375 343.3125 168.929688 342.5625 C 168.019531 341.8125 167.164062 340.996094 166.371094 340.121094 C 165.578125 339.246094 164.851562 338.316406 164.199219 337.332031 C 163.542969 336.351562 162.960938 335.324219 162.457031 334.253906 C 161.949219 333.1875 161.527344 332.085938 161.183594 330.957031 C 160.84375 329.824219 160.585938 328.675781 160.410156 327.507812 C 160.238281 326.335938 160.152344 325.160156 160.152344 323.980469 L 160.152344 323.957031 C 160.148438 322.375 160.300781 320.808594 160.609375 319.257812 C 160.917969 317.707031 161.375 316.203125 161.984375 314.742188 C 162.589844 313.285156 163.335938 311.898438 164.21875 310.585938 C 165.101562 309.273438 166.105469 308.0625 167.226562 306.949219 L 274.382812 200.210938 C 275.984375 198.625 277.21875 196.792969 278.085938 194.710938 C 278.953125 192.632812 279.382812 190.464844 279.375 188.210938 L 279.375 188.195312 C 279.382812 185.941406 278.957031 183.777344 278.09375 181.695312 C 277.230469 179.617188 276.003906 177.78125 274.40625 176.191406 L 167.15625 68.984375 C 166.601562 68.425781 166.074219 67.839844 165.574219 67.230469 C 165.078125 66.621094 164.609375 65.992188 164.171875 65.335938 C 163.734375 64.679688 163.332031 64.003906 162.960938 63.3125 C 162.59375 62.617188 162.257812 61.90625 161.957031 61.175781 C 161.65625 60.449219 161.390625 59.710938 161.164062 58.957031 C 160.9375 58.203125 160.746094 57.441406 160.59375 56.667969 C 160.4375 55.894531 160.324219 55.117188 160.246094 54.335938 C 160.171875 53.550781 160.132812 52.765625 160.132812 51.980469 C 160.132812 51.191406 160.171875 50.40625 160.25 49.621094 C 160.328125 48.839844 160.441406 48.0625 160.597656 47.289062 C 160.75 46.519531 160.941406 45.753906 161.167969 45.003906 C 161.398438 44.25 161.664062 43.507812 161.964844 42.78125 C 162.265625 42.054688 162.601562 41.34375 162.972656 40.648438 C 163.34375 39.953125 163.746094 39.28125 164.183594 38.625 C 164.621094 37.96875 165.089844 37.339844 165.589844 36.730469 C 166.085938 36.121094 166.613281 35.539062 167.171875 34.980469 C 167.726562 34.421875 168.308594 33.894531 168.917969 33.394531 C 169.527344 32.894531 170.15625 32.425781 170.8125 31.988281 C 171.464844 31.550781 172.140625 31.144531 172.832031 30.773438 C 173.527344 30.402344 174.238281 30.0625 174.964844 29.761719 C 175.691406 29.457031 176.433594 29.191406 177.183594 28.960938 C 177.9375 28.734375 178.699219 28.539062 179.472656 28.386719 C 180.246094 28.230469 181.023438 28.113281 181.804688 28.035156 C 182.589844 27.957031 183.375 27.914062 184.164062 27.914062 C 184.949219 27.914062 185.734375 27.949219 186.519531 28.023438 C 187.304688 28.097656 188.082031 28.210938 188.855469 28.363281 C 189.625 28.515625 190.390625 28.703125 191.144531 28.929688 C 191.898438 29.15625 192.640625 29.421875 193.367188 29.71875 C 194.097656 30.019531 194.808594 30.351562 195.503906 30.722656 C 196.199219 31.089844 196.875 31.492188 197.53125 31.929688 C 198.1875 32.363281 198.820312 32.828125 199.429688 33.328125 C 200.042969 33.824219 200.625 34.351562 201.183594 34.902344 Z M 201.183594 34.90625 " fill-opacity="1" fill-rule="nonzero"/><path fill="#000000" d="M 16.226562 80.222656 L 123.476562 187.433594 C 123.574219 187.535156 123.652344 187.652344 123.707031 187.78125 C 123.761719 187.914062 123.789062 188.050781 123.785156 188.191406 C 123.785156 188.335938 123.757812 188.472656 123.703125 188.601562 C 123.648438 188.734375 123.570312 188.847656 123.46875 188.949219 L 16.3125 295.691406 C 14.445312 297.539062 12.78125 299.554688 11.3125 301.734375 C 9.847656 303.914062 8.609375 306.214844 7.601562 308.640625 C 6.59375 311.0625 5.832031 313.5625 5.320312 316.140625 C 4.804688 318.714844 4.550781 321.316406 4.554688 323.941406 L 4.554688 323.980469 C 4.554688 325.941406 4.699219 327.894531 4.988281 329.835938 C 5.277344 331.777344 5.707031 333.6875 6.273438 335.566406 C 6.84375 337.445312 7.550781 339.269531 8.386719 341.046875 C 9.226562 342.820312 10.191406 344.523438 11.28125 346.15625 C 12.371094 347.789062 13.578125 349.332031 14.894531 350.785156 C 16.210938 352.242188 17.628906 353.59375 19.144531 354.839844 C 20.664062 356.085938 22.261719 357.214844 23.945312 358.222656 C 25.628906 359.234375 27.378906 360.113281 29.191406 360.867188 C 31.003906 361.621094 32.863281 362.238281 34.769531 362.714844 C 36.671875 363.195312 38.601562 363.53125 40.554688 363.726562 C 42.507812 363.921875 44.464844 363.96875 46.429688 363.875 C 48.390625 363.78125 50.332031 363.546875 52.257812 363.164062 C 54.183594 362.785156 56.074219 362.265625 57.921875 361.605469 C 59.773438 360.949219 61.5625 360.160156 63.296875 359.234375 C 65.03125 358.3125 66.6875 357.269531 68.265625 356.101562 C 69.84375 354.9375 71.328125 353.660156 72.722656 352.273438 L 186.398438 239.039062 L 231.664062 193.308594 C 232.03125 192.941406 232.355469 192.539062 232.644531 192.105469 C 232.929688 191.671875 233.171875 191.214844 233.371094 190.734375 C 233.566406 190.25 233.714844 189.753906 233.816406 189.246094 C 233.914062 188.734375 233.964844 188.21875 233.964844 187.699219 C 233.960938 187.179688 233.910156 186.664062 233.808594 186.15625 C 233.703125 185.644531 233.554688 185.148438 233.355469 184.667969 C 233.152344 184.1875 232.910156 183.734375 232.621094 183.300781 C 232.332031 182.867188 232 182.46875 231.632812 182.101562 L 72.722656 23.648438 C 71.792969 22.726562 70.824219 21.851562 69.808594 21.023438 C 68.796875 20.195312 67.746094 19.417969 66.65625 18.695312 C 65.566406 17.96875 64.445312 17.300781 63.289062 16.6875 C 62.132812 16.074219 60.953125 15.515625 59.742188 15.019531 C 58.53125 14.519531 57.300781 14.082031 56.046875 13.703125 C 54.796875 13.328125 53.527344 13.011719 52.242188 12.757812 C 50.960938 12.507812 49.667969 12.316406 48.363281 12.191406 C 47.0625 12.0625 45.757812 12.003906 44.449219 12.003906 C 43.140625 12.007812 41.835938 12.070312 40.535156 12.203125 C 39.230469 12.332031 37.9375 12.527344 36.65625 12.78125 C 35.375 13.039062 34.105469 13.359375 32.855469 13.738281 C 31.601562 14.121094 30.371094 14.5625 29.164062 15.066406 C 27.957031 15.566406 26.777344 16.128906 25.621094 16.746094 C 24.46875 17.363281 23.347656 18.035156 22.261719 18.761719 C 21.175781 19.492188 20.125 20.269531 19.117188 21.101562 C 18.105469 21.933594 17.136719 22.808594 16.214844 23.734375 C 15.289062 24.660156 14.410156 25.628906 13.582031 26.640625 C 12.753906 27.652344 11.976562 28.703125 11.25 29.792969 C 10.523438 30.878906 9.851562 32 9.234375 33.15625 C 8.621094 34.308594 8.0625 35.488281 7.5625 36.699219 C 7.0625 37.90625 6.621094 39.136719 6.242188 40.390625 C 5.863281 41.640625 5.546875 42.910156 5.292969 44.191406 C 5.039062 45.472656 4.847656 46.765625 4.71875 48.066406 C 4.589844 49.371094 4.527344 50.675781 4.527344 51.984375 C 4.527344 53.289062 4.59375 54.59375 4.71875 55.898438 C 4.847656 57.199219 5.039062 58.492188 5.296875 59.773438 C 5.550781 61.054688 5.871094 62.324219 6.25 63.574219 C 6.628906 64.828125 7.070312 66.058594 7.570312 67.265625 C 8.070312 68.472656 8.628906 69.65625 9.246094 70.808594 C 9.863281 71.960938 10.535156 73.082031 11.261719 74.171875 C 11.988281 75.257812 12.765625 76.308594 13.59375 77.320312 C 14.425781 78.328125 15.300781 79.296875 16.226562 80.222656 Z M 61.492188 34.90625 L 214.796875 187.753906 L 175.132812 227.824219 L 61.492188 341.019531 C 60.65625 341.851562 59.761719 342.621094 58.808594 343.324219 C 57.859375 344.023438 56.863281 344.652344 55.816406 345.207031 C 54.773438 345.761719 53.695312 346.238281 52.582031 346.632812 C 51.46875 347.03125 50.332031 347.34375 49.171875 347.570312 C 48.011719 347.800781 46.84375 347.941406 45.664062 348 C 44.480469 348.054688 43.304688 348.023438 42.128906 347.90625 C 40.953125 347.789062 39.789062 347.585938 38.644531 347.300781 C 37.5 347.011719 36.378906 346.640625 35.289062 346.1875 C 34.195312 345.734375 33.144531 345.203125 32.128906 344.59375 C 31.117188 343.984375 30.152344 343.304688 29.242188 342.554688 C 28.328125 341.804688 27.472656 340.992188 26.679688 340.117188 C 25.886719 339.242188 25.164062 338.3125 24.507812 337.328125 C 23.851562 336.34375 23.269531 335.320312 22.765625 334.253906 C 22.261719 333.183594 21.835938 332.085938 21.492188 330.953125 C 21.152344 329.824219 20.894531 328.671875 20.71875 327.503906 C 20.546875 326.335938 20.460938 325.160156 20.460938 323.980469 L 20.460938 323.957031 C 20.457031 322.375 20.609375 320.808594 20.917969 319.257812 C 21.230469 317.707031 21.6875 316.203125 22.296875 314.742188 C 22.902344 313.28125 23.648438 311.898438 24.53125 310.585938 C 25.414062 309.273438 26.417969 308.0625 27.542969 306.949219 L 134.6875 200.210938 C 136.257812 198.597656 137.472656 196.753906 138.335938 194.675781 C 139.203125 192.597656 139.652344 190.4375 139.691406 188.1875 C 139.695312 185.9375 139.269531 183.769531 138.40625 181.691406 C 137.546875 179.613281 136.316406 177.78125 134.71875 176.195312 L 27.472656 68.984375 C 26.914062 68.425781 26.386719 67.84375 25.886719 67.234375 C 25.386719 66.625 24.917969 65.992188 24.480469 65.335938 C 24.042969 64.683594 23.636719 64.007812 23.265625 63.3125 C 22.894531 62.617188 22.558594 61.90625 22.253906 61.179688 C 21.953125 60.453125 21.6875 59.710938 21.460938 58.957031 C 21.230469 58.203125 21.039062 57.441406 20.886719 56.667969 C 20.730469 55.894531 20.617188 55.117188 20.539062 54.332031 C 20.460938 53.546875 20.421875 52.761719 20.421875 51.972656 C 20.421875 51.1875 20.457031 50.402344 20.535156 49.617188 C 20.613281 48.832031 20.726562 48.054688 20.882812 47.28125 C 21.035156 46.507812 21.226562 45.746094 21.453125 44.992188 C 21.683594 44.238281 21.945312 43.496094 22.246094 42.769531 C 22.546875 42.039062 22.882812 41.328125 23.253906 40.632812 C 23.625 39.9375 24.03125 39.261719 24.46875 38.609375 C 24.90625 37.953125 25.375 37.320312 25.871094 36.710938 C 26.371094 36.101562 26.898438 35.519531 27.457031 34.960938 C 28.011719 34.402344 28.597656 33.875 29.203125 33.371094 C 29.8125 32.871094 30.445312 32.402344 31.101562 31.964844 C 31.753906 31.527344 32.429688 31.121094 33.125 30.75 C 33.816406 30.375 34.53125 30.039062 35.257812 29.738281 C 35.984375 29.433594 36.726562 29.167969 37.480469 28.9375 C 38.234375 28.707031 38.996094 28.515625 39.769531 28.363281 C 40.542969 28.207031 41.320312 28.089844 42.105469 28.011719 C 42.886719 27.933594 43.675781 27.894531 44.460938 27.890625 C 45.25 27.890625 46.039062 27.929688 46.820312 28.003906 C 47.605469 28.078125 48.386719 28.195312 49.15625 28.347656 C 49.929688 28.5 50.695312 28.6875 51.449219 28.914062 C 52.203125 29.144531 52.945312 29.40625 53.675781 29.707031 C 54.402344 30.007812 55.117188 30.34375 55.8125 30.710938 C 56.507812 31.082031 57.183594 31.484375 57.839844 31.921875 C 58.496094 32.359375 59.128906 32.824219 59.738281 33.324219 C 60.347656 33.820312 60.933594 34.347656 61.492188 34.90625 Z M 61.492188 34.90625 " fill-opacity="1" fill-rule="nonzero"/></svg>