<svg xmlns="http://www.w3.org/2000/svg" xmlns:xlink="http://www.w3.org/1999/xlink" width="369" zoomAndPan="magnify" viewBox="0 0 276.75 296.999993" height="396" preserveAspectRatio="xMidYMid meet" version="1.0"><defs><clipPath id="a02a36ab1d"><path d="M 0 29.933594 L 276.5 29.933594 L 276.5 267.261719 L 0 267.261719 Z M 0 29.933594 " clip-rule="nonzero"/></clipPath></defs><g clip-path="url(#a02a36ab1d)"><path fill="#ffffff" d="M 216.851562 98.269531 L 141.839844 70.089844 C 136.703125 68.171875 131.003906 70.777344 129.085938 75.917969 C 127.171875 81.054688 129.800781 86.761719 134.910156 88.679688 L 189.382812 109.066406 L 138.375 128.835938 L 37.171875 89.269531 L 138.375 50.390625 L 239.601562 89.269531 Z M 208.054688 156.257812 C 207.808594 156.96875 207.636719 157.757812 207.5625 158.519531 L 207.5625 161.59375 L 138.375 187.511719 L 69.1875 161.296875 L 69.1875 123.207031 L 134.714844 148.632812 C 137.074219 149.566406 139.675781 149.566406 142.035156 148.632812 L 207.5625 123.105469 Z M 217.4375 239.644531 L 209.550781 227.765625 L 217.4375 215.890625 L 225.351562 227.765625 Z M 270.410156 80.074219 L 141.9375 30.621094 C 139.652344 29.734375 137.097656 29.734375 134.8125 30.621094 L 6.339844 80.074219 C 2.53125 81.546875 0.0234375 85.1875 0 89.269531 C 0 93.328125 2.457031 96.96875 6.214844 98.46875 L 49.410156 115.386719 L 49.410156 161.296875 C 49.261719 169.484375 54.175781 176.914062 61.765625 179.988281 L 132.035156 206.199219 C 134.074219 206.988281 136.214844 207.382812 138.375 207.382812 C 140.488281 207.382812 142.601562 207.011719 144.589844 206.300781 L 207.5625 182.765625 L 207.5625 195.132812 L 189.480469 222.332031 C 187.316406 225.628906 187.316406 229.90625 189.480469 233.203125 L 209.257812 262.882812 C 212.28125 267.433594 218.421875 268.636719 222.96875 265.589844 C 224.023438 264.875 224.933594 263.941406 225.644531 262.882812 L 245.425781 233.203125 C 247.585938 229.90625 247.585938 225.628906 245.425781 222.332031 L 227.339844 195.132812 L 227.339844 115.386719 L 270.535156 98.46875 C 274.292969 96.96875 276.75 93.328125 276.75 89.269531 C 276.726562 85.1875 274.21875 81.546875 270.410156 80.074219 " fill-opacity="1" fill-rule="nonzero"/></g></svg>